{
.appVersion = "118";
DisplayStrings = (
"abc`def`",
"abc-def--/space hello/space --help",
"IMMO,/space immo!/space -/quotedblleft hello/quotedblright ,/space they/quoteright d/space said."
);
copyright = "\\(c\\) 2020 Braille Institute of America, Inc., a 501\\(c\\)\\(3\\) Charitable Organization.";
date = "2019-01-01 10:00:48 +0000";
designer = "Elliott Scott, Megan Eiswerth, Linus Boman, Theodore Petrosky";
designerURL = "http://helloapplied.com";
familyName = "Atkinson Hypermono";
featurePrefixes = (
{
automatic = 1;
code = "languagesystem DFLT dflt;\012languagesystem latn dflt;\012languagesystem latn ROM;\012languagesystem latn MOL;\012";
name = Languagesystems;
}
);
features = (
{
automatic = 1;
code = "feature locl;\012feature frac;\012feature ordn;\012";
name = aalt;
},
{
automatic = 1;
code = "script latn;\012language ROM;\012sub Scedilla by Scommaaccent;\012sub scedilla by scommaaccent;\012sub Tcedilla by Tcommaaccent;\012sub tcedilla by tcommaaccent;\012language MOL;\012sub Scedilla by Scommaaccent;\012sub scedilla by scommaaccent;\012sub Tcedilla by Tcommaaccent;\012sub tcedilla by tcommaaccent;\012";
name = locl;
},
{
automatic = 1;
code = "sub one slash four by onequarter;\012sub one slash two by onehalf;\012sub three slash four by threequarters;\012";
name = frac;
},
{
automatic = 1;
code = "sub [zero one two three four five six seven eight nine] [A a]' by ordfeminine;\012sub [zero one two three four five six seven eight nine] [O o]' by ordmasculine;\012";
name = ordn;
}
);
fontMaster = (
{
alignmentZones = (
"{668, 12}",
"{496, 8}",
"{0, -12}",
"{-161, -12}"
);
ascender = 796;
capHeight = 668;
descender = -251;
horizontalStems = (
67,
74,
81
);
id = "5BF74C62-CA98-4714-A2D2-DE21E3561B55";
verticalStems = (
84,
94,
108,
129
);
weightValue = 400;
widthValue = 5;
xHeight = 496;
}
);
glyphs = (
{
glyphname = A;
lastChange = "2021-12-02 20:58:20 +0000";
layers = (
{
layerId = "5BF74C62-CA98-4714-A2D2-DE21E3561B55";
paths = (
{
closed = 1;
nodes = (
"10 0 LINE",
"110 0 LINE",
"161 146 LINE",
"465 146 LINE",
"516 0 LINE",
"616 0 LINE",
"366 669 LINE",
"261 669 LINE"
);
},
{
closed = 1;
nodes = (
"313 574 LINE",
"436 227 LINE",
"190 227 LINE"
);
}
);
width = 620;
}
);
leftKerningGroup = A;
note = A;
rightKerningGroup = A;
unicode = 0041;
},
{
glyphname = Aacute;
lastChange = "2021-12-02 21:20:44 +0000";
layers = (
{
hints = (
{
horizontal = 1;
place = "{0, 21}";
target = up;
type = BottomGhost;
},
{
horizontal = 1;
place = "{146, 81}";
type = Stem;
},
{
horizontal = 1;
place = "{669, -20}";
target = down;
type = TopGhost;
},
{
horizontal = 1;
place = "{744, 120}";
type = Stem;
},
{
place = "{10, 606}";
type = Stem;
},
{
horizontal = 1;
place = "{574, 95}";
type = Stem;
}
);
layerId = "5BF74C62-CA98-4714-A2D2-DE21E3561B55";
paths = (
{
closed = 1;
nodes = (
"10 0 LINE",
"110 0 LINE",
"161 146 LINE",
"465 146 LINE",
"516 0 LINE",
"616 0 LINE",
"366 669 LINE",
"261 669 LINE"
);
},
{
closed = 1;
nodes = (
"313 574 LINE",
"436 227 LINE",
"190 227 LINE"
);
},
{
closed = 1;
nodes = (
"353 744 LINE",
"359 748 OFFCURVE",
"416 781 OFFCURVE",
"433 796 CURVE",
"444 805 OFFCURVE",
"449 817 OFFCURVE",
"449 828 CURVE SMOOTH",
"449 848 OFFCURVE",
"433 864 OFFCURVE",
"413 864 CURVE SMOOTH",
"403 864 OFFCURVE",
"393 860 OFFCURVE",
"384 852 CURVE",
"367 838 OFFCURVE",
"286 753 OFFCURVE",
"277 744 CURVE"
);
}
);
width = 620;
}
);
leftKerningGroup = A;
note = Aacute;
rightKerningGroup = A;
unicode = 00C1;
},
{
glyphname = Abreve;
lastChange = "2021-12-02 21:20:44 +0000";
layers = (
{
hints = (
{
horizontal = 1;
place = "{0, 21}";
target = up;
type = BottomGhost;
},
{
horizontal = 1;
place = "{146, 81}";
type = Stem;
},
{
horizontal = 1;
place = "{669, -20}";
target = down;
type = TopGhost;
},
{
horizontal = 1;
place = "{735, 67}";
type = Stem;
},
{
place = "{10, 606}";
type = Stem;
},
{
horizontal = 1;
place = "{574, 95}";
type = Stem;
}
);
layerId = "5BF74C62-CA98-4714-A2D2-DE21E3561B55";
paths = (
{
closed = 1;
nodes = (
"10 0 LINE",
"110 0 LINE",
"161 146 LINE",
"465 146 LINE",
"516 0 LINE",
"616 0 LINE",
"366 669 LINE",
"261 669 LINE"
);
},
{
closed = 1;
nodes = (
"190 227 LINE",
"313 574 LINE",
"436 227 LINE"
);
},
{
closed = 1;
nodes = (
"392 855 LINE",
"379 824 OFFCURVE",
"349 802 OFFCURVE",
"314 802 CURVE SMOOTH",
"278 802 OFFCURVE",
"248 824 OFFCURVE",
"236 855 CURVE",
"167 855 LINE",
"181 787 OFFCURVE",
"241 735 OFFCURVE",
"314 735 CURVE SMOOTH",
"386 735 OFFCURVE",
"447 787 OFFCURVE",
"461 855 CURVE"
);
}
);
width = 620;
}
);
leftKerningGroup = A;
note = Abreve;
rightKerningGroup = A;
unicode = 0102;
},
{
glyphname = Acircumflex;
lastChange = "2021-12-02 21:20:44 +0000";
layers = (
{
hints = (
{
horizontal = 1;
place = "{0, 21}";
target = up;
type = BottomGhost;
},
{
horizontal = 1;
place = "{146, 81}";
type = Stem;
},
{
horizontal = 1;
place = "{669, -20}";
target = down;
type = TopGhost;
},
{
horizontal = 1;
place = "{747, 120}";
type = Stem;
},
{
place = "{10, 606}";
type = Stem;
},
{
horizontal = 1;
place = "{574, 95}";
type = Stem;
}
);
layerId = "5BF74C62-CA98-4714-A2D2-DE21E3561B55";
paths = (
{
closed = 1;
nodes = (
"110 0 LINE",
"161 146 LINE",
"465 146 LINE",
"516 0 LINE",
"616 0 LINE",
"366 669 LINE",
"261 669 LINE",
"10 0 LINE"
);
},
{
closed = 1;
nodes = (
"313 574 LINE",
"436 227 LINE",
"190 227 LINE"
);
},
{
closed = 1;
nodes = (
"246 747 LINE",
"313 808 LINE",
"381 747 LINE",
"475 747 LINE",
"363 848 LINE SMOOTH",
"349 861 OFFCURVE",
"331 867 OFFCURVE",
"314 867 CURVE SMOOTH",
"296 867 OFFCURVE",
"278 861 OFFCURVE",
"264 848 CURVE SMOOTH",
"152 747 LINE"
);
}
);
width = 620;
}
);
leftKerningGroup = A;
note = Acircumflex;
rightKerningGroup = A;
unicode = 00C2;
},
{
glyphname = Adieresis;
lastChange = "2021-12-02 21:20:44 +0000";
layers = (
{
hints = (
{
horizontal = 1;
place = "{0, 21}";
target = up;
type = BottomGhost;
},
{
horizontal = 1;
place = "{146, 81}";
type = Stem;
},
{
horizontal = 1;
place = "{669, -20}";
target = down;
type = TopGhost;
},
{
horizontal = 1;
place = "{740, 107}";
type = Stem;
},
{
place = "{154, 108}";
type = Stem;
},
{
place = "{366, 107}";
type = Stem;
},
{
horizontal = 1;
place = "{574, 95}";
type = Stem;
}
);
layerId = "5BF74C62-CA98-4714-A2D2-DE21E3561B55";
paths = (
{
closed = 1;
nodes = (
"10 0 LINE",
"110 0 LINE",
"161 146 LINE",
"465 146 LINE",
"516 0 LINE",
"616 0 LINE",
"366 669 LINE",
"261 669 LINE"
);
},
{
closed = 1;
nodes = (
"190 227 LINE",
"313 574 LINE",
"436 227 LINE"
);
},
{
closed = 1;
nodes = (
"238 740 OFFCURVE",
"262 764 OFFCURVE",
"262 794 CURVE SMOOTH",
"262 823 OFFCURVE",
"238 847 OFFCURVE",
"208 847 CURVE SMOOTH",
"178 847 OFFCURVE",
"154 823 OFFCURVE",
"154 794 CURVE SMOOTH",
"154 764 OFFCURVE",
"178 740 OFFCURVE",
"208 740 CURVE SMOOTH"
);
},
{
closed = 1;
nodes = (
"449 740 OFFCURVE",
"473 764 OFFCURVE",
"473 794 CURVE SMOOTH",
"473 823 OFFCURVE",
"449 847 OFFCURVE",
"419 847 CURVE SMOOTH",
"390 847 OFFCURVE",
"366 823 OFFCURVE",
"366 794 CURVE SMOOTH",
"366 764 OFFCURVE",
"390 740 OFFCURVE",
"419 740 CURVE SMOOTH"
);
}
);
width = 620;
}
);
leftKerningGroup = A;
note = Adieresis;
rightKerningGroup = A;
unicode = 00C4;
},
{
glyphname = Agrave;
lastChange = "2021-12-02 21:20:44 +0000";
layers = (
{
hints = (
{
horizontal = 1;
place = "{0, 21}";
target = up;
type = BottomGhost;
},
{
horizontal = 1;
place = "{146, 81}";
type = Stem;
},
{
horizontal = 1;
place = "{669, -20}";
target = down;
type = TopGhost;
},
{
horizontal = 1;
place = "{744, 120}";
type = Stem;
},
{
place = "{10, 606}";
type = Stem;
},
{
horizontal = 1;
place = "{574, 95}";
type = Stem;
}
);
layerId = "5BF74C62-CA98-4714-A2D2-DE21E3561B55";
paths = (
{
closed = 1;
nodes = (
"10 0 LINE",
"110 0 LINE",
"161 146 LINE",
"465 146 LINE",
"516 0 LINE",
"616 0 LINE",
"366 669 LINE",
"261 669 LINE"
);
},
{
closed = 1;
nodes = (
"313 574 LINE",
"436 227 LINE",
"190 227 LINE"
);
},
{
closed = 1;
nodes = (
"214 781 OFFCURVE",
"271 748 OFFCURVE",
"277 744 CURVE",
"353 744 LINE",
"247 851 LINE",
"238 861 OFFCURVE",
"226 864 OFFCURVE",
"216 864 CURVE SMOOTH",
"196 864 OFFCURVE",
"180 848 OFFCURVE",
"180 828 CURVE SMOOTH",
"180 817 OFFCURVE",
"186 805 OFFCURVE",
"196 796 CURVE"
);
}
);
width = 620;
}
);
leftKerningGroup = A;
note = Agrave;
rightKerningGroup = A;
unicode = 00C0;
},
{
glyphname = Amacron;
lastChange = "2021-12-02 21:20:44 +0000";
layers = (
{
hints = (
{
horizontal = 1;
place = "{0, 21}";
target = up;
type = BottomGhost;
},
{
horizontal = 1;
place = "{146, 81}";
type = Stem;
},
{
horizontal = 1;
place = "{669, -20}";
target = down;
type = TopGhost;
},
{
horizontal = 1;
place = "{762, 67}";
type = Stem;
},
{
place = "{10, 606}";
type = Stem;
},
{
horizontal = 1;
place = "{574, 95}";
type = Stem;
},
{
place = "{175, 276}";
type = Stem;
}
);
layerId = "5BF74C62-CA98-4714-A2D2-DE21E3561B55";
paths = (
{
closed = 1;
nodes = (
"10 0 LINE",
"110 0 LINE",
"161 146 LINE",
"465 146 LINE",
"516 0 LINE",
"616 0 LINE",
"366 669 LINE",
"261 669 LINE"
);
},
{
closed = 1;
nodes = (
"190 227 LINE",
"313 574 LINE",
"436 227 LINE"
);
},
{
closed = 1;
nodes = (
"451 762 LINE",
"451 829 LINE",
"175 829 LINE",
"175 762 LINE"
);
}
);
width = 620;
}
);
leftKerningGroup = A;
note = Amacron;
rightKerningGroup = A;
unicode = 0100;
},
{
glyphname = Aogonek;
lastChange = "2021-12-02 21:20:44 +0000";
layers = (
{
hints = (
{
horizontal = 1;
place = "{-173, 58}";
type = Stem;
},
{
horizontal = 1;
place = "{0, 21}";
target = up;
type = BottomGhost;
},
{
horizontal = 1;
place = "{146, 81}";
type = Stem;
},
{
horizontal = 1;
place = "{669, -20}";
target = down;
type = TopGhost;
},
{
place = "{459, 70}";
type = Stem;
},
{
horizontal = 1;
place = "{574, 95}";
type = Stem;
}
);
layerId = "5BF74C62-CA98-4714-A2D2-DE21E3561B55";
paths = (
{
closed = 1;
nodes = (
"110 0 LINE",
"161 146 LINE",
"465 146 LINE",
"516 0 LINE",
"490 -14 OFFCURVE",
"459 -43 OFFCURVE",
"459 -91 CURVE SMOOTH",
"459 -134 OFFCURVE",
"493 -173 OFFCURVE",
"553 -173 CURVE SMOOTH",
"572 -173 OFFCURVE",
"593 -169 OFFCURVE",
"616 -161 CURVE",
"616 -107 LINE",
"603 -113 OFFCURVE",
"590 -115 OFFCURVE",
"578 -115 CURVE SMOOTH",
"550 -115 OFFCURVE",
"529 -102 OFFCURVE",
"529 -74 CURVE SMOOTH",
"529 -40 OFFCURVE",
"560 -20 OFFCURVE",
"616 0 CURVE",
"366 669 LINE",
"261 669 LINE",
"10 0 LINE"
);
},
{
closed = 1;
nodes = (
"313 574 LINE",
"436 227 LINE",
"190 227 LINE"
);
}
);
width = 620;
}
);
leftKerningGroup = A;
note = Aogonek;
rightKerningGroup = A;
unicode = 0104;
},
{
glyphname = Aring;
lastChange = "2021-12-02 21:20:44 +0000";
layers = (
{
hints = (
{
horizontal = 1;
place = "{0, 21}";
target = up;
type = BottomGhost;
},
{
horizontal = 1;
place = "{146, 81}";
type = Stem;
},
{
horizontal = 1;
place = "{678, -20}";
target = down;
type = TopGhost;
},
{
horizontal = 1;
place = "{780, 58}";
type = Stem;
},
{
place = "{204, 57}";
type = Stem;
},
{
place = "{365, 57}";
type = Stem;
}
);
layerId = "5BF74C62-CA98-4714-A2D2-DE21E3561B55";
paths = (
{
closed = 1;
nodes = (
"110 0 LINE",
"161 146 LINE",
"465 146 LINE",
"516 0 LINE",
"616 0 LINE",
"377 640 LINE",
"405 660 OFFCURVE",
"422 693 OFFCURVE",
"422 729 CURVE SMOOTH",
"422 788 OFFCURVE",
"376 838 OFFCURVE",
"315 838 CURVE SMOOTH",
"253 838 OFFCURVE",
"204 788 OFFCURVE",
"204 729 CURVE SMOOTH",
"204 693 OFFCURVE",
"222 661 OFFCURVE",
"250 641 CURVE",
"10 0 LINE"
);
},
{
closed = 1;
nodes = (
"313 574 LINE",
"436 227 LINE",
"190 227 LINE"
);
},
{
closed = 1;
nodes = (
"342 780 OFFCURVE",
"365 757 OFFCURVE",
"365 729 CURVE SMOOTH",
"365 701 OFFCURVE",
"342 678 OFFCURVE",
"313 678 CURVE SMOOTH",
"284 678 OFFCURVE",
"261 701 OFFCURVE",
"261 729 CURVE SMOOTH",
"261 757 OFFCURVE",
"284 780 OFFCURVE",
"313 780 CURVE SMOOTH"
);
}
);
width = 620;
}
);
leftKerningGroup = A;
note = Aring;
rightKerningGroup = A;
unicode = 00C5;
},
{
glyphname = Atilde;
lastChange = "2021-12-02 21:20:44 +0000";
layers = (
{
hints = (
{
horizontal = 1;
place = "{0, 21}";
target = up;
type = BottomGhost;
},
{
horizontal = 1;
place = "{146, 81}";
type = Stem;
},
{
horizontal = 1;
place = "{669, -20}";
target = down;
type = TopGhost;
},
{
horizontal = 1;
place = "{749, 63}";
type = Stem;
},
{
place = "{10, 606}";
type = Stem;
},
{
horizontal = 1;
place = "{574, 95}";
type = Stem;
},
{
horizontal = 1;
place = "{792, 63}";
type = Stem;
}
);
layerId = "5BF74C62-CA98-4714-A2D2-DE21E3561B55";
paths = (
{
closed = 1;
nodes = (
"110 0 LINE",
"161 146 LINE",
"465 146 LINE",
"516 0 LINE",
"616 0 LINE",
"366 669 LINE",
"261 669 LINE",
"10 0 LINE"
);
},
{
closed = 1;
nodes = (
"313 574 LINE",
"436 227 LINE",
"190 227 LINE"
);
},
{
closed = 1;
nodes = (
"214 751 LINE",
"217 777 OFFCURVE",
"232 792 OFFCURVE",
"256 792 CURVE SMOOTH",
"295 792 OFFCURVE",
"326 749 OFFCURVE",
"381 749 CURVE SMOOTH",
"444 749 OFFCURVE",
"478 801 OFFCURVE",
"478 823 CURVE SMOOTH",
"478 840 OFFCURVE",
"463 854 OFFCURVE",
"447 854 CURVE SMOOTH",
"437 854 OFFCURVE",
"426 849 OFFCURVE",
"418 835 CURVE SMOOTH",
"409 820 OFFCURVE",
"399 812 OFFCURVE",
"379 812 CURVE SMOOTH",
"337 812 OFFCURVE",
"311 855 OFFCURVE",
"255 855 CURVE SMOOTH",
"202 855 OFFCURVE",
"161 822 OFFCURVE",
"149 751 CURVE"
);
}
);
width = 620;
}
);
leftKerningGroup = A;
note = Atilde;
rightKerningGroup = A;
unicode = 00C3;
},
{
glyphname = AE;
lastChange = "2021-12-02 21:20:44 +0000";
layers = (
{
hints = (
{
horizontal = 1;
place = "{0, 81}";
type = Stem;
},
{
horizontal = 1;
place = "{145, 81}";
type = Stem;
},
{
horizontal = 1;
place = "{303, 81}";
type = Stem;
},
{
horizontal = 1;
place = "{587, 81}";
type = Stem;
},
{
place = "{506, 94}";
type = Stem;
}
);
layerId = "5BF74C62-CA98-4714-A2D2-DE21E3561B55";
paths = (
{
closed = 1;
nodes = (
"10 0 LINE",
"119 0 LINE",
"223 145 LINE",
"506 145 LINE",
"506 0 LINE",
"960 0 LINE",
"960 81 LINE",
"600 81 LINE",
"600 303 LINE",
"866 303 LINE",
"866 384 LINE",
"600 384 LINE",
"600 587 LINE",
"960 587 LINE",
"960 668 LINE",
"496 668 LINE"
);
},
{
closed = 1;
nodes = (
"506 546 LINE",
"506 226 LINE",
"279 226 LINE"
);
}
);
width = 620;
}
);
note = AE;
rightKerningGroup = E;
unicode = 00C6;
},
{
glyphname = B;
lastChange = "2021-12-02 20:58:09 +0000";
layers = (
{
layerId = "5BF74C62-CA98-4714-A2D2-DE21E3561B55";
paths = (
{
closed = 1;
nodes = (
"76 0 LINE",
"361 0 LINE SMOOTH",
"507 0 OFFCURVE",
"581 96 OFFCURVE",
"581 192 CURVE SMOOTH",
"581 256 OFFCURVE",
"548 320 OFFCURVE",
"482 355 CURVE",
"527 393 OFFCURVE",
"552 449 OFFCURVE",
"552 502 CURVE SMOOTH",
"552 587 OFFCURVE",
"490 668 OFFCURVE",
"345 668 CURVE SMOOTH",
"76 668 LINE"
);
},
{
closed = 1;
nodes = (
"170 308 LINE",
"370 308 LINE SMOOTH",
"446 308 OFFCURVE",
"484 252 OFFCURVE",
"484 195 CURVE SMOOTH",
"484 137 OFFCURVE",
"445 79 OFFCURVE",
"371 79 CURVE SMOOTH",
"170 79 LINE"
);
},
{
closed = 1;
nodes = (
"355 589 LINE SMOOTH",
"422 589 OFFCURVE",
"457 536 OFFCURVE",
"457 484 CURVE SMOOTH",
"457 433 OFFCURVE",
"423 382 OFFCURVE",
"355 382 CURVE SMOOTH",
"170 382 LINE",
"170 589 LINE"
);
}
);
width = 620;
}
);
note = B;
unicode = 0042;
},
{
glyphname = C;
lastChange = "2021-12-02 20:58:31 +0000";
layers = (
{
layerId = "5BF74C62-CA98-4714-A2D2-DE21E3561B55";
paths = (
{
closed = 1;
nodes = (
"448 -12 OFFCURVE",
"543 40 OFFCURVE",
"591 139 CURVE",
"509 169 LINE",
"478 108 OFFCURVE",
"423 67 OFFCURVE",
"336 67 CURVE SMOOTH",
"211 67 OFFCURVE",
"136 167 OFFCURVE",
"136 335 CURVE SMOOTH",
"136 509 OFFCURVE",
"215 601 OFFCURVE",
"333 601 CURVE SMOOTH",
"420 601 OFFCURVE",
"475 559 OFFCURVE",
"505 499 CURVE",
"587 529 LINE",
"541 626 OFFCURVE",
"450 680 OFFCURVE",
"338 680 CURVE SMOOTH",
"149 680 OFFCURVE",
"40 543 OFFCURVE",
"40 335 CURVE SMOOTH",
"40 132 OFFCURVE",
"139 -12 OFFCURVE",
"330 -12 CURVE SMOOTH"
);
}
);
width = 620;
}
);
leftKerningGroup = C;
note = C;
rightKerningGroup = C;
unicode = 0043;
},
{
glyphname = Cacute;
lastChange = "2021-12-02 21:20:44 +0000";
layers = (
{
hints = (
{
horizontal = 1;
place = "{-12, 79}";
type = Stem;
},
{
horizontal = 1;
place = "{601, 79}";
type = Stem;
},
{
place = "{50, 96}";
type = Stem;
}
);
layerId = "5BF74C62-CA98-4714-A2D2-DE21E3561B55";
paths = (
{
closed = 1;
nodes = (
"50 132 OFFCURVE",
"162 -12 OFFCURVE",
"353 -12 CURVE SMOOTH",
"471 -12 OFFCURVE",
"570 40 OFFCURVE",
"618 139 CURVE",
"536 169 LINE",
"505 108 OFFCURVE",
"446 67 OFFCURVE",
"359 67 CURVE SMOOTH",
"234 67 OFFCURVE",
"146 167 OFFCURVE",
"146 335 CURVE SMOOTH",
"146 509 OFFCURVE",
"238 601 OFFCURVE",
"356 601 CURVE SMOOTH",
"443 601 OFFCURVE",
"502 559 OFFCURVE",
"532 499 CURVE",
"614 529 LINE",
"568 626 OFFCURVE",
"473 680 OFFCURVE",
"361 680 CURVE SMOOTH",
"172 680 OFFCURVE",
"50 543 OFFCURVE",
"50 335 CURVE SMOOTH"
);
},
{
closed = 1;
nodes = (
"393 744 LINE",
"399 748 OFFCURVE",
"456 781 OFFCURVE",
"473 796 CURVE",
"484 805 OFFCURVE",
"489 817 OFFCURVE",
"489 828 CURVE SMOOTH",
"489 848 OFFCURVE",
"473 864 OFFCURVE",
"453 864 CURVE SMOOTH",
"443 864 OFFCURVE",
"433 860 OFFCURVE",
"424 852 CURVE",
"407 838 OFFCURVE",
"326 753 OFFCURVE",
"317 744 CURVE"
);
}
);
width = 620;
}
);
leftKerningGroup = C;
note = Cacute;
rightKerningGroup = C;
unicode = 0106;
},
{
glyphname = Ccaron;
lastChange = "2021-12-02 21:20:44 +0000";
layers = (
{
hints = (
{
horizontal = 1;
place = "{-12, 79}";
type = Stem;
},
{
horizontal = 1;
place = "{601, 79}";
type = Stem;
},
{
horizontal = 1;
place = "{741, 120}";
type = Stem;
},
{
place = "{50, 96}";
type = Stem;
}
);
layerId = "5BF74C62-CA98-4714-A2D2-DE21E3561B55";
paths = (
{
closed = 1;
nodes = (
"471 -12 OFFCURVE",
"570 40 OFFCURVE",
"618 139 CURVE",
"536 169 LINE",
"505 108 OFFCURVE",
"446 67 OFFCURVE",
"359 67 CURVE SMOOTH",
"234 67 OFFCURVE",
"146 167 OFFCURVE",
"146 335 CURVE SMOOTH",
"146 509 OFFCURVE",
"238 601 OFFCURVE",
"356 601 CURVE SMOOTH",
"443 601 OFFCURVE",
"502 559 OFFCURVE",
"532 499 CURVE",
"614 529 LINE",
"568 626 OFFCURVE",
"473 680 OFFCURVE",
"361 680 CURVE SMOOTH",
"172 680 OFFCURVE",
"50 543 OFFCURVE",
"50 335 CURVE SMOOTH",
"50 132 OFFCURVE",
"162 -12 OFFCURVE",
"353 -12 CURVE SMOOTH"
);
},
{
closed = 1;
nodes = (
"198 861 LINE",
"310 760 LINE SMOOTH",
"324 747 OFFCURVE",
"342 741 OFFCURVE",
"360 741 CURVE SMOOTH",
"377 741 OFFCURVE",
"395 747 OFFCURVE",
"409 760 CURVE SMOOTH",
"521 861 LINE",
"427 861 LINE",
"359 800 LINE",
"292 861 LINE"
);
}
);
width = 620;
}
);
leftKerningGroup = C;
note = Ccaron;
rightKerningGroup = C;
unicode = 010C;
},
{
glyphname = Ccedilla;
lastChange = "2021-12-02 21:20:44 +0000";
layers = (
{
hints = (
{
horizontal = 1;
place = "{-181, 41}";
type = Stem;
},
{
horizontal = 1;
place = "{-81, 40}";
type = Stem;
},
{
horizontal = 1;
place = "{-10, 21}";
target = up;
type = BottomGhost;
},
{
horizontal = 1;
place = "{601, 79}";
type = Stem;
},
{
place = "{59, 96}";
type = Stem;
},
{
place = "{386, 62}";
type = Stem;
},
{
horizontal = 1;
place = "{-10, 77}";
type = Stem;
}
);
layerId = "5BF74C62-CA98-4714-A2D2-DE21E3561B55";
paths = (
{
closed = 1;
nodes = (
"59 146 OFFCURVE",
"156 8 OFFCURVE",
"323 -10 CURVE",
"294 -57 LINE",
"292 -60 OFFCURVE",
"291 -63 OFFCURVE",
"291 -67 CURVE SMOOTH",
"291 -79 OFFCURVE",
"301 -91 OFFCURVE",
"319 -86 CURVE SMOOTH",
"331 -83 OFFCURVE",
"341 -81 OFFCURVE",
"350 -81 CURVE SMOOTH",
"375 -81 OFFCURVE",
"386 -93 OFFCURVE",
"386 -106 CURVE SMOOTH",
"386 -122 OFFCURVE",
"369 -140 OFFCURVE",
"335 -140 CURVE SMOOTH",
"319 -140 OFFCURVE",
"300 -136 OFFCURVE",
"277 -126 CURVE",
"263 -161 LINE",
"297 -175 OFFCURVE",
"326 -181 OFFCURVE",
"351 -181 CURVE SMOOTH",
"416 -181 OFFCURVE",
"448 -140 OFFCURVE",
"448 -102 CURVE SMOOTH",
"448 -70 OFFCURVE",
"425 -41 OFFCURVE",
"379 -41 CURVE SMOOTH",
"370 -41 OFFCURVE",
"360 -43 OFFCURVE",
"349 -45 CURVE",
"369 -12 LINE",
"484 -10 OFFCURVE",
"580 42 OFFCURVE",
"627 139 CURVE",
"545 169 LINE",
"514 108 OFFCURVE",
"455 67 OFFCURVE",
"368 67 CURVE SMOOTH",
"243 67 OFFCURVE",
"155 167 OFFCURVE",
"155 335 CURVE SMOOTH",
"155 509 OFFCURVE",
"247 601 OFFCURVE",
"365 601 CURVE SMOOTH",
"452 601 OFFCURVE",
"511 559 OFFCURVE",
"541 499 CURVE",
"623 529 LINE",
"577 626 OFFCURVE",
"482 680 OFFCURVE",
"370 680 CURVE SMOOTH",
"181 680 OFFCURVE",
"59 543 OFFCURVE",
"59 335 CURVE SMOOTH"
);
}
);
width = 620;
}
);
leftKerningGroup = C;
note = Ccedilla;
rightKerningGroup = C;
unicode = 00C7;
},
{
glyphname = Cdotaccent;
lastChange = "2021-12-02 21:20:44 +0000";
layers = (
{
hints = (
{
horizontal = 1;
place = "{-12, 79}";
type = Stem;
},
{
horizontal = 1;
place = "{601, 79}";
type = Stem;
},
{
horizontal = 1;
place = "{742, 108}";
type = Stem;
},
{
place = "{50, 96}";
type = Stem;
},
{
place = "{307, 108}";
type = Stem;
}
);
layerId = "5BF74C62-CA98-4714-A2D2-DE21E3561B55";
paths = (
{
closed = 1;
nodes = (
"50 132 OFFCURVE",
"162 -12 OFFCURVE",
"353 -12 CURVE SMOOTH",
"471 -12 OFFCURVE",
"570 40 OFFCURVE",
"618 139 CURVE",
"536 169 LINE",
"505 108 OFFCURVE",
"446 67 OFFCURVE",
"359 67 CURVE SMOOTH",
"234 67 OFFCURVE",
"146 167 OFFCURVE",
"146 335 CURVE SMOOTH",
"146 509 OFFCURVE",
"238 601 OFFCURVE",
"356 601 CURVE SMOOTH",
"443 601 OFFCURVE",
"502 559 OFFCURVE",
"532 499 CURVE",
"614 529 LINE",
"568 626 OFFCURVE",
"473 680 OFFCURVE",
"361 680 CURVE SMOOTH",
"172 680 OFFCURVE",
"50 543 OFFCURVE",
"50 335 CURVE SMOOTH"
);
},
{
closed = 1;
nodes = (
"391 742 OFFCURVE",
"415 766 OFFCURVE",
"415 796 CURVE SMOOTH",
"415 826 OFFCURVE",
"391 850 OFFCURVE",
"361 850 CURVE SMOOTH",
"331 850 OFFCURVE",
"307 826 OFFCURVE",
"307 796 CURVE SMOOTH",
"307 766 OFFCURVE",
"331 742 OFFCURVE",
"361 742 CURVE SMOOTH"
);
}
);
width = 620;
}
);
leftKerningGroup = C;
note = Cdotaccent;
rightKerningGroup = C;
unicode = 010A;
},
{
glyphname = D;
lastChange = "2021-12-02 20:29:50 +0000";
layers = (
{
layerId = "5BF74C62-CA98-4714-A2D2-DE21E3561B55";
paths = (
{
closed = 1;
nodes = (
"76 0 LINE",
"238 0 LINE SMOOTH",
"450 0 OFFCURVE",
"565 79 OFFCURVE",
"565 335 CURVE SMOOTH",
"565 589 OFFCURVE",
"450 668 OFFCURVE",
"238 668 CURVE SMOOTH",
"76 668 LINE"
);
},
{
closed = 1;
nodes = (
"170 589 LINE",
"236 589 LINE SMOOTH",
"374 589 OFFCURVE",
"469 561 OFFCURVE",
"469 335 CURVE SMOOTH",
"469 107 OFFCURVE",
"374 79 OFFCURVE",
"236 79 CURVE SMOOTH",
"170 79 LINE"
);
}
);
width = 620;
}
);
note = D;
rightKerningGroup = D;
unicode = 0044;
},
{
glyphname = Eth;
lastChange = "2021-12-02 21:20:44 +0000";
layers = (
{
hints = (
{
horizontal = 1;
place = "{0, 79}";
type = Stem;
},
{
horizontal = 1;
place = "{303, 80}";
type = Stem;
},
{
horizontal = 1;
place = "{589, 79}";
type = Stem;
},
{
place = "{115, 94}";
type = Stem;
},
{
place = "{566, 96}";
type = Stem;
}
);
layerId = "5BF74C62-CA98-4714-A2D2-DE21E3561B55";
paths = (
{
closed = 1;
nodes = (
"20 383 LINE",
"20 303 LINE",
"115 303 LINE",
"115 0 LINE",
"297 0 LINE SMOOTH",
"509 0 OFFCURVE",
"662 79 OFFCURVE",
"662 335 CURVE SMOOTH",
"662 589 OFFCURVE",
"509 668 OFFCURVE",
"297 668 CURVE SMOOTH",
"115 668 LINE",
"115 383 LINE"
);
},
{
closed = 1;
nodes = (
"209 383 LINE",
"209 589 LINE",
"295 589 LINE SMOOTH",
"433 589 OFFCURVE",
"566 561 OFFCURVE",
"566 335 CURVE SMOOTH",
"566 107 OFFCURVE",
"433 79 OFFCURVE",
"295 79 CURVE SMOOTH",
"209 79 LINE",
"209 303 LINE",
"349 303 LINE",
"349 383 LINE"
);
}
);
width = 620;
}
);
note = Eth;
rightKerningGroup = D;
unicode = 00D0;
},
{
glyphname = Dcaron;
lastChange = "2021-12-02 21:20:44 +0000";
layers = (
{
hints = (
{
horizontal = 1;
place = "{0, 79}";
type = Stem;
},
{
horizontal = 1;
place = "{589, 79}";
type = Stem;
},
{
horizontal = 1;
place = "{741, 120}";
type = Stem;
},
{
place = "{76, 94}";
type = Stem;
},
{
place = "{527, 96}";
type = Stem;
}
);
layerId = "5BF74C62-CA98-4714-A2D2-DE21E3561B55";
paths = (
{
closed = 1;
nodes = (
"258 0 LINE SMOOTH",
"470 0 OFFCURVE",
"623 79 OFFCURVE",
"623 335 CURVE SMOOTH",
"623 589 OFFCURVE",
"470 668 OFFCURVE",
"258 668 CURVE SMOOTH",
"76 668 LINE",
"76 0 LINE"
);
},
{
closed = 1;
nodes = (
"170 79 LINE",
"170 589 LINE",
"256 589 LINE SMOOTH",
"394 589 OFFCURVE",
"527 561 OFFCURVE",
"527 335 CURVE SMOOTH",
"527 107 OFFCURVE",
"394 79 OFFCURVE",
"256 79 CURVE SMOOTH"
);
},
{
closed = 1;
nodes = (
"277 760 LINE SMOOTH",
"291 747 OFFCURVE",
"309 741 OFFCURVE",
"327 741 CURVE SMOOTH",
"344 741 OFFCURVE",
"362 747 OFFCURVE",
"376 760 CURVE SMOOTH",
"488 861 LINE",
"394 861 LINE",
"326 800 LINE",
"259 861 LINE",
"165 861 LINE"
);
}
);
width = 620;
}
);
note = Dcaron;
rightKerningGroup = D;
unicode = 010E;
},
{
glyphname = Dcroat;
lastChange = "2021-12-02 21:20:44 +0000";
layers = (
{
hints = (
{
horizontal = 1;
place = "{0, 79}";
type = Stem;
},
{
horizontal = 1;
place = "{303, 80}";
type = Stem;
},
{
horizontal = 1;
place = "{589, 79}";
type = Stem;
},
{
place = "{135, 94}";
type = Stem;
},
{
place = "{586, 96}";
type = Stem;
}
);
layerId = "5BF74C62-CA98-4714-A2D2-DE21E3561B55";
paths = (
{
closed = 1;
nodes = (
"40 383 LINE",
"40 303 LINE",
"135 303 LINE",
"135 0 LINE",
"317 0 LINE SMOOTH",
"529 0 OFFCURVE",
"682 79 OFFCURVE",
"682 335 CURVE SMOOTH",
"682 589 OFFCURVE",
"529 668 OFFCURVE",
"317 668 CURVE SMOOTH",
"135 668 LINE",
"135 383 LINE"
);
},
{
closed = 1;
nodes = (
"229 383 LINE",
"229 589 LINE",
"315 589 LINE SMOOTH",
"453 589 OFFCURVE",
"586 561 OFFCURVE",
"586 335 CURVE SMOOTH",
"586 107 OFFCURVE",
"453 79 OFFCURVE",
"315 79 CURVE SMOOTH",
"229 79 LINE",
"229 303 LINE",
"369 303 LINE",
"369 383 LINE"
);
}
);
width = 620;
}
);
note = Dcroat;
rightKerningGroup = D;
unicode = 0110;
},
{
glyphname = E;
lastChange = "2021-12-02 20:30:24 +0000";
layers = (
{
layerId = "5BF74C62-CA98-4714-A2D2-DE21E3561B55";
paths = (
{
closed = 1;
nodes = (
"82 668 LINE",
"82 0 LINE",
"555 0 LINE",
"555 81 LINE",
"176 81 LINE",
"176 303 LINE",
"461 303 LINE",
"461 384 LINE",
"176 384 LINE",
"176 587 LINE",
"555 587 LINE",
"555 668 LINE"
);
}
);
width = 620;
}
);
note = E;
rightKerningGroup = E;
unicode = 0045;
},
{
glyphname = Eacute;
lastChange = "2021-12-02 21:20:44 +0000";
layers = (
{
hints = (
{
horizontal = 1;
place = "{0, 81}";
type = Stem;
},
{
horizontal = 1;
place = "{303, 81}";
type = Stem;
},
{
horizontal = 1;
place = "{587, 81}";
type = Stem;
},
{
horizontal = 1;
place = "{744, 120}";
type = Stem;
},
{
place = "{76, 94}";
type = Stem;
}
);
layerId = "5BF74C62-CA98-4714-A2D2-DE21E3561B55";
paths = (
{
closed = 1;
nodes = (
"76 0 LINE",
"529 0 LINE",
"529 81 LINE",
"170 81 LINE",
"170 303 LINE",
"435 303 LINE",
"435 384 LINE",
"170 384 LINE",
"170 587 LINE",
"529 587 LINE",
"529 668 LINE",
"76 668 LINE"
);
},
{
closed = 1;
nodes = (
"341 744 LINE",
"347 748 OFFCURVE",
"404 781 OFFCURVE",
"421 796 CURVE",
"432 805 OFFCURVE",
"437 817 OFFCURVE",
"437 828 CURVE SMOOTH",
"437 848 OFFCURVE",
"421 864 OFFCURVE",
"401 864 CURVE SMOOTH",
"391 864 OFFCURVE",
"381 860 OFFCURVE",
"372 852 CURVE",
"355 838 OFFCURVE",
"274 753 OFFCURVE",
"265 744 CURVE"
);
}
);
width = 620;
}
);
note = Eacute;
rightKerningGroup = E;
unicode = 00C9;
},
{
glyphname = Ecaron;
lastChange = "2021-12-02 21:20:44 +0000";
layers = (
{
hints = (
{
horizontal = 1;
place = "{0, 81}";
type = Stem;
},
{
horizontal = 1;
place = "{303, 81}";
type = Stem;
},
{
horizontal = 1;
place = "{587, 81}";
type = Stem;
},
{
horizontal = 1;
place = "{741, 120}";
type = Stem;
},
{
place = "{76, 94}";
type = Stem;
}
);
layerId = "5BF74C62-CA98-4714-A2D2-DE21E3561B55";
paths = (
{
closed = 1;
nodes = (
"76 668 LINE",
"76 0 LINE",
"529 0 LINE",
"529 81 LINE",
"170 81 LINE",
"170 303 LINE",
"435 303 LINE",
"435 384 LINE",
"170 384 LINE",
"170 587 LINE",
"529 587 LINE",
"529 668 LINE"
);
},
{
closed = 1;
nodes = (
"253 760 LINE SMOOTH",
"267 747 OFFCURVE",
"285 741 OFFCURVE",
"303 741 CURVE SMOOTH",
"320 741 OFFCURVE",
"338 747 OFFCURVE",
"352 760 CURVE SMOOTH",
"464 861 LINE",
"370 861 LINE",
"302 800 LINE",
"235 861 LINE",
"141 861 LINE"
);
}
);
width = 620;
}
);
note = Ecaron;
rightKerningGroup = E;
unicode = 011A;
},
{
glyphname = Ecircumflex;
lastChange = "2021-12-02 21:20:44 +0000";
layers = (
{
hints = (
{
horizontal = 1;
place = "{0, 81}";
type = Stem;
},
{
horizontal = 1;
place = "{303, 81}";
type = Stem;
},
{
horizontal = 1;
place = "{587, 81}";
type = Stem;
},
{
horizontal = 1;
place = "{750, 120}";
type = Stem;
},
{
place = "{76, 94}";
type = Stem;
}
);
layerId = "5BF74C62-CA98-4714-A2D2-DE21E3561B55";
paths = (
{
closed = 1;
nodes = (
"76 0 LINE",
"529 0 LINE",
"529 81 LINE",
"170 81 LINE",
"170 303 LINE",
"435 303 LINE",
"435 384 LINE",
"170 384 LINE",
"170 587 LINE",
"529 587 LINE",
"529 668 LINE",
"76 668 LINE"
);
},
{
closed = 1;
nodes = (
"142 750 LINE",
"236 750 LINE",
"303 811 LINE",
"371 750 LINE",
"465 750 LINE",
"353 851 LINE SMOOTH",
"339 864 OFFCURVE",
"321 870 OFFCURVE",
"304 870 CURVE SMOOTH",
"286 870 OFFCURVE",
"268 864 OFFCURVE",
"254 851 CURVE SMOOTH"
);
}
);
width = 620;
}
);
note = Ecircumflex;
rightKerningGroup = E;
unicode = 00CA;
},
{
glyphname = Edieresis;
lastChange = "2021-12-02 21:20:44 +0000";
layers = (
{
hints = (
{
horizontal = 1;
place = "{0, 81}";
type = Stem;
},
{
horizontal = 1;
place = "{303, 81}";
type = Stem;
},
{
horizontal = 1;
place = "{587, 81}";
type = Stem;
},
{
place = "{76, 94}";
type = Stem;
},
{
horizontal = 1;
place = "{742, 107}";
type = Stem;
},
{
place = "{129, 108}";
type = Stem;
},
{
place = "{341, 107}";
type = Stem;
}
);
layerId = "5BF74C62-CA98-4714-A2D2-DE21E3561B55";
paths = (
{
closed = 1;
nodes = (
"76 0 LINE",
"529 0 LINE",
"529 81 LINE",
"170 81 LINE",
"170 303 LINE",
"435 303 LINE",
"435 384 LINE",
"170 384 LINE",
"170 587 LINE",
"529 587 LINE",
"529 668 LINE",
"76 668 LINE"
);
},
{
closed = 1;
nodes = (
"213 742 OFFCURVE",
"237 766 OFFCURVE",
"237 796 CURVE SMOOTH",
"237 825 OFFCURVE",
"213 849 OFFCURVE",
"183 849 CURVE SMOOTH",
"153 849 OFFCURVE",
"129 825 OFFCURVE",
"129 796 CURVE SMOOTH",
"129 766 OFFCURVE",
"153 742 OFFCURVE",
"183 742 CURVE SMOOTH"
);
},
{
closed = 1;
nodes = (
"424 742 OFFCURVE",
"448 766 OFFCURVE",
"448 796 CURVE SMOOTH",
"448 825 OFFCURVE",
"424 849 OFFCURVE",
"394 849 CURVE SMOOTH",
"365 849 OFFCURVE",
"341 825 OFFCURVE",
"341 796 CURVE SMOOTH",
"341 766 OFFCURVE",
"365 742 OFFCURVE",
"394 742 CURVE SMOOTH"
);
}
);
width = 620;
}
);
note = Edieresis;
rightKerningGroup = E;
unicode = 00CB;
},
{
glyphname = Edotaccent;
lastChange = "2021-12-02 21:20:44 +0000";
layers = (
{
hints = (
{
horizontal = 1;
place = "{0, 81}";
type = Stem;
},
{
horizontal = 1;
place = "{303, 81}";
type = Stem;
},
{
horizontal = 1;
place = "{587, 81}";
type = Stem;
},
{
horizontal = 1;
place = "{762, 108}";
type = Stem;
},
{
place = "{76, 94}";
type = Stem;
},
{
place = "{249, 108}";
type = Stem;
}
);
layerId = "5BF74C62-CA98-4714-A2D2-DE21E3561B55";
paths = (
{
closed = 1;
nodes = (
"76 668 LINE",
"76 0 LINE",
"529 0 LINE",
"529 81 LINE",
"170 81 LINE",
"170 303 LINE",
"435 303 LINE",
"435 384 LINE",
"170 384 LINE",
"170 587 LINE",
"529 587 LINE",
"529 668 LINE"
);
},
{
closed = 1;
nodes = (
"249 786 OFFCURVE",
"273 762 OFFCURVE",
"303 762 CURVE SMOOTH",
"333 762 OFFCURVE",
"357 786 OFFCURVE",
"357 816 CURVE SMOOTH",
"357 846 OFFCURVE",
"333 870 OFFCURVE",
"303 870 CURVE SMOOTH",
"273 870 OFFCURVE",
"249 846 OFFCURVE",
"249 816 CURVE SMOOTH"
);
}
);
width = 620;
}
);
note = Edotaccent;
rightKerningGroup = E;
unicode = 0116;
},
{
glyphname = Egrave;
lastChange = "2021-12-02 21:20:44 +0000";
layers = (
{
hints = (
{
horizontal = 1;
place = "{0, 81}";
type = Stem;
},
{
horizontal = 1;
place = "{303, 81}";
type = Stem;
},
{
horizontal = 1;
place = "{587, 81}";
type = Stem;
},
{
horizontal = 1;
place = "{744, 120}";
type = Stem;
},
{
place = "{76, 94}";
type = Stem;
}
);
layerId = "5BF74C62-CA98-4714-A2D2-DE21E3561B55";
paths = (
{
closed = 1;
nodes = (
"76 668 LINE",
"76 0 LINE",
"529 0 LINE",
"529 81 LINE",
"170 81 LINE",
"170 303 LINE",
"435 303 LINE",
"435 384 LINE",
"170 384 LINE",
"170 587 LINE",
"529 587 LINE",
"529 668 LINE"
);
},
{
closed = 1;
nodes = (
"194 817 OFFCURVE",
"200 805 OFFCURVE",
"210 796 CURVE",
"228 781 OFFCURVE",
"285 748 OFFCURVE",
"291 744 CURVE",
"367 744 LINE",
"261 851 LINE",
"252 861 OFFCURVE",
"240 864 OFFCURVE",
"230 864 CURVE SMOOTH",
"210 864 OFFCURVE",
"194 848 OFFCURVE",
"194 828 CURVE SMOOTH"
);
}
);
width = 620;
}
);
note = Egrave;
rightKerningGroup = E;
unicode = 00C8;
},
{
glyphname = Emacron;
lastChange = "2021-12-02 21:20:44 +0000";
layers = (
{
hints = (
{
horizontal = 1;
place = "{0, 81}";
type = Stem;
},
{
horizontal = 1;
place = "{303, 81}";
type = Stem;
},
{
horizontal = 1;
place = "{587, 81}";
type = Stem;
},
{
horizontal = 1;
place = "{762, 67}";
type = Stem;
},
{
place = "{76, 94}";
type = Stem;
}
);
layerId = "5BF74C62-CA98-4714-A2D2-DE21E3561B55";
paths = (
{
closed = 1;
nodes = (
"76 0 LINE",
"529 0 LINE",
"529 81 LINE",
"170 81 LINE",
"170 303 LINE",
"435 303 LINE",
"435 384 LINE",
"170 384 LINE",
"170 587 LINE",
"529 587 LINE",
"529 668 LINE",
"76 668 LINE"
);
},
{
closed = 1;
nodes = (
"441 762 LINE",
"441 829 LINE",
"165 829 LINE",
"165 762 LINE"
);
}
);
width = 620;
}
);
note = Emacron;
rightKerningGroup = E;
unicode = 0112;
},
{
glyphname = Eogonek;
lastChange = "2021-12-02 21:20:44 +0000";
layers = (
{
hints = (
{
horizontal = 1;
place = "{-173, 58}";
type = Stem;
},
{
horizontal = 1;
place = "{0, 81}";
type = Stem;
},
{
horizontal = 1;
place = "{303, 81}";
type = Stem;
},
{
horizontal = 1;
place = "{587, 81}";
type = Stem;
},
{
place = "{76, 94}";
type = Stem;
},
{
place = "{352, 70}";
type = Stem;
}
);
layerId = "5BF74C62-CA98-4714-A2D2-DE21E3561B55";
paths = (
{
closed = 1;
nodes = (
"409 0 LINE",
"383 -14 OFFCURVE",
"352 -43 OFFCURVE",
"352 -91 CURVE SMOOTH",
"352 -134 OFFCURVE",
"386 -173 OFFCURVE",
"446 -173 CURVE SMOOTH",
"465 -173 OFFCURVE",
"486 -169 OFFCURVE",
"509 -161 CURVE",
"509 -107 LINE",
"496 -113 OFFCURVE",
"483 -115 OFFCURVE",
"471 -115 CURVE SMOOTH",
"443 -115 OFFCURVE",
"422 -102 OFFCURVE",
"422 -74 CURVE SMOOTH",
"422 -40 OFFCURVE",
"453 -20 OFFCURVE",
"509 0 CURVE",
"529 0 LINE",
"529 81 LINE",
"170 81 LINE",
"170 303 LINE",
"435 303 LINE",
"435 384 LINE",
"170 384 LINE",
"170 587 LINE",
"529 587 LINE",
"529 668 LINE",
"76 668 LINE",
"76 0 LINE"
);
}
);
width = 620;
}
);
note = Eogonek;
rightKerningGroup = E;
unicode = 0118;
},
{
glyphname = F;
lastChange = "2021-12-02 20:31:01 +0000";
layers = (
{
layerId = "5BF74C62-CA98-4714-A2D2-DE21E3561B55";
paths = (
{
closed = 1;
nodes = (
"82 668 LINE",
"82 0 LINE",
"176 0 LINE",
"176 303 LINE",
"536 303 LINE",
"536 384 LINE",
"176 384 LINE",
"176 587 LINE",
"546 587 LINE",
"546 668 LINE"
);
}
);
width = 620;
}
);
note = F;
unicode = 0046;
},
{
glyphname = G;
lastChange = "2021-12-02 20:31:57 +0000";
layers = (
{
layerId = "5BF74C62-CA98-4714-A2D2-DE21E3561B55";
paths = (
{
closed = 1;
nodes = (
"40 132 OFFCURVE",
"113 -12 OFFCURVE",
"305 -12 CURVE SMOOTH",
"395 -12 OFFCURVE",
"473 16 OFFCURVE",
"516 84 CURVE",
"541 0 LINE",
"595 0 LINE",
"595 345 LINE",
"331 345 LINE",
"331 264 LINE",
"506 264 LINE",
"506 242 LINE SMOOTH",
"506 104 OFFCURVE",
"398 67 OFFCURVE",
"309 67 CURVE SMOOTH",
"185 67 OFFCURVE",
"136 167 OFFCURVE",
"136 335 CURVE SMOOTH",
"136 509 OFFCURVE",
"191 601 OFFCURVE",
"309 601 CURVE SMOOTH",
"396 601 OFFCURVE",
"455 559 OFFCURVE",
"485 499 CURVE",
"568 529 LINE",
"521 626 OFFCURVE",
"426 680 OFFCURVE",
"314 680 CURVE SMOOTH",
"125 680 OFFCURVE",
"40 543 OFFCURVE",
"40 335 CURVE SMOOTH"
);
}
);
width = 620;
}
);
leftKerningGroup = C;
note = G;
unicode = 0047;
},
{
glyphname = Gbreve;
lastChange = "2021-12-02 21:20:44 +0000";
layers = (
{
hints = (
{
horizontal = 1;
place = "{-12, 79}";
type = Stem;
},
{
horizontal = 1;
place = "{264, 81}";
type = Stem;
},
{
horizontal = 1;
place = "{601, 79}";
type = Stem;
},
{
horizontal = 1;
place = "{741, 67}";
type = Stem;
},
{
place = "{50, 96}";
type = Stem;
},
{
place = "{553, 89}";
type = Stem;
},
{
horizontal = 1;
place = "{0, 21}";
target = up;
type = BottomGhost;
}
);
layerId = "5BF74C62-CA98-4714-A2D2-DE21E3561B55";
paths = (
{
closed = 1;
nodes = (
"358 264 LINE",
"553 264 LINE",
"553 242 LINE SMOOTH",
"553 104 OFFCURVE",
"445 67 OFFCURVE",
"356 67 CURVE SMOOTH",
"232 67 OFFCURVE",
"146 167 OFFCURVE",
"146 335 CURVE SMOOTH",
"146 509 OFFCURVE",
"238 601 OFFCURVE",
"356 601 CURVE SMOOTH",
"443 601 OFFCURVE",
"502 559 OFFCURVE",
"532 499 CURVE",
"615 529 LINE",
"568 626 OFFCURVE",
"473 680 OFFCURVE",
"361 680 CURVE SMOOTH",
"172 680 OFFCURVE",
"50 543 OFFCURVE",
"50 335 CURVE SMOOTH",
"50 132 OFFCURVE",
"160 -12 OFFCURVE",
"352 -12 CURVE SMOOTH",
"442 -12 OFFCURVE",
"520 16 OFFCURVE",
"563 84 CURVE",
"588 0 LINE",
"642 0 LINE",
"642 345 LINE",
"358 345 LINE"
);
},
{
closed = 1;
nodes = (
"439 861 LINE",
"426 830 OFFCURVE",
"396 808 OFFCURVE",
"361 808 CURVE SMOOTH",
"325 808 OFFCURVE",
"295 830 OFFCURVE",
"283 861 CURVE",
"214 861 LINE",
"228 793 OFFCURVE",
"288 741 OFFCURVE",
"361 741 CURVE SMOOTH",
"433 741 OFFCURVE",
"494 793 OFFCURVE",
"508 861 CURVE"
);
}
);
width = 620;
}
);
leftKerningGroup = C;
note = Gbreve;
unicode = 011E;
},
{
glyphname = Gcommaaccent;
lastChange = "2021-12-02 21:20:44 +0000";
layers = (
{
hints = (
{
horizontal = 1;
place = "{-250, 34}";
type = Stem;
},
{
horizontal = 1;
place = "{-12, 79}";
type = Stem;
},
{
horizontal = 1;
place = "{264, 81}";
type = Stem;
},
{
horizontal = 1;
place = "{601, 79}";
type = Stem;
},
{
place = "{50, 96}";
type = Stem;
},
{
place = "{355, 66}";
type = Stem;
},
{
place = "{553, 89}";
type = Stem;
},
{
horizontal = 1;
place = "{0, 21}";
target = up;
type = BottomGhost;
}
);
layerId = "5BF74C62-CA98-4714-A2D2-DE21E3561B55";
paths = (
{
closed = 1;
nodes = (
"358 264 LINE",
"553 264 LINE",
"553 242 LINE SMOOTH",
"553 104 OFFCURVE",
"445 67 OFFCURVE",
"356 67 CURVE SMOOTH",
"232 67 OFFCURVE",
"146 167 OFFCURVE",
"146 335 CURVE SMOOTH",
"146 509 OFFCURVE",
"238 601 OFFCURVE",
"356 601 CURVE SMOOTH",
"443 601 OFFCURVE",
"502 559 OFFCURVE",
"532 499 CURVE",
"615 529 LINE",
"568 626 OFFCURVE",
"473 680 OFFCURVE",
"361 680 CURVE SMOOTH",
"172 680 OFFCURVE",
"50 543 OFFCURVE",
"50 335 CURVE SMOOTH",
"50 132 OFFCURVE",
"160 -12 OFFCURVE",
"352 -12 CURVE SMOOTH",
"442 -12 OFFCURVE",
"520 16 OFFCURVE",
"563 84 CURVE",
"588 0 LINE",
"642 0 LINE",
"642 345 LINE",
"358 345 LINE"
);
},
{
closed = 1;
nodes = (
"301 -250 LINE",
"371 -250 OFFCURVE",
"421 -206 OFFCURVE",
"421 -143 CURVE SMOOTH",
"421 -111 OFFCURVE",
"405 -77 OFFCURVE",
"365 -56 CURVE",
"305 -82 LINE",
"342 -95 OFFCURVE",
"355 -121 OFFCURVE",
"355 -147 CURVE SMOOTH",
"355 -209 OFFCURVE",
"293 -216 OFFCURVE",
"261 -216 CURVE"
);
}
);
width = 620;
}
);
leftKerningGroup = C;
note = uni0122;
unicode = 0122;
},
{
glyphname = Gdotaccent;
lastChange = "2021-12-02 21:20:44 +0000";
layers = (
{
hints = (
{
horizontal = 1;
place = "{-12, 79}";
type = Stem;
},
{
horizontal = 1;
place = "{264, 81}";
type = Stem;
},
{
horizontal = 1;
place = "{601, 79}";
type = Stem;
},
{
place = "{50, 96}";
type = Stem;
},
{
place = "{303, 108}";
type = Stem;
},
{
place = "{553, 89}";
type = Stem;
},
{
horizontal = 1;
place = "{0, 21}";
target = up;
type = BottomGhost;
},
{
horizontal = 1;
place = "{762, 108}";
type = Stem;
}
);
layerId = "5BF74C62-CA98-4714-A2D2-DE21E3561B55";
paths = (
{
closed = 1;
nodes = (
"50 132 OFFCURVE",
"160 -12 OFFCURVE",
"352 -12 CURVE SMOOTH",
"442 -12 OFFCURVE",
"520 16 OFFCURVE",
"563 84 CURVE",
"588 0 LINE",
"642 0 LINE",
"642 345 LINE",
"358 345 LINE",
"358 264 LINE",
"553 264 LINE",
"553 242 LINE SMOOTH",
"553 104 OFFCURVE",
"445 67 OFFCURVE",
"356 67 CURVE SMOOTH",
"232 67 OFFCURVE",
"146 167 OFFCURVE",
"146 335 CURVE SMOOTH",
"146 509 OFFCURVE",
"238 601 OFFCURVE",
"356 601 CURVE SMOOTH",
"443 601 OFFCURVE",
"502 559 OFFCURVE",
"532 499 CURVE",
"615 529 LINE",
"568 626 OFFCURVE",
"473 680 OFFCURVE",
"361 680 CURVE SMOOTH",
"172 680 OFFCURVE",
"50 543 OFFCURVE",
"50 335 CURVE SMOOTH"
);
},
{
closed = 1;
nodes = (
"387 762 OFFCURVE",
"411 786 OFFCURVE",
"411 816 CURVE SMOOTH",
"411 846 OFFCURVE",
"387 870 OFFCURVE",
"357 870 CURVE SMOOTH",
"327 870 OFFCURVE",
"303 846 OFFCURVE",
"303 816 CURVE SMOOTH",
"303 786 OFFCURVE",
"327 762 OFFCURVE",
"357 762 CURVE SMOOTH"
);
}
);
width = 620;
}
);
leftKerningGroup = C;
note = Gdotaccent;
unicode = 0120;
},
{
glyphname = H;
lastChange = "2021-12-02 20:32:29 +0000";
layers = (
{
layerId = "5BF74C62-CA98-4714-A2D2-DE21E3561B55";
paths = (
{
closed = 1;
nodes = (
"76 668 LINE",
"76 0 LINE",
"170 0 LINE",
"170 303 LINE",
"450 303 LINE",
"450 0 LINE",
"544 0 LINE",
"544 668 LINE",
"450 668 LINE",
"450 384 LINE",
"170 384 LINE",
"170 668 LINE"
);
}
);
width = 620;
}
);
note = H;
unicode = 0048;
},
{
glyphname = Hbar;
lastChange = "2021-12-02 21:20:44 +0000";
layers = (
{
hints = (
{
horizontal = 1;
place = "{0, 21}";
target = up;
type = BottomGhost;
},
{
horizontal = 1;
place = "{303, 81}";
type = Stem;
},
{
horizontal = 1;
place = "{504, 79}";
type = Stem;
},
{
place = "{86, 94}";
type = Stem;
},
{
place = "{530, 94}";
type = Stem;
},
{
horizontal = 1;
place = "{504, 164}";
type = Stem;
}
);
layerId = "5BF74C62-CA98-4714-A2D2-DE21E3561B55";
paths = (
{
closed = 1;
nodes = (
"624 583 LINE",
"624 668 LINE",
"530 668 LINE",
"530 583 LINE",
"180 583 LINE",
"180 668 LINE",
"86 668 LINE",
"86 583 LINE",
"10 583 LINE",
"10 504 LINE",
"86 504 LINE",
"86 0 LINE",
"180 0 LINE",
"180 303 LINE",
"530 303 LINE",
"530 0 LINE",
"624 0 LINE",
"624 504 LINE",
"700 504 LINE",
"700 583 LINE"
);
},
{
closed = 1;
nodes = (
"530 504 LINE",
"530 384 LINE",
"180 384 LINE",
"180 504 LINE"
);
}
);
width = 620;
}
);
note = Hbar;
unicode = 0126;
},
{
glyphname = I;
lastChange = "2021-12-02 20:28:48 +0000";
layers = (
{
layerId = "5BF74C62-CA98-4714-A2D2-DE21E3561B55";
paths = (
{
closed = 1;
nodes = (
"149 74 LINE",
"149 0 LINE",
"471 0 LINE",
"471 74 LINE",
"357 74 LINE",
"357 594 LINE",
"471 594 LINE",
"471 668 LINE",
"149 668 LINE",
"149 594 LINE",
"263 594 LINE",
"263 74 LINE"
);
}
);
width = 620;
}
);
note = I;
rightKerningGroup = I;
unicode = 0049;
},
{
glyphname = Iacute;
lastChange = "2021-12-02 21:20:44 +0000";
layers = (
{
hints = (
{
horizontal = 1;
place = "{0, 74}";
type = Stem;
},
{
horizontal = 1;
place = "{594, 74}";
type = Stem;
},
{
horizontal = 1;
place = "{744, 120}";
type = Stem;
},
{
place = "{160, 94}";
type = Stem;
}
);
layerId = "5BF74C62-CA98-4714-A2D2-DE21E3561B55";
paths = (
{
closed = 1;
nodes = (
"348 0 LINE",
"348 74 LINE",
"254 74 LINE",
"254 594 LINE",
"348 594 LINE",
"348 668 LINE",
"66 668 LINE",
"66 594 LINE",
"160 594 LINE",
"160 74 LINE",
"66 74 LINE",
"66 0 LINE"
);
},
{
closed = 1;
nodes = (
"242 744 LINE",
"248 748 OFFCURVE",
"305 781 OFFCURVE",
"322 796 CURVE",
"333 805 OFFCURVE",
"338 817 OFFCURVE",
"338 828 CURVE SMOOTH",
"338 848 OFFCURVE",
"322 864 OFFCURVE",
"302 864 CURVE SMOOTH",
"292 864 OFFCURVE",
"282 860 OFFCURVE",
"273 852 CURVE",
"256 838 OFFCURVE",
"175 753 OFFCURVE",
"166 744 CURVE"
);
}
);
width = 620;
}
);
note = Iacute;
rightKerningGroup = I;
unicode = 00CD;
},
{
glyphname = Icircumflex;
lastChange = "2021-12-02 21:20:44 +0000";
layers = (
{
hints = (
{
horizontal = 1;
place = "{0, 74}";
type = Stem;
},
{
horizontal = 1;
place = "{594, 74}";
type = Stem;
},
{
horizontal = 1;
place = "{747, 120}";
type = Stem;
},
{
place = "{160, 94}";
type = Stem;
}
);
layerId = "5BF74C62-CA98-4714-A2D2-DE21E3561B55";
paths = (
{
closed = 1;
nodes = (
"160 594 LINE",
"160 74 LINE",
"66 74 LINE",
"66 0 LINE",
"348 0 LINE",
"348 74 LINE",
"254 74 LINE",
"254 594 LINE",
"348 594 LINE",
"348 668 LINE",
"66 668 LINE",
"66 594 LINE"
);
},
{
closed = 1;
nodes = (
"46 747 LINE",
"140 747 LINE",
"207 808 LINE",
"275 747 LINE",
"369 747 LINE",
"257 848 LINE SMOOTH",
"243 861 OFFCURVE",
"225 867 OFFCURVE",
"208 867 CURVE SMOOTH",
"190 867 OFFCURVE",
"172 861 OFFCURVE",
"158 848 CURVE SMOOTH"
);
}
);
width = 620;
}
);
note = Icircumflex;
rightKerningGroup = I;
unicode = 00CE;
},
{
glyphname = Idieresis;
lastChange = "2021-12-02 21:20:44 +0000";
layers = (
{
hints = (
{
horizontal = 1;
place = "{0, 74}";
type = Stem;
},
{
horizontal = 1;
place = "{594, 74}";
type = Stem;
},
{
place = "{160, 94}";
type = Stem;
},
{
horizontal = 1;
place = "{740, 107}";
type = Stem;
},
{
place = "{48, 108}";
type = Stem;
},
{
place = "{260, 107}";
type = Stem;
}
);
layerId = "5BF74C62-CA98-4714-A2D2-DE21E3561B55";
paths = (
{
closed = 1;
nodes = (
"348 0 LINE",
"348 74 LINE",
"254 74 LINE",
"254 594 LINE",
"348 594 LINE",
"348 668 LINE",
"66 668 LINE",
"66 594 LINE",
"160 594 LINE",
"160 74 LINE",
"66 74 LINE",
"66 0 LINE"
);
},
{
closed = 1;
nodes = (
"48 764 OFFCURVE",
"72 740 OFFCURVE",
"102 740 CURVE SMOOTH",
"132 740 OFFCURVE",
"156 764 OFFCURVE",
"156 794 CURVE SMOOTH",
"156 823 OFFCURVE",
"132 847 OFFCURVE",
"102 847 CURVE SMOOTH",
"72 847 OFFCURVE",
"48 823 OFFCURVE",
"48 794 CURVE SMOOTH"
);
},
{
closed = 1;
nodes = (
"260 764 OFFCURVE",
"284 740 OFFCURVE",
"313 740 CURVE SMOOTH",
"343 740 OFFCURVE",
"367 764 OFFCURVE",
"367 794 CURVE SMOOTH",
"367 823 OFFCURVE",
"343 847 OFFCURVE",
"313 847 CURVE SMOOTH",
"284 847 OFFCURVE",
"260 823 OFFCURVE",
"260 794 CURVE SMOOTH"
);
}
);
width = 620;
}
);
note = Idieresis;
rightKerningGroup = I;
unicode = 00CF;
},
{
glyphname = Igrave;
lastChange = "2021-12-02 21:20:44 +0000";
layers = (
{
hints = (
{
horizontal = 1;
place = "{0, 74}";
type = Stem;
},
{
horizontal = 1;
place = "{594, 74}";
type = Stem;
},
{
horizontal = 1;
place = "{744, 120}";
type = Stem;
},
{
place = "{160, 94}";
type = Stem;
}
);
layerId = "5BF74C62-CA98-4714-A2D2-DE21E3561B55";
paths = (
{
closed = 1;
nodes = (
"66 74 LINE",
"66 0 LINE",
"348 0 LINE",
"348 74 LINE",
"254 74 LINE",
"254 594 LINE",
"348 594 LINE",
"348 668 LINE",
"66 668 LINE",
"66 594 LINE",
"160 594 LINE",
"160 74 LINE"
);
},
{
closed = 1;
nodes = (
"112 781 OFFCURVE",
"169 748 OFFCURVE",
"175 744 CURVE",
"251 744 LINE",
"145 851 LINE",
"136 861 OFFCURVE",
"124 864 OFFCURVE",
"114 864 CURVE SMOOTH",
"94 864 OFFCURVE",
"78 848 OFFCURVE",
"78 828 CURVE SMOOTH",
"78 817 OFFCURVE",
"84 805 OFFCURVE",
"94 796 CURVE"
);
}
);
width = 620;
}
);
note = Igrave;
rightKerningGroup = I;
unicode = 00CC;
},
{
glyphname = Imacron;
lastChange = "2021-12-02 21:20:44 +0000";
layers = (
{
hints = (
{
horizontal = 1;
place = "{0, 74}";
type = Stem;
},
{
horizontal = 1;
place = "{594, 74}";
type = Stem;
},
{
horizontal = 1;
place = "{762, 67}";
type = Stem;
},
{
place = "{160, 94}";
type = Stem;
},
{
place = "{69, 276}";
type = Stem;
}
);
layerId = "5BF74C62-CA98-4714-A2D2-DE21E3561B55";
paths = (
{
closed = 1;
nodes = (
"66 74 LINE",
"66 0 LINE",
"348 0 LINE",
"348 74 LINE",
"254 74 LINE",
"254 594 LINE",
"348 594 LINE",
"348 668 LINE",
"66 668 LINE",
"66 594 LINE",
"160 594 LINE",
"160 74 LINE"
);
},
{
closed = 1;
nodes = (
"69 762 LINE",
"345 762 LINE",
"345 829 LINE",
"69 829 LINE"
);
}
);
width = 620;
}
);
note = Imacron;
rightKerningGroup = I;
unicode = 012A;
},
{
glyphname = Iogonek;
lastChange = "2021-12-02 21:20:44 +0000";
layers = (
{
hints = (
{
horizontal = 1;
place = "{0, 74}";
type = Stem;
},
{
horizontal = 1;
place = "{594, 74}";
type = Stem;
},
{
place = "{160, 94}";
type = Stem;
},
{
horizontal = 1;
place = "{-173, 58}";
type = Stem;
},
{
place = "{111, 70}";
type = Stem;
}
);
layerId = "5BF74C62-CA98-4714-A2D2-DE21E3561B55";
paths = (
{
closed = 1;
nodes = (
"168 0 LINE",
"142 -14 OFFCURVE",
"111 -43 OFFCURVE",
"111 -91 CURVE SMOOTH",
"111 -134 OFFCURVE",
"145 -173 OFFCURVE",
"205 -173 CURVE SMOOTH",
"224 -173 OFFCURVE",
"245 -169 OFFCURVE",
"268 -161 CURVE",
"268 -107 LINE",
"255 -113 OFFCURVE",
"242 -115 OFFCURVE",
"230 -115 CURVE SMOOTH",
"202 -115 OFFCURVE",
"181 -102 OFFCURVE",
"181 -74 CURVE SMOOTH",
"181 -40 OFFCURVE",
"212 -20 OFFCURVE",
"268 0 CURVE",
"348 0 LINE",
"348 74 LINE",
"254 74 LINE",
"254 594 LINE",
"348 594 LINE",
"348 668 LINE",
"66 668 LINE",
"66 594 LINE",
"160 594 LINE",
"160 74 LINE",
"66 74 LINE",
"66 0 LINE"
);
}
);
width = 620;
}
);
note = Iogonek;
rightKerningGroup = I;
unicode = 012E;
},
{
glyphname = J;
lastChange = "2021-12-02 21:12:23 +0000";
layers = (
{
layerId = "5BF74C62-CA98-4714-A2D2-DE21E3561B55";
paths = (
{
closed = 1;
nodes = (
"35 189 LINE",
"41 56 OFFCURVE",
"139 -12 OFFCURVE",
"264 -12 CURVE SMOOTH",
"395 -12 OFFCURVE",
"494 66 OFFCURVE",
"494 212 CURVE SMOOTH",
"494 668 LINE",
"400 668 LINE",
"400 213 LINE SMOOTH",
"400 92 OFFCURVE",
"318 65 OFFCURVE",
"264 65 CURVE SMOOTH",
"197 65 OFFCURVE",
"119 113 OFFCURVE",
"122 214 CURVE"
);
}
);
width = 620;
}
);
note = J;
unicode = 004A;
},
{
glyphname = K;
lastChange = "2021-12-02 21:02:06 +0000";
layers = (
{
guideLines = (
{
angle = 49.5597;
position = "{170, 210}";
},
{
angle = 49.5597;
position = "{170, 332}";
},
{
angle = 125.9421;
position = "{492, 0}";
}
);
layerId = "5BF74C62-CA98-4714-A2D2-DE21E3561B55";
paths = (
{
closed = 1;
nodes = (
"57 668 LINE",
"57 0 LINE",
"151 0 LINE",
"151 210 LINE",
"243 318 LINE",
"473 0 LINE",
"588 0 LINE",
"304 389 LINE",
"542 668 LINE",
"437 668 LINE",
"151 332 LINE",
"151 668 LINE"
);
}
);
width = 620;
}
);
note = K;
unicode = 004B;
},
{
glyphname = Kcommaaccent;
lastChange = "2021-12-02 21:20:44 +0000";
layers = (
{
hints = (
{
horizontal = 1;
place = "{-250, 34}";
type = Stem;
},
{
horizontal = 1;
place = "{0, 21}";
target = up;
type = BottomGhost;
},
{
horizontal = 1;
place = "{668, -20}";
target = down;
type = TopGhost;
},
{
place = "{76, 94}";
type = Stem;
},
{
place = "{303, 66}";
type = Stem;
}
);
layerId = "5BF74C62-CA98-4714-A2D2-DE21E3561B55";
paths = (
{
closed = 1;
nodes = (
"76 0 LINE",
"170 0 LINE",
"170 210 LINE",
"270 320 LINE",
"502 0 LINE",
"617 0 LINE",
"333 389 LINE",
"588 668 LINE",
"471 668 LINE",
"170 332 LINE",
"170 668 LINE",
"76 668 LINE"
);
},
{
closed = 1;
nodes = (
"249 -250 LINE",
"319 -250 OFFCURVE",
"369 -206 OFFCURVE",
"369 -143 CURVE SMOOTH",
"369 -111 OFFCURVE",
"353 -77 OFFCURVE",
"313 -56 CURVE",
"253 -82 LINE",
"290 -95 OFFCURVE",
"303 -121 OFFCURVE",
"303 -147 CURVE SMOOTH",
"303 -209 OFFCURVE",
"241 -216 OFFCURVE",
"209 -216 CURVE"
);
}
);
width = 620;
}
);
note = uni0136;
unicode = 0136;
},
{
glyphname = L;
lastChange = "2021-12-02 20:41:21 +0000";
layers = (
{
layerId = "5BF74C62-CA98-4714-A2D2-DE21E3561B55";
paths = (
{
closed = 1;
nodes = (
"78 0 LINE",
"541 0 LINE",
"541 81 LINE",
"172 81 LINE",
"172 668 LINE",
"78 668 LINE"
);
}
);
width = 620;
}
);
note = L;
rightKerningGroup = L;
unicode = 004C;
},
{
glyphname = Lcaron;
lastChange = "2021-12-02 21:20:44 +0000";
layers = (
{
hints = (
{
horizontal = 1;
place = "{0, 81}";
type = Stem;
},
{
horizontal = 1;
place = "{679, -20}";
target = down;
type = TopGhost;
},
{
place = "{76, 94}";
type = Stem;
},
{
horizontal = 1;
place = "{496, 172}";
type = Stem;
}
);
layerId = "5BF74C62-CA98-4714-A2D2-DE21E3561B55";
paths = (
{
closed = 1;
nodes = (
"76 0 LINE",
"529 0 LINE",
"529 81 LINE",
"170 81 LINE",
"170 668 LINE",
"76 668 LINE"
);
},
{
closed = 1;
nodes = (
"278 496 LINE",
"328 630 LINE",
"335 659 OFFCURVE",
"315 679 OFFCURVE",
"291 679 CURVE SMOOTH",
"268 679 OFFCURVE",
"257 661 OFFCURVE",
"255 650 CURVE",
"248 625 OFFCURVE",
"231 509 OFFCURVE",
"229 496 CURVE"
);
}
);
width = 620;
}
);
note = Lcaron;
unicode = 013D;
},
{
glyphname = Lcommaaccent;
lastChange = "2021-12-02 21:20:44 +0000";
layers = (
{
hints = (
{
horizontal = 1;
place = "{-251, 34}";
type = Stem;
},
{
horizontal = 1;
place = "{0, 81}";
type = Stem;
},
{
horizontal = 1;
place = "{668, -20}";
target = down;
type = TopGhost;
},
{
place = "{76, 94}";
type = Stem;
},
{
place = "{293, 66}";
type = Stem;
}
);
layerId = "5BF74C62-CA98-4714-A2D2-DE21E3561B55";
paths = (
{
closed = 1;
nodes = (
"76 0 LINE",
"529 0 LINE",
"529 81 LINE",
"170 81 LINE",
"170 668 LINE",
"76 668 LINE"
);
},
{
closed = 1;
nodes = (
"239 -251 LINE",
"309 -251 OFFCURVE",
"359 -207 OFFCURVE",
"359 -144 CURVE SMOOTH",
"359 -112 OFFCURVE",
"343 -78 OFFCURVE",
"303 -57 CURVE",
"243 -83 LINE",
"280 -96 OFFCURVE",
"293 -122 OFFCURVE",
"293 -148 CURVE SMOOTH",
"293 -210 OFFCURVE",
"231 -217 OFFCURVE",
"199 -217 CURVE"
);
}
);
width = 620;
}
);
note = uni013B;
unicode = 013B;
},
{
glyphname = Lslash;
lastChange = "2021-12-02 21:20:44 +0000";
layers = (
{
hints = (
{
horizontal = 1;
place = "{0, 81}";
type = Stem;
},
{
horizontal = 1;
place = "{505, -20}";
target = down;
type = TopGhost;
},
{
horizontal = 1;
place = "{669, -20}";
target = down;
type = TopGhost;
},
{
place = "{110, 94}";
type = Stem;
}
);
layerId = "5BF74C62-CA98-4714-A2D2-DE21E3561B55";
paths = (
{
closed = 1;
nodes = (
"20 216 LINE",
"110 270 LINE",
"110 0 LINE",
"563 0 LINE",
"563 81 LINE",
"204 81 LINE",
"204 326 LINE",
"384 434 LINE",
"384 505 LINE",
"204 397 LINE",
"204 669 LINE",
"110 669 LINE",
"110 340 LINE",
"20 287 LINE"
);
}
);
width = 620;
}
);
note = Lslash;
rightKerningGroup = L;
unicode = 0141;
},
{
glyphname = M;
lastChange = "2021-12-14 11:48:10 +0000";
layers = (
{
guideLines = (
{
angle = -71.204;
position = "{170, 570}";
},
{
angle = -71.204;
position = "{232, 668}";
}
);
layerId = "5BF74C62-CA98-4714-A2D2-DE21E3561B55";
paths = (
{
closed = 1;
nodes = (
"66 668 LINE",
"66 0 LINE",
"158 0 LINE",
"158 570 LINE",
"265 0 LINE",
"356 0 LINE",
"462 570 LINE",
"462 0 LINE",
"554 0 LINE",
"554 668 LINE",
"401 668 LINE",
"310 128 LINE",
"219 668 LINE"
);
}
);
width = 620;
}
);
note = M;
unicode = 004D;
},
{
glyphname = N;
lastChange = "2021-12-02 20:35:25 +0000";
layers = (
{
layerId = "5BF74C62-CA98-4714-A2D2-DE21E3561B55";
paths = (
{
closed = 1;
nodes = (
"76 668 LINE",
"76 0 LINE",
"170 0 LINE",
"170 538 LINE",
"405 0 LINE",
"543 0 LINE",
"543 668 LINE",
"449 668 LINE",
"449 133 LINE",
"215 668 LINE"
);
}
);
width = 620;
}
);
note = N;
unicode = 004E;
},
{
glyphname = Nacute;
lastChange = "2021-12-02 21:20:44 +0000";
layers = (
{
hints = (
{
horizontal = 1;
place = "{0, 21}";
target = up;
type = BottomGhost;
},
{
horizontal = 1;
place = "{668, -20}";
target = down;
type = TopGhost;
},
{
horizontal = 1;
place = "{745, 120}";
type = Stem;
},
{
place = "{76, 94}";
type = Stem;
},
{
place = "{519, 94}";
type = Stem;
},
{
horizontal = 1;
place = "{571, 97}";
type = Stem;
},
{
horizontal = 1;
place = "{0, 100}";
type = Stem;
}
);
layerId = "5BF74C62-CA98-4714-A2D2-DE21E3561B55";
paths = (
{
closed = 1;
nodes = (
"76 0 LINE",
"170 0 LINE",
"170 571 LINE",
"475 0 LINE",
"613 0 LINE",
"613 668 LINE",
"519 668 LINE",
"519 100 LINE",
"215 668 LINE",
"76 668 LINE"
);
},
{
closed = 1;
nodes = (
"395 745 LINE",
"401 749 OFFCURVE",
"458 782 OFFCURVE",
"475 797 CURVE",
"486 806 OFFCURVE",
"491 818 OFFCURVE",
"491 829 CURVE SMOOTH",
"491 849 OFFCURVE",
"475 865 OFFCURVE",
"455 865 CURVE SMOOTH",
"445 865 OFFCURVE",
"435 861 OFFCURVE",
"426 853 CURVE",
"409 839 OFFCURVE",
"328 754 OFFCURVE",
"319 745 CURVE"
);
}
);
width = 620;
}
);
note = Nacute;
unicode = 0143;
},
{
glyphname = Ncaron;
lastChange = "2021-12-02 21:20:44 +0000";
layers = (
{
hints = (
{
horizontal = 1;
place = "{0, 21}";
target = up;
type = BottomGhost;
},
{
horizontal = 1;
place = "{668, -20}";
target = down;
type = TopGhost;
},
{
horizontal = 1;
place = "{741, 120}";
type = Stem;
},
{
place = "{76, 94}";
type = Stem;
},
{
place = "{519, 94}";
type = Stem;
},
{
horizontal = 1;
place = "{571, 97}";
type = Stem;
},
{
horizontal = 1;
place = "{0, 100}";
type = Stem;
}
);
layerId = "5BF74C62-CA98-4714-A2D2-DE21E3561B55";
paths = (
{
closed = 1;
nodes = (
"76 0 LINE",
"170 0 LINE",
"170 571 LINE",
"475 0 LINE",
"613 0 LINE",
"613 668 LINE",
"519 668 LINE",
"519 100 LINE",
"215 668 LINE",
"76 668 LINE"
);
},
{
closed = 1;
nodes = (
"295 760 LINE SMOOTH",
"309 747 OFFCURVE",
"327 741 OFFCURVE",
"345 741 CURVE SMOOTH",
"362 741 OFFCURVE",
"380 747 OFFCURVE",
"394 760 CURVE SMOOTH",
"506 861 LINE",
"412 861 LINE",
"344 800 LINE",
"277 861 LINE",
"183 861 LINE"
);
}
);
width = 620;
}
);
note = Ncaron;
unicode = 0147;
},
{
glyphname = Ncommaaccent;
lastChange = "2021-12-02 21:20:44 +0000";
layers = (
{
hints = (
{
horizontal = 1;
place = "{-250, 34}";
type = Stem;
},
{
horizontal = 1;
place = "{0, 21}";
target = up;
type = BottomGhost;
},
{
horizontal = 1;
place = "{668, -20}";
target = down;
type = TopGhost;
},
{
place = "{76, 94}";
type = Stem;
},
{
place = "{353, 66}";
type = Stem;
},
{
place = "{519, 94}";
type = Stem;
},
{
horizontal = 1;
place = "{571, 97}";
type = Stem;
},
{
horizontal = 1;
place = "{0, 100}";
type = Stem;
}
);
layerId = "5BF74C62-CA98-4714-A2D2-DE21E3561B55";
paths = (
{
closed = 1;
nodes = (
"76 0 LINE",
"170 0 LINE",
"170 571 LINE",
"475 0 LINE",
"613 0 LINE",
"613 668 LINE",
"519 668 LINE",
"519 100 LINE",
"215 668 LINE",
"76 668 LINE"
);
},
{
closed = 1;
nodes = (
"299 -250 LINE",
"369 -250 OFFCURVE",
"419 -206 OFFCURVE",
"419 -143 CURVE SMOOTH",
"419 -111 OFFCURVE",
"403 -77 OFFCURVE",
"363 -56 CURVE",
"303 -82 LINE",
"340 -95 OFFCURVE",
"353 -121 OFFCURVE",
"353 -147 CURVE SMOOTH",
"353 -209 OFFCURVE",
"291 -216 OFFCURVE",
"259 -216 CURVE"
);
}
);
width = 620;
}
);
note = uni0145;
unicode = 0145;
},
{
glyphname = Ntilde;
lastChange = "2021-12-02 21:20:44 +0000";
layers = (
{
hints = (
{
horizontal = 1;
place = "{0, 21}";
target = up;
type = BottomGhost;
},
{
horizontal = 1;
place = "{668, -20}";
target = down;
type = TopGhost;
},
{
horizontal = 1;
place = "{749, 63}";
type = Stem;
},
{
place = "{76, 94}";
type = Stem;
},
{
place = "{519, 94}";
type = Stem;
},
{
horizontal = 1;
place = "{571, 97}";
type = Stem;
},
{
horizontal = 1;
place = "{0, 100}";
type = Stem;
},
{
horizontal = 1;
place = "{792, 63}";
type = Stem;
}
);
layerId = "5BF74C62-CA98-4714-A2D2-DE21E3561B55";
paths = (
{
closed = 1;
nodes = (
"170 0 LINE",
"170 571 LINE",
"475 0 LINE",
"613 0 LINE",
"613 668 LINE",
"519 668 LINE",
"519 100 LINE",
"215 668 LINE",
"76 668 LINE",
"76 0 LINE"
);
},
{
closed = 1;
nodes = (
"244 751 LINE",
"247 777 OFFCURVE",
"262 792 OFFCURVE",
"286 792 CURVE SMOOTH",
"325 792 OFFCURVE",
"356 749 OFFCURVE",
"411 749 CURVE SMOOTH",
"474 749 OFFCURVE",
"508 801 OFFCURVE",
"508 823 CURVE SMOOTH",
"508 840 OFFCURVE",
"493 854 OFFCURVE",
"477 854 CURVE SMOOTH",
"467 854 OFFCURVE",
"456 849 OFFCURVE",
"448 835 CURVE SMOOTH",
"439 820 OFFCURVE",
"429 812 OFFCURVE",
"409 812 CURVE SMOOTH",
"367 812 OFFCURVE",
"341 855 OFFCURVE",
"285 855 CURVE SMOOTH",
"232 855 OFFCURVE",
"191 822 OFFCURVE",
"179 751 CURVE"
);
}
);
width = 620;
}
);
note = Ntilde;
unicode = 00D1;
},
{
glyphname = O;
lastChange = "2021-12-02 21:07:05 +0000";
layers = (
{
layerId = "5BF74C62-CA98-4714-A2D2-DE21E3561B55";
paths = (
{
closed = 1;
nodes = (
"27 133 OFFCURVE",
"125 -12 OFFCURVE",
"310 -12 CURVE SMOOTH",
"496 -12 OFFCURVE",
"594 133 OFFCURVE",
"594 335 CURVE SMOOTH",
"594 536 OFFCURVE",
"496 680 OFFCURVE",
"310 680 CURVE SMOOTH",
"125 680 OFFCURVE",
"27 536 OFFCURVE",
"27 335 CURVE SMOOTH"
);
},
{
closed = 1;
nodes = (
"123 507 OFFCURVE",
"191 601 OFFCURVE",
"310 601 CURVE SMOOTH",
"430 601 OFFCURVE",
"498 507 OFFCURVE",
"498 335 CURVE SMOOTH",
"498 162 OFFCURVE",
"430 67 OFFCURVE",
"310 67 CURVE SMOOTH",
"191 67 OFFCURVE",
"123 162 OFFCURVE",
"123 335 CURVE SMOOTH"
);
}
);
width = 620;
}
);
leftKerningGroup = C;
note = O;
rightKerningGroup = D;
unicode = 004F;
},
{
glyphname = Oacute;
lastChange = "2021-12-02 21:20:44 +0000";
layers = (
{
hints = (
{
horizontal = 1;
place = "{-12, 79}";
type = Stem;
},
{
horizontal = 1;
place = "{601, 79}";
type = Stem;
},
{
horizontal = 1;
place = "{744, 120}";
type = Stem;
},
{
place = "{50, 96}";
type = Stem;
},
{
place = "{581, 96}";
type = Stem;
}
);
layerId = "5BF74C62-CA98-4714-A2D2-DE21E3561B55";
paths = (
{
closed = 1;
nodes = (
"50 133 OFFCURVE",
"171 -12 OFFCURVE",
"363 -12 CURVE SMOOTH",
"556 -12 OFFCURVE",
"677 133 OFFCURVE",
"677 335 CURVE SMOOTH",
"677 536 OFFCURVE",
"556 680 OFFCURVE",
"363 680 CURVE SMOOTH",
"171 680 OFFCURVE",
"50 536 OFFCURVE",
"50 335 CURVE SMOOTH"
);
},
{
closed = 1;
nodes = (
"146 507 OFFCURVE",
"242 601 OFFCURVE",
"363 601 CURVE SMOOTH",
"485 601 OFFCURVE",
"581 507 OFFCURVE",
"581 335 CURVE SMOOTH",
"581 162 OFFCURVE",
"485 67 OFFCURVE",
"363 67 CURVE SMOOTH",
"242 67 OFFCURVE",
"146 162 OFFCURVE",
"146 335 CURVE SMOOTH"
);
},
{
closed = 1;
nodes = (
"399 744 LINE",
"405 748 OFFCURVE",
"462 781 OFFCURVE",
"479 796 CURVE",
"490 805 OFFCURVE",
"495 817 OFFCURVE",
"495 828 CURVE SMOOTH",
"495 848 OFFCURVE",
"479 864 OFFCURVE",
"459 864 CURVE SMOOTH",
"449 864 OFFCURVE",
"439 860 OFFCURVE",
"430 852 CURVE",
"413 838 OFFCURVE",
"332 753 OFFCURVE",
"323 744 CURVE"
);
}
);
width = 620;
}
);
leftKerningGroup = C;
note = Oacute;
rightKerningGroup = D;
unicode = 00D3;
},
{
glyphname = Ocircumflex;
lastChange = "2021-12-02 21:20:44 +0000";
layers = (
{
hints = (
{
horizontal = 1;
place = "{-12, 79}";
type = Stem;
},
{
horizontal = 1;
place = "{601, 79}";
type = Stem;
},
{
horizontal = 1;
place = "{747, 120}";
type = Stem;
},
{
place = "{50, 96}";
type = Stem;
},
{
place = "{581, 96}";
type = Stem;
}
);
layerId = "5BF74C62-CA98-4714-A2D2-DE21E3561B55";
paths = (
{
closed = 1;
nodes = (
"50 133 OFFCURVE",
"171 -12 OFFCURVE",
"363 -12 CURVE SMOOTH",
"556 -12 OFFCURVE",
"677 133 OFFCURVE",
"677 335 CURVE SMOOTH",
"677 536 OFFCURVE",
"556 680 OFFCURVE",
"363 680 CURVE SMOOTH",
"171 680 OFFCURVE",
"50 536 OFFCURVE",
"50 335 CURVE SMOOTH"
);
},
{
closed = 1;
nodes = (
"146 507 OFFCURVE",
"242 601 OFFCURVE",
"363 601 CURVE SMOOTH",
"485 601 OFFCURVE",
"581 507 OFFCURVE",
"581 335 CURVE SMOOTH",
"581 162 OFFCURVE",
"485 67 OFFCURVE",
"363 67 CURVE SMOOTH",
"242 67 OFFCURVE",
"146 162 OFFCURVE",
"146 335 CURVE SMOOTH"
);
},
{
closed = 1;
nodes = (
"296 747 LINE",
"363 808 LINE",
"431 747 LINE",
"525 747 LINE",
"413 848 LINE SMOOTH",
"399 861 OFFCURVE",
"381 867 OFFCURVE",
"364 867 CURVE SMOOTH",
"346 867 OFFCURVE",
"328 861 OFFCURVE",
"314 848 CURVE SMOOTH",
"202 747 LINE"
);
}
);
width = 620;
}
);
leftKerningGroup = C;
note = Ocircumflex;
rightKerningGroup = D;
unicode = 00D4;
},
{
glyphname = Odieresis;
lastChange = "2021-12-02 21:20:44 +0000";
layers = (
{
hints = (
{
horizontal = 1;
place = "{-12, 79}";
type = Stem;
},
{
horizontal = 1;
place = "{601, 79}";
type = Stem;
},
{
horizontal = 1;
place = "{742, 107}";
type = Stem;
},
{
place = "{50, 96}";
type = Stem;
},
{
place = "{204, 108}";
type = Stem;
},
{
place = "{416, 107}";
type = Stem;
},
{
place = "{581, 96}";
type = Stem;
}
);
layerId = "5BF74C62-CA98-4714-A2D2-DE21E3561B55";
paths = (
{
closed = 1;
nodes = (
"556 -12 OFFCURVE",
"677 133 OFFCURVE",
"677 335 CURVE SMOOTH",
"677 536 OFFCURVE",
"556 680 OFFCURVE",
"363 680 CURVE SMOOTH",
"171 680 OFFCURVE",
"50 536 OFFCURVE",
"50 335 CURVE SMOOTH",
"50 133 OFFCURVE",
"171 -12 OFFCURVE",
"363 -12 CURVE SMOOTH"
);
},
{
closed = 1;
nodes = (
"485 601 OFFCURVE",
"581 507 OFFCURVE",
"581 335 CURVE SMOOTH",
"581 162 OFFCURVE",
"485 67 OFFCURVE",
"363 67 CURVE SMOOTH",
"242 67 OFFCURVE",
"146 162 OFFCURVE",
"146 335 CURVE SMOOTH",
"146 507 OFFCURVE",
"242 601 OFFCURVE",
"363 601 CURVE SMOOTH"
);
},
{
closed = 1;
nodes = (
"204 766 OFFCURVE",
"228 742 OFFCURVE",
"258 742 CURVE SMOOTH",
"288 742 OFFCURVE",
"312 766 OFFCURVE",
"312 796 CURVE SMOOTH",
"312 825 OFFCURVE",
"288 849 OFFCURVE",
"258 849 CURVE SMOOTH",
"228 849 OFFCURVE",
"204 825 OFFCURVE",
"204 796 CURVE SMOOTH"
);
},
{
closed = 1;
nodes = (
"416 766 OFFCURVE",
"440 742 OFFCURVE",
"469 742 CURVE SMOOTH",
"499 742 OFFCURVE",
"523 766 OFFCURVE",
"523 796 CURVE SMOOTH",
"523 825 OFFCURVE",
"499 849 OFFCURVE",
"469 849 CURVE SMOOTH",
"440 849 OFFCURVE",
"416 825 OFFCURVE",
"416 796 CURVE SMOOTH"
);
}
);
width = 620;
}
);
leftKerningGroup = C;
note = Odieresis;
rightKerningGroup = D;
unicode = 00D6;
},
{
glyphname = Ograve;
lastChange = "2021-12-02 21:20:44 +0000";
layers = (
{
hints = (
{
horizontal = 1;
place = "{-12, 79}";
type = Stem;
},
{
horizontal = 1;
place = "{601, 79}";
type = Stem;
},
{
horizontal = 1;
place = "{744, 120}";
type = Stem;
},
{
place = "{50, 96}";
type = Stem;
},
{
place = "{581, 96}";
type = Stem;
}
);
layerId = "5BF74C62-CA98-4714-A2D2-DE21E3561B55";
paths = (
{
closed = 1;
nodes = (
"50 133 OFFCURVE",
"171 -12 OFFCURVE",
"363 -12 CURVE SMOOTH",
"556 -12 OFFCURVE",
"677 133 OFFCURVE",
"677 335 CURVE SMOOTH",
"677 536 OFFCURVE",
"556 680 OFFCURVE",
"363 680 CURVE SMOOTH",
"171 680 OFFCURVE",
"50 536 OFFCURVE",
"50 335 CURVE SMOOTH"
);
},
{
closed = 1;
nodes = (
"485 601 OFFCURVE",
"581 507 OFFCURVE",
"581 335 CURVE SMOOTH",
"581 162 OFFCURVE",
"485 67 OFFCURVE",
"363 67 CURVE SMOOTH",
"242 67 OFFCURVE",
"146 162 OFFCURVE",
"146 335 CURVE SMOOTH",
"146 507 OFFCURVE",
"242 601 OFFCURVE",
"363 601 CURVE SMOOTH"
);
},
{
closed = 1;
nodes = (
"267 781 OFFCURVE",
"324 748 OFFCURVE",
"330 744 CURVE",
"406 744 LINE",
"300 851 LINE",
"291 861 OFFCURVE",
"279 864 OFFCURVE",
"269 864 CURVE SMOOTH",
"249 864 OFFCURVE",
"233 848 OFFCURVE",
"233 828 CURVE SMOOTH",
"233 817 OFFCURVE",
"239 805 OFFCURVE",
"249 796 CURVE"
);
}
);
width = 620;
}
);
leftKerningGroup = C;
note = Ograve;
rightKerningGroup = D;
unicode = 00D2;
},
{
glyphname = Ohungarumlaut;
lastChange = "2021-12-02 21:20:44 +0000";
layers = (
{
hints = (
{
horizontal = 1;
place = "{-12, 79}";
type = Stem;
},
{
horizontal = 1;
place = "{601, 79}";
type = Stem;
},
{
horizontal = 1;
place = "{744, 136}";
type = Stem;
},
{
place = "{50, 96}";
type = Stem;
},
{
place = "{581, 96}";
type = Stem;
}
);
layerId = "5BF74C62-CA98-4714-A2D2-DE21E3561B55";
paths = (
{
closed = 1;
nodes = (
"50 133 OFFCURVE",
"171 -12 OFFCURVE",
"363 -12 CURVE SMOOTH",
"556 -12 OFFCURVE",
"677 133 OFFCURVE",
"677 335 CURVE SMOOTH",
"677 536 OFFCURVE",
"556 680 OFFCURVE",
"363 680 CURVE SMOOTH",
"171 680 OFFCURVE",
"50 536 OFFCURVE",
"50 335 CURVE SMOOTH"
);
},
{
closed = 1;
nodes = (
"146 507 OFFCURVE",
"242 601 OFFCURVE",
"363 601 CURVE SMOOTH",
"485 601 OFFCURVE",
"581 507 OFFCURVE",
"581 335 CURVE SMOOTH",
"581 162 OFFCURVE",
"485 67 OFFCURVE",
"363 67 CURVE SMOOTH",
"242 67 OFFCURVE",
"146 162 OFFCURVE",
"146 335 CURVE SMOOTH"
);
},
{
closed = 1;
nodes = (
"333 744 LINE",
"414 815 LINE SMOOTH",
"423 823 OFFCURVE",
"425 833 OFFCURVE",
"425 842 CURVE SMOOTH",
"425 863 OFFCURVE",
"408 880 OFFCURVE",
"387 880 CURVE SMOOTH",
"377 880 OFFCURVE",
"366 876 OFFCURVE",
"359 867 CURVE SMOOTH",
"279 766 LINE",
"263 744 LINE"
);
},
{
closed = 1;
nodes = (
"479 744 LINE",
"560 815 LINE SMOOTH",
"569 823 OFFCURVE",
"571 833 OFFCURVE",
"571 842 CURVE SMOOTH",
"571 862 OFFCURVE",
"553 880 OFFCURVE",
"533 880 CURVE SMOOTH",
"523 880 OFFCURVE",
"512 876 OFFCURVE",
"505 867 CURVE SMOOTH",
"425 766 LINE",
"409 744 LINE"
);
}
);
width = 620;
}
);
note = Ohungarumlaut;
unicode = 0150;
},
{
glyphname = Oslash;
lastChange = "2021-12-02 21:20:44 +0000";
layers = (
{
hints = (
{
horizontal = 1;
place = "{-6, 21}";
target = up;
type = BottomGhost;
},
{
horizontal = 1;
place = "{599, 81}";
type = Stem;
},
{
place = "{50, 96}";
type = Stem;
},
{
place = "{581, 96}";
type = Stem;
},
{
horizontal = 1;
place = "{-12, 79}";
type = Stem;
},
{
horizontal = 1;
place = "{673, -20}";
target = down;
type = TopGhost;
}
);
layerId = "5BF74C62-CA98-4714-A2D2-DE21E3561B55";
paths = (
{
closed = 1;
nodes = (
"50 240 OFFCURVE",
"77 157 OFFCURVE",
"125 97 CURVE",
"65 27 LINE",
"103 -6 LINE",
"160 60 LINE",
"212 14 OFFCURVE",
"281 -12 OFFCURVE",
"363 -12 CURVE SMOOTH",
"556 -12 OFFCURVE",
"677 132 OFFCURVE",
"677 333 CURVE SMOOTH",
"677 430 OFFCURVE",
"649 513 OFFCURVE",
"599 574 CURVE",
"655 641 LINE",
"616 673 LINE",
"563 610 LINE",
"511 655 OFFCURVE",
"443 680 OFFCURVE",
"363 680 CURVE SMOOTH",
"171 680 OFFCURVE",
"50 535 OFFCURVE",
"50 333 CURVE SMOOTH"
);
},
{
closed = 1;
nodes = (
"538 503 LINE",
"565 460 OFFCURVE",
"581 403 OFFCURVE",
"581 333 CURVE SMOOTH",
"581 162 OFFCURVE",
"485 67 OFFCURVE",
"363 67 CURVE SMOOTH",
"307 67 OFFCURVE",
"255 88 OFFCURVE",
"217 127 CURVE"
);
},
{
closed = 1;
nodes = (
"418 599 OFFCURVE",
"468 580 OFFCURVE",
"506 543 CURVE",
"186 169 LINE",
"160 211 OFFCURVE",
"146 267 OFFCURVE",
"146 333 CURVE SMOOTH",
"146 506 OFFCURVE",
"242 599 OFFCURVE",
"363 599 CURVE SMOOTH"
);
}
);
width = 620;
}
);
note = Oslash;
unicode = 00D8;
},
{
glyphname = Otilde;
lastChange = "2021-12-02 21:20:44 +0000";
layers = (
{
hints = (
{
horizontal = 1;
place = "{-12, 79}";
type = Stem;
},
{
horizontal = 1;
place = "{601, 79}";
type = Stem;
},
{
horizontal = 1;
place = "{793, 63}";
type = Stem;
},
{
place = "{50, 96}";
type = Stem;
},
{
place = "{581, 96}";
type = Stem;
},
{
horizontal = 1;
place = "{750, 63}";
type = Stem;
}
);
layerId = "5BF74C62-CA98-4714-A2D2-DE21E3561B55";
paths = (
{
closed = 1;
nodes = (
"556 -12 OFFCURVE",
"677 133 OFFCURVE",
"677 335 CURVE SMOOTH",
"677 536 OFFCURVE",
"556 680 OFFCURVE",
"363 680 CURVE SMOOTH",
"171 680 OFFCURVE",
"50 536 OFFCURVE",
"50 335 CURVE SMOOTH",
"50 133 OFFCURVE",
"171 -12 OFFCURVE",
"363 -12 CURVE SMOOTH"
);
},
{
closed = 1;
nodes = (
"146 507 OFFCURVE",
"242 601 OFFCURVE",
"363 601 CURVE SMOOTH",
"485 601 OFFCURVE",
"581 507 OFFCURVE",
"581 335 CURVE SMOOTH",
"581 162 OFFCURVE",
"485 67 OFFCURVE",
"363 67 CURVE SMOOTH",
"242 67 OFFCURVE",
"146 162 OFFCURVE",
"146 335 CURVE SMOOTH"
);
},
{
closed = 1;
nodes = (
"260 752 LINE",
"263 778 OFFCURVE",
"278 793 OFFCURVE",
"302 793 CURVE SMOOTH",
"341 793 OFFCURVE",
"372 750 OFFCURVE",
"427 750 CURVE SMOOTH",
"490 750 OFFCURVE",
"524 802 OFFCURVE",
"524 824 CURVE SMOOTH",
"524 841 OFFCURVE",
"509 855 OFFCURVE",
"493 855 CURVE SMOOTH",
"483 855 OFFCURVE",
"472 850 OFFCURVE",
"464 836 CURVE SMOOTH",
"455 821 OFFCURVE",
"445 813 OFFCURVE",
"425 813 CURVE SMOOTH",
"383 813 OFFCURVE",
"357 856 OFFCURVE",
"301 856 CURVE SMOOTH",
"248 856 OFFCURVE",
"207 823 OFFCURVE",
"195 752 CURVE"
);
}
);
width = 620;
}
);
leftKerningGroup = C;
note = Otilde;
rightKerningGroup = D;
unicode = 00D5;
},
{
glyphname = OE;
lastChange = "2021-12-02 21:20:44 +0000";
layers = (
{
hints = (
{
horizontal = 1;
place = "{-12, 81}";
type = Stem;
},
{
horizontal = 1;
place = "{304, 81}";
type = Stem;
},
{
horizontal = 1;
place = "{588, 81}";
type = Stem;
},
{
place = "{50, 96}";
type = Stem;
},
{
place = "{581, 74}";
type = Stem;
},
{
horizontal = 1;
place = "{0, 81}";
type = Stem;
},
{
horizontal = 1;
place = "{602, 78}";
type = Stem;
}
);
layerId = "5BF74C62-CA98-4714-A2D2-DE21E3561B55";
paths = (
{
closed = 1;
nodes = (
"453 -12 OFFCURVE",
"527 20 OFFCURVE",
"581 75 CURVE",
"581 0 LINE",
"1014 0 LINE",
"1014 81 LINE",
"655 81 LINE",
"655 304 LINE",
"920 304 LINE",
"920 385 LINE",
"655 385 LINE",
"655 588 LINE",
"1014 588 LINE",
"1014 669 LINE",
"581 669 LINE",
"581 597 LINE",
"527 649 OFFCURVE",
"453 680 OFFCURVE",
"363 680 CURVE SMOOTH",
"171 680 OFFCURVE",
"50 538 OFFCURVE",
"50 335 CURVE SMOOTH",
"50 133 OFFCURVE",
"171 -12 OFFCURVE",
"363 -12 CURVE SMOOTH"
);
},
{
closed = 1;
nodes = (
"473 602 OFFCURVE",
"581 521 OFFCURVE",
"581 334 CURVE SMOOTH",
"581 160 OFFCURVE",
"483 69 OFFCURVE",
"363 69 CURVE SMOOTH",
"242 69 OFFCURVE",
"146 163 OFFCURVE",
"146 335 CURVE SMOOTH",
"146 508 OFFCURVE",
"242 602 OFFCURVE",
"363 602 CURVE SMOOTH"
);
}
);
width = 620;
}
);
leftKerningGroup = C;
note = OE;
rightKerningGroup = E;
unicode = 0152;
},
{
glyphname = P;
lastChange = "2021-12-02 21:06:21 +0000";
layers = (
{
layerId = "5BF74C62-CA98-4714-A2D2-DE21E3561B55";
paths = (
{
closed = 1;
nodes = (
"92 1 LINE",
"186 1 LINE",
"186 266 LINE",
"301 266 LINE SMOOTH",
"464 266 OFFCURVE",
"579 301 OFFCURVE",
"579 466 CURVE SMOOTH",
"579 631 OFFCURVE",
"464 668 OFFCURVE",
"301 668 CURVE SMOOTH",
"92 668 LINE"
);
},
{
closed = 1;
nodes = (
"309 589 LINE SMOOTH",
"406 589 OFFCURVE",
"483 575 OFFCURVE",
"483 466 CURVE SMOOTH",
"483 357 OFFCURVE",
"406 347 OFFCURVE",
"309 347 CURVE SMOOTH",
"186 347 LINE",
"186 589 LINE"
);
}
);
width = 620;
}
);
note = P;
unicode = 0050;
},
{
glyphname = Thorn;
lastChange = "2021-12-02 21:20:44 +0000";
layers = (
{
hints = (
{
horizontal = 1;
place = "{0, 21}";
target = up;
type = BottomGhost;
},
{
horizontal = 1;
place = "{163, 81}";
type = Stem;
},
{
horizontal = 1;
place = "{447, 81}";
type = Stem;
},
{
horizontal = 1;
place = "{668, -20}";
target = down;
type = TopGhost;
},
{
place = "{76, 84}";
type = Stem;
},
{
place = "{441, 97}";
type = Stem;
}
);
layerId = "5BF74C62-CA98-4714-A2D2-DE21E3561B55";
paths = (
{
closed = 1;
nodes = (
"160 0 LINE",
"160 163 LINE",
"287 163 LINE SMOOTH",
"435 163 OFFCURVE",
"538 195 OFFCURVE",
"538 345 CURVE SMOOTH",
"538 494 OFFCURVE",
"435 528 OFFCURVE",
"287 528 CURVE SMOOTH",
"160 528 LINE",
"160 668 LINE",
"76 668 LINE",
"76 0 LINE"
);
},
{
closed = 1;
nodes = (
"296 447 LINE SMOOTH",
"377 447 OFFCURVE",
"441 435 OFFCURVE",
"441 344 CURVE SMOOTH",
"441 252 OFFCURVE",
"377 244 OFFCURVE",
"296 244 CURVE SMOOTH",
"160 244 LINE",
"160 447 LINE"
);
}
);
width = 620;
}
);
note = Thorn;
unicode = 00DE;
},
{
glyphname = Q;
lastChange = "2021-12-02 21:10:21 +0000";
layers = (
{
components = (
{
name = O;
}
);
guideLines = (
{
angle = -43.1947;
position = "{249, 294}";
},
{
angle = -43.1947;
position = "{313, 362}";
}
);
layerId = "5BF74C62-CA98-4714-A2D2-DE21E3561B55";
paths = (
{
closed = 1;
nodes = (
"262 265 LINE",
"569 -24 LINE",
"633 44 LINE",
"326 333 LINE"
);
}
);
width = 620;
}
);
leftKerningGroup = C;
note = Q;
unicode = 0051;
},
{
glyphname = R;
lastChange = "2021-12-02 21:10:38 +0000";
layers = (
{
layerId = "5BF74C62-CA98-4714-A2D2-DE21E3561B55";
paths = (
{
closed = 1;
nodes = (
"171 0 LINE",
"171 281 LINE",
"271 281 LINE",
"474 0 LINE",
"589 0 LINE",
"382 288 LINE",
"537 310 OFFCURVE",
"567 385 OFFCURVE",
"567 476 CURVE SMOOTH",
"567 636 OFFCURVE",
"452 668 OFFCURVE",
"289 668 CURVE SMOOTH",
"77 668 LINE",
"77 0 LINE"
);
},
{
closed = 1;
nodes = (
"296 589 LINE SMOOTH",
"394 589 OFFCURVE",
"471 577 OFFCURVE",
"471 474 CURVE SMOOTH",
"471 371 OFFCURVE",
"394 360 OFFCURVE",
"296 360 CURVE SMOOTH",
"171 360 LINE",
"171 589 LINE"
);
}
);
width = 620;
}
);
note = R;
rightKerningGroup = R;
unicode = 0052;
},
{
glyphname = Racute;
lastChange = "2021-12-02 21:20:44 +0000";
layers = (
{
hints = (
{
horizontal = 1;
place = "{0, 21}";
target = up;
type = BottomGhost;
},
{
horizontal = 1;
place = "{281, 79}";
type = Stem;
},
{
horizontal = 1;
place = "{589, 79}";
type = Stem;
},
{
horizontal = 1;
place = "{744, 120}";
type = Stem;
},
{
place = "{76, 94}";
type = Stem;
},
{
place = "{470, 96}";
type = Stem;
}
);
layerId = "5BF74C62-CA98-4714-A2D2-DE21E3561B55";
paths = (
{
closed = 1;
nodes = (
"170 0 LINE",
"170 281 LINE",
"270 281 LINE",
"473 0 LINE",
"588 0 LINE",
"381 288 LINE",
"536 310 OFFCURVE",
"566 385 OFFCURVE",
"566 476 CURVE SMOOTH",
"566 636 OFFCURVE",
"451 668 OFFCURVE",
"288 668 CURVE SMOOTH",
"76 668 LINE",
"76 0 LINE"
);
},
{
closed = 1;
nodes = (
"295 589 LINE SMOOTH",
"393 589 OFFCURVE",
"470 577 OFFCURVE",
"470 474 CURVE SMOOTH",
"470 371 OFFCURVE",
"393 360 OFFCURVE",
"295 360 CURVE SMOOTH",
"170 360 LINE",
"170 589 LINE"
);
},
{
closed = 1;
nodes = (
"339 744 LINE",
"345 748 OFFCURVE",
"402 781 OFFCURVE",
"419 796 CURVE",
"430 805 OFFCURVE",
"435 817 OFFCURVE",
"435 828 CURVE SMOOTH",
"435 848 OFFCURVE",
"419 864 OFFCURVE",
"399 864 CURVE SMOOTH",
"389 864 OFFCURVE",
"379 860 OFFCURVE",
"370 852 CURVE",
"353 838 OFFCURVE",
"272 753 OFFCURVE",
"263 744 CURVE"
);
}
);
width = 620;
}
);
note = Racute;
rightKerningGroup = R;
unicode = 0154;
},
{
glyphname = Rcaron;
lastChange = "2021-12-02 21:20:44 +0000";
layers = (
{
hints = (
{
horizontal = 1;
place = "{0, 21}";
target = up;
type = BottomGhost;
},
{
horizontal = 1;
place = "{281, 79}";
type = Stem;
},
{
horizontal = 1;
place = "{589, 79}";
type = Stem;
},
{
horizontal = 1;
place = "{741, 120}";
type = Stem;
},
{
place = "{76, 94}";
type = Stem;
},
{
place = "{470, 96}";
type = Stem;
}
);
layerId = "5BF74C62-CA98-4714-A2D2-DE21E3561B55";
paths = (
{
closed = 1;
nodes = (
"76 0 LINE",
"170 0 LINE",
"170 281 LINE",
"270 281 LINE",
"473 0 LINE",
"588 0 LINE",
"381 288 LINE",
"536 310 OFFCURVE",
"566 385 OFFCURVE",
"566 476 CURVE SMOOTH",
"566 636 OFFCURVE",
"451 668 OFFCURVE",
"288 668 CURVE SMOOTH",
"76 668 LINE"
);
},
{
closed = 1;
nodes = (
"170 589 LINE",
"295 589 LINE SMOOTH",
"393 589 OFFCURVE",
"470 577 OFFCURVE",
"470 474 CURVE SMOOTH",
"470 371 OFFCURVE",
"393 360 OFFCURVE",
"295 360 CURVE SMOOTH",
"170 360 LINE"
);
},
{
closed = 1;
nodes = (
"148 861 LINE",
"260 760 LINE SMOOTH",
"274 747 OFFCURVE",
"292 741 OFFCURVE",
"310 741 CURVE SMOOTH",
"327 741 OFFCURVE",
"345 747 OFFCURVE",
"359 760 CURVE SMOOTH",
"471 861 LINE",
"377 861 LINE",
"309 800 LINE",
"242 861 LINE"
);
}
);
width = 620;
}
);
note = Rcaron;
rightKerningGroup = R;
unicode = 0158;
},
{
glyphname = S;
lastChange = "2021-12-02 20:36:10 +0000";
layers = (
{
layerId = "5BF74C62-CA98-4714-A2D2-DE21E3561B55";
paths = (
{
closed = 1;
nodes = (
"52 146 LINE",
"87 38 OFFCURVE",
"198 -12 OFFCURVE",
"308 -12 CURVE SMOOTH",
"439 -12 OFFCURVE",
"568 58 OFFCURVE",
"568 182 CURVE SMOOTH",
"568 327 OFFCURVE",
"443 361 OFFCURVE",
"327 386 CURVE SMOOTH",
"236 405 OFFCURVE",
"155 422 OFFCURVE",
"155 497 CURVE SMOOTH",
"155 567 OFFCURVE",
"226 601 OFFCURVE",
"299 601 CURVE SMOOTH",
"360 601 OFFCURVE",
"423 577 OFFCURVE",
"449 530 CURVE",
"535 555 LINE",
"493 641 OFFCURVE",
"397 680 OFFCURVE",
"303 680 CURVE SMOOTH",
"180 680 OFFCURVE",
"58 614 OFFCURVE",
"58 501 CURVE SMOOTH",
"58 354 OFFCURVE",
"195 324 OFFCURVE",
"298 302 CURVE SMOOTH",
"425 276 OFFCURVE",
"469 246 OFFCURVE",
"469 186 CURVE SMOOTH",
"469 106 OFFCURVE",
"392 67 OFFCURVE",
"312 67 CURVE SMOOTH",
"239 67 OFFCURVE",
"162 100 OFFCURVE",
"139 172 CURVE"
);
}
);
width = 620;
}
);
note = S;
unicode = 0053;
},
{
glyphname = Sacute;
lastChange = "2021-12-02 21:20:44 +0000";
layers = (
{
hints = (
{
horizontal = 1;
place = "{-12, 79}";
type = Stem;
},
{
horizontal = 1;
place = "{601, 79}";
type = Stem;
},
{
horizontal = 1;
place = "{744, 120}";
type = Stem;
},
{
place = "{46, 97}";
type = Stem;
},
{
place = "{457, 99}";
type = Stem;
}
);
layerId = "5BF74C62-CA98-4714-A2D2-DE21E3561B55";
paths = (
{
closed = 1;
nodes = (
"40 146 LINE",
"75 38 OFFCURVE",
"186 -12 OFFCURVE",
"296 -12 CURVE SMOOTH",
"427 -12 OFFCURVE",
"556 58 OFFCURVE",
"556 182 CURVE SMOOTH",
"556 327 OFFCURVE",
"431 361 OFFCURVE",
"315 386 CURVE SMOOTH",
"224 405 OFFCURVE",
"143 422 OFFCURVE",
"143 497 CURVE SMOOTH",
"143 567 OFFCURVE",
"214 601 OFFCURVE",
"287 601 CURVE SMOOTH",
"348 601 OFFCURVE",
"411 577 OFFCURVE",
"437 530 CURVE",
"523 555 LINE",
"481 641 OFFCURVE",
"385 680 OFFCURVE",
"291 680 CURVE SMOOTH",
"168 680 OFFCURVE",
"46 614 OFFCURVE",
"46 501 CURVE SMOOTH",
"46 354 OFFCURVE",
"183 324 OFFCURVE",
"286 302 CURVE SMOOTH",
"413 276 OFFCURVE",
"457 246 OFFCURVE",
"457 186 CURVE SMOOTH",
"457 106 OFFCURVE",
"380 67 OFFCURVE",
"300 67 CURVE SMOOTH",
"227 67 OFFCURVE",
"150 100 OFFCURVE",
"127 172 CURVE"
);
},
{
closed = 1;
nodes = (
"328 744 LINE",
"334 748 OFFCURVE",
"391 781 OFFCURVE",
"408 796 CURVE",
"419 805 OFFCURVE",
"424 817 OFFCURVE",
"424 828 CURVE SMOOTH",
"424 848 OFFCURVE",
"408 864 OFFCURVE",
"388 864 CURVE SMOOTH",
"378 864 OFFCURVE",
"368 860 OFFCURVE",
"359 852 CURVE",
"342 838 OFFCURVE",
"261 753 OFFCURVE",
"252 744 CURVE"
);
}
);
width = 620;
}
);
note = Sacute;
unicode = 015A;
},
{
glyphname = Scaron;
lastChange = "2021-12-02 21:20:44 +0000";
layers = (
{
hints = (
{
horizontal = 1;
place = "{-12, 79}";
type = Stem;
},
{
horizontal = 1;
place = "{601, 79}";
type = Stem;
},
{
horizontal = 1;
place = "{741, 120}";
type = Stem;
},
{
place = "{46, 97}";
type = Stem;
},
{
place = "{457, 99}";
type = Stem;
}
);
layerId = "5BF74C62-CA98-4714-A2D2-DE21E3561B55";
paths = (
{
closed = 1;
nodes = (
"40 146 LINE",
"75 38 OFFCURVE",
"186 -12 OFFCURVE",
"296 -12 CURVE SMOOTH",
"427 -12 OFFCURVE",
"556 58 OFFCURVE",
"556 182 CURVE SMOOTH",
"556 327 OFFCURVE",
"431 361 OFFCURVE",
"315 386 CURVE SMOOTH",
"224 405 OFFCURVE",
"143 422 OFFCURVE",
"143 497 CURVE SMOOTH",
"143 567 OFFCURVE",
"214 601 OFFCURVE",
"287 601 CURVE SMOOTH",
"348 601 OFFCURVE",
"411 577 OFFCURVE",
"437 530 CURVE",
"523 555 LINE",
"481 641 OFFCURVE",
"385 680 OFFCURVE",
"291 680 CURVE SMOOTH",
"168 680 OFFCURVE",
"46 614 OFFCURVE",
"46 501 CURVE SMOOTH",
"46 354 OFFCURVE",
"183 324 OFFCURVE",
"286 302 CURVE SMOOTH",
"413 276 OFFCURVE",
"457 246 OFFCURVE",
"457 186 CURVE SMOOTH",
"457 106 OFFCURVE",
"380 67 OFFCURVE",
"300 67 CURVE SMOOTH",
"227 67 OFFCURVE",
"150 100 OFFCURVE",
"127 172 CURVE"
);
},
{
closed = 1;
nodes = (
"137 861 LINE",
"249 760 LINE SMOOTH",
"263 747 OFFCURVE",
"281 741 OFFCURVE",
"299 741 CURVE SMOOTH",
"316 741 OFFCURVE",
"334 747 OFFCURVE",
"348 760 CURVE SMOOTH",
"460 861 LINE",
"366 861 LINE",
"298 800 LINE",
"231 861 LINE"
);
}
);
width = 620;
}
);
note = Scaron;
unicode = 0160;
},
{
glyphname = Scedilla;
lastChange = "2021-12-02 21:20:44 +0000";
layers = (
{
hints = (
{
horizontal = 1;
place = "{-181, 41}";
type = Stem;
},
{
horizontal = 1;
place = "{-81, 40}";
type = Stem;
},
{
horizontal = 1;
place = "{-11, 78}";
type = Stem;
},
{
horizontal = 1;
place = "{601, 79}";
type = Stem;
},
{
place = "{46, 97}";
type = Stem;
},
{
place = "{329, 62}";
type = Stem;
},
{
place = "{457, 99}";
type = Stem;
}
);
layerId = "5BF74C62-CA98-4714-A2D2-DE21E3561B55";
paths = (
{
closed = 1;
nodes = (
"40 146 LINE",
"75 38 OFFCURVE",
"186 -12 OFFCURVE",
"296 -12 CURVE SMOOTH",
"427 -12 OFFCURVE",
"556 58 OFFCURVE",
"556 182 CURVE SMOOTH",
"556 327 OFFCURVE",
"431 361 OFFCURVE",
"315 386 CURVE SMOOTH",
"224 405 OFFCURVE",
"143 422 OFFCURVE",
"143 497 CURVE SMOOTH",
"143 567 OFFCURVE",
"214 601 OFFCURVE",
"287 601 CURVE SMOOTH",
"348 601 OFFCURVE",
"411 577 OFFCURVE",
"437 530 CURVE",
"523 555 LINE",
"481 641 OFFCURVE",
"385 680 OFFCURVE",
"291 680 CURVE SMOOTH",
"168 680 OFFCURVE",
"46 614 OFFCURVE",
"46 501 CURVE SMOOTH",
"46 354 OFFCURVE",
"183 324 OFFCURVE",
"286 302 CURVE SMOOTH",
"413 276 OFFCURVE",
"457 246 OFFCURVE",
"457 186 CURVE SMOOTH",
"457 106 OFFCURVE",
"380 67 OFFCURVE",
"300 67 CURVE SMOOTH",
"227 67 OFFCURVE",
"150 100 OFFCURVE",
"127 172 CURVE"
);
},
{
closed = 1;
nodes = (
"206 -161 LINE",
"240 -175 OFFCURVE",
"269 -181 OFFCURVE",
"294 -181 CURVE SMOOTH",
"359 -181 OFFCURVE",
"391 -140 OFFCURVE",
"391 -102 CURVE SMOOTH",
"391 -70 OFFCURVE",
"368 -41 OFFCURVE",
"322 -41 CURVE SMOOTH",
"313 -41 OFFCURVE",
"303 -43 OFFCURVE",
"292 -45 CURVE",
"322 4 LINE",
"288 25 LINE",
"237 -57 LINE SMOOTH",
"235 -60 OFFCURVE",
"234 -63 OFFCURVE",
"234 -67 CURVE SMOOTH",
"234 -79 OFFCURVE",
"244 -91 OFFCURVE",
"262 -86 CURVE SMOOTH",
"274 -83 OFFCURVE",
"284 -81 OFFCURVE",
"293 -81 CURVE SMOOTH",
"318 -81 OFFCURVE",
"329 -93 OFFCURVE",
"329 -106 CURVE SMOOTH",
"329 -122 OFFCURVE",
"312 -140 OFFCURVE",
"278 -140 CURVE SMOOTH",
"262 -140 OFFCURVE",
"243 -136 OFFCURVE",
"220 -126 CURVE"
);
}
);
width = 620;
}
);
note = Scedilla;
unicode = 015E;
},
{
glyphname = Scommaaccent;
lastChange = "2021-12-02 21:20:44 +0000";
layers = (
{
hints = (
{
horizontal = 1;
place = "{-250, 34}";
type = Stem;
},
{
horizontal = 1;
place = "{-12, 79}";
type = Stem;
},
{
horizontal = 1;
place = "{601, 79}";
type = Stem;
},
{
place = "{46, 97}";
type = Stem;
},
{
place = "{306, 66}";
type = Stem;
},
{
place = "{457, 99}";
type = Stem;
}
);
layerId = "5BF74C62-CA98-4714-A2D2-DE21E3561B55";
paths = (
{
closed = 1;
nodes = (
"40 146 LINE",
"75 38 OFFCURVE",
"186 -12 OFFCURVE",
"296 -12 CURVE SMOOTH",
"427 -12 OFFCURVE",
"556 58 OFFCURVE",
"556 182 CURVE SMOOTH",
"556 327 OFFCURVE",
"431 361 OFFCURVE",
"315 386 CURVE SMOOTH",
"224 405 OFFCURVE",
"143 422 OFFCURVE",
"143 497 CURVE SMOOTH",
"143 567 OFFCURVE",
"214 601 OFFCURVE",
"287 601 CURVE SMOOTH",
"348 601 OFFCURVE",
"411 577 OFFCURVE",
"437 530 CURVE",
"523 555 LINE",
"481 641 OFFCURVE",
"385 680 OFFCURVE",
"291 680 CURVE SMOOTH",
"168 680 OFFCURVE",
"46 614 OFFCURVE",
"46 501 CURVE SMOOTH",
"46 354 OFFCURVE",
"183 324 OFFCURVE",
"286 302 CURVE SMOOTH",
"413 276 OFFCURVE",
"457 246 OFFCURVE",
"457 186 CURVE SMOOTH",
"457 106 OFFCURVE",
"380 67 OFFCURVE",
"300 67 CURVE SMOOTH",
"227 67 OFFCURVE",
"150 100 OFFCURVE",
"127 172 CURVE"
);
},
{
closed = 1;
nodes = (
"252 -250 LINE",
"322 -250 OFFCURVE",
"372 -206 OFFCURVE",
"372 -143 CURVE SMOOTH",
"372 -111 OFFCURVE",
"356 -77 OFFCURVE",
"316 -56 CURVE",
"256 -82 LINE",
"293 -95 OFFCURVE",
"306 -121 OFFCURVE",
"306 -147 CURVE SMOOTH",
"306 -209 OFFCURVE",
"244 -216 OFFCURVE",
"212 -216 CURVE"
);
}
);
width = 620;
}
);
note = uni0218;
unicode = 0218;
},
{
glyphname = T;
lastChange = "2021-12-02 21:11:08 +0000";
layers = (
{
layerId = "5BF74C62-CA98-4714-A2D2-DE21E3561B55";
paths = (
{
closed = 1;
nodes = (
"19 587 LINE",
"261 587 LINE",
"261 0 LINE",
"355 0 LINE",
"355 587 LINE",
"597 587 LINE",
"597 668 LINE",
"19 668 LINE"
);
}
);
width = 620;
}
);
leftKerningGroup = T;
note = T;
rightKerningGroup = T;
unicode = 0054;
},
{
glyphname = Tcaron;
lastChange = "2021-12-02 21:20:44 +0000";
layers = (
{
hints = (
{
horizontal = 1;
place = "{0, 21}";
target = up;
type = BottomGhost;
},
{
horizontal = 1;
place = "{587, 81}";
type = Stem;
},
{
horizontal = 1;
place = "{741, 120}";
type = Stem;
},
{
place = "{232, 94}";
type = Stem;
}
);
layerId = "5BF74C62-CA98-4714-A2D2-DE21E3561B55";
paths = (
{
closed = 1;
nodes = (
"10 668 LINE",
"10 587 LINE",
"232 587 LINE",
"232 0 LINE",
"326 0 LINE",
"326 587 LINE",
"548 587 LINE",
"548 668 LINE"
);
},
{
closed = 1;
nodes = (
"230 760 LINE SMOOTH",
"244 747 OFFCURVE",
"262 741 OFFCURVE",
"280 741 CURVE SMOOTH",
"297 741 OFFCURVE",
"315 747 OFFCURVE",
"329 760 CURVE SMOOTH",
"441 861 LINE",
"347 861 LINE",
"279 800 LINE",
"212 861 LINE",
"118 861 LINE"
);
}
);
width = 620;
}
);
leftKerningGroup = T;
note = Tcaron;
rightKerningGroup = T;
unicode = 0164;
},
{
glyphname = Tcedilla;
lastChange = "2021-12-02 21:20:44 +0000";
layers = (
{
hints = (
{
horizontal = 1;
place = "{-250, 34}";
type = Stem;
},
{
horizontal = 1;
place = "{0, 21}";
target = up;
type = BottomGhost;
},
{
horizontal = 1;
place = "{587, 81}";
type = Stem;
},
{
place = "{232, 94}";
type = Stem;
},
{
place = "{279, 66}";
type = Stem;
}
);
layerId = "5BF74C62-CA98-4714-A2D2-DE21E3561B55";
paths = (
{
closed = 1;
nodes = (
"232 0 LINE",
"326 0 LINE",
"326 587 LINE",
"548 587 LINE",
"548 668 LINE",
"10 668 LINE",
"10 587 LINE",
"232 587 LINE"
);
},
{
closed = 1;
nodes = (
"225 -250 LINE",
"295 -250 OFFCURVE",
"345 -206 OFFCURVE",
"345 -143 CURVE SMOOTH",
"345 -111 OFFCURVE",
"329 -77 OFFCURVE",
"289 -56 CURVE",
"229 -82 LINE",
"266 -95 OFFCURVE",
"279 -121 OFFCURVE",
"279 -147 CURVE SMOOTH",
"279 -209 OFFCURVE",
"217 -216 OFFCURVE",
"185 -216 CURVE"
);
}
);
width = 620;
}
);
leftKerningGroup = T;
note = uni0162;
rightKerningGroup = T;
unicode = 0162;
},
{
glyphname = Tcommaaccent;
lastChange = "2021-12-02 21:20:44 +0000";
layers = (
{
hints = (
{
horizontal = 1;
place = "{-250, 34}";
type = Stem;
},
{
horizontal = 1;
place = "{0, 21}";
target = up;
type = BottomGhost;
},
{
horizontal = 1;
place = "{587, 81}";
type = Stem;
},
{
place = "{232, 94}";
type = Stem;
},
{
place = "{280, 66}";
type = Stem;
}
);
layerId = "5BF74C62-CA98-4714-A2D2-DE21E3561B55";
paths = (
{
closed = 1;
nodes = (
"232 0 LINE",
"326 0 LINE",
"326 587 LINE",
"548 587 LINE",
"548 668 LINE",
"10 668 LINE",
"10 587 LINE",
"232 587 LINE"
);
},
{
closed = 1;
nodes = (
"226 -250 LINE",
"296 -250 OFFCURVE",
"346 -206 OFFCURVE",
"346 -143 CURVE SMOOTH",
"346 -111 OFFCURVE",
"330 -77 OFFCURVE",
"290 -56 CURVE",
"230 -82 LINE",
"267 -95 OFFCURVE",
"280 -121 OFFCURVE",
"280 -147 CURVE SMOOTH",
"280 -209 OFFCURVE",
"218 -216 OFFCURVE",
"186 -216 CURVE"
);
}
);
width = 620;
}
);
leftKerningGroup = T;
note = uni021A;
rightKerningGroup = T;
unicode = 021A;
},
{
glyphname = U;
lastChange = "2021-12-02 21:12:04 +0000";
layers = (
{
layerId = "5BF74C62-CA98-4714-A2D2-DE21E3561B55";
paths = (
{
closed = 1;
nodes = (
"495 -12 OFFCURVE",
"549 84 OFFCURVE",
"549 279 CURVE SMOOTH",
"549 668 LINE",
"455 668 LINE",
"455 272 LINE SMOOTH",
"455 140 OFFCURVE",
"428 69 OFFCURVE",
"310 69 CURVE SMOOTH",
"192 69 OFFCURVE",
"165 140 OFFCURVE",
"165 272 CURVE SMOOTH",
"165 668 LINE",
"71 668 LINE",
"71 279 LINE SMOOTH",
"71 84 OFFCURVE",
"126 -12 OFFCURVE",
"310 -12 CURVE SMOOTH"
);
}
);
width = 620;
}
);
note = U;
rightKerningGroup = U;
unicode = 0055;
},
{
glyphname = Uacute;
lastChange = "2021-12-02 21:20:44 +0000";
layers = (
{
hints = (
{
horizontal = 1;
place = "{-12, 81}";
type = Stem;
},
{
horizontal = 1;
place = "{668, -20}";
target = down;
type = TopGhost;
},
{
horizontal = 1;
place = "{744, 120}";
type = Stem;
},
{
place = "{76, 94}";
type = Stem;
},
{
place = "{520, 94}";
type = Stem;
}
);
layerId = "5BF74C62-CA98-4714-A2D2-DE21E3561B55";
paths = (
{
closed = 1;
nodes = (
"540 -12 OFFCURVE",
"614 84 OFFCURVE",
"614 279 CURVE SMOOTH",
"614 668 LINE",
"520 668 LINE",
"520 272 LINE SMOOTH",
"520 140 OFFCURVE",
"473 69 OFFCURVE",
"345 69 CURVE SMOOTH",
"217 69 OFFCURVE",
"170 140 OFFCURVE",
"170 272 CURVE SMOOTH",
"170 668 LINE",
"76 668 LINE",
"76 279 LINE SMOOTH",
"76 84 OFFCURVE",
"151 -12 OFFCURVE",
"345 -12 CURVE SMOOTH"
);
},
{
closed = 1;
nodes = (
"381 744 LINE",
"387 748 OFFCURVE",
"444 781 OFFCURVE",
"461 796 CURVE",
"472 805 OFFCURVE",
"477 817 OFFCURVE",
"477 828 CURVE SMOOTH",
"477 848 OFFCURVE",
"461 864 OFFCURVE",
"441 864 CURVE SMOOTH",
"431 864 OFFCURVE",
"421 860 OFFCURVE",
"412 852 CURVE",
"395 838 OFFCURVE",
"314 753 OFFCURVE",
"305 744 CURVE"
);
}
);
width = 620;
}
);
note = Uacute;
rightKerningGroup = U;
unicode = 00DA;
},
{
glyphname = Ucircumflex;
lastChange = "2021-12-02 21:20:44 +0000";
layers = (
{
hints = (
{
horizontal = 1;
place = "{-12, 81}";
type = Stem;
},
{
horizontal = 1;
place = "{668, -20}";
target = down;
type = TopGhost;
},
{
horizontal = 1;
place = "{747, 120}";
type = Stem;
},
{
place = "{76, 94}";
type = Stem;
},
{
place = "{520, 94}";
type = Stem;
}
);
layerId = "5BF74C62-CA98-4714-A2D2-DE21E3561B55";
paths = (
{
closed = 1;
nodes = (
"76 279 LINE SMOOTH",
"76 84 OFFCURVE",
"151 -12 OFFCURVE",
"345 -12 CURVE SMOOTH",
"540 -12 OFFCURVE",
"614 84 OFFCURVE",
"614 279 CURVE SMOOTH",
"614 668 LINE",
"520 668 LINE",
"520 272 LINE SMOOTH",
"520 140 OFFCURVE",
"473 69 OFFCURVE",
"345 69 CURVE SMOOTH",
"217 69 OFFCURVE",
"170 140 OFFCURVE",
"170 272 CURVE SMOOTH",
"170 668 LINE",
"76 668 LINE"
);
},
{
closed = 1;
nodes = (
"278 747 LINE",
"345 808 LINE",
"413 747 LINE",
"507 747 LINE",
"395 848 LINE SMOOTH",
"381 861 OFFCURVE",
"363 867 OFFCURVE",
"346 867 CURVE SMOOTH",
"328 867 OFFCURVE",
"310 861 OFFCURVE",
"296 848 CURVE SMOOTH",
"184 747 LINE"
);
}
);
width = 620;
}
);
note = Ucircumflex;
rightKerningGroup = U;
unicode = 00DB;
},
{
glyphname = Udieresis;
lastChange = "2021-12-02 21:20:44 +0000";
layers = (
{
hints = (
{
horizontal = 1;
place = "{-12, 81}";
type = Stem;
},
{
horizontal = 1;
place = "{668, -20}";
target = down;
type = TopGhost;
},
{
horizontal = 1;
place = "{743, 107}";
type = Stem;
},
{
place = "{76, 94}";
type = Stem;
},
{
place = "{520, 94}";
type = Stem;
},
{
place = "{186, 108}";
type = Stem;
},
{
place = "{398, 107}";
type = Stem;
}
);
layerId = "5BF74C62-CA98-4714-A2D2-DE21E3561B55";
paths = (
{
closed = 1;
nodes = (
"540 -12 OFFCURVE",
"614 84 OFFCURVE",
"614 279 CURVE SMOOTH",
"614 668 LINE",
"520 668 LINE",
"520 272 LINE SMOOTH",
"520 140 OFFCURVE",
"473 69 OFFCURVE",
"345 69 CURVE SMOOTH",
"217 69 OFFCURVE",
"170 140 OFFCURVE",
"170 272 CURVE SMOOTH",
"170 668 LINE",
"76 668 LINE",
"76 279 LINE SMOOTH",
"76 84 OFFCURVE",
"151 -12 OFFCURVE",
"345 -12 CURVE SMOOTH"
);
},
{
closed = 1;
nodes = (
"270 743 OFFCURVE",
"294 767 OFFCURVE",
"294 797 CURVE SMOOTH",
"294 826 OFFCURVE",
"270 850 OFFCURVE",
"240 850 CURVE SMOOTH",
"210 850 OFFCURVE",
"186 826 OFFCURVE",
"186 797 CURVE SMOOTH",
"186 767 OFFCURVE",
"210 743 OFFCURVE",
"240 743 CURVE SMOOTH"
);
},
{
closed = 1;
nodes = (
"481 743 OFFCURVE",
"505 767 OFFCURVE",
"505 797 CURVE SMOOTH",
"505 826 OFFCURVE",
"481 850 OFFCURVE",
"451 850 CURVE SMOOTH",
"422 850 OFFCURVE",
"398 826 OFFCURVE",
"398 797 CURVE SMOOTH",
"398 767 OFFCURVE",
"422 743 OFFCURVE",
"451 743 CURVE SMOOTH"
);
}
);
width = 620;
}
);
note = Udieresis;
rightKerningGroup = U;
unicode = 00DC;
},
{
glyphname = Ugrave;
lastChange = "2021-12-02 21:20:44 +0000";
layers = (
{
hints = (
{
horizontal = 1;
place = "{-12, 81}";
type = Stem;
},
{
horizontal = 1;
place = "{668, -20}";
target = down;
type = TopGhost;
},
{
horizontal = 1;
place = "{744, 120}";
type = Stem;
},
{
place = "{76, 94}";
type = Stem;
},
{
place = "{520, 94}";
type = Stem;
}
);
layerId = "5BF74C62-CA98-4714-A2D2-DE21E3561B55";
paths = (
{
closed = 1;
nodes = (
"76 668 LINE",
"76 279 LINE SMOOTH",
"76 84 OFFCURVE",
"151 -12 OFFCURVE",
"345 -12 CURVE SMOOTH",
"540 -12 OFFCURVE",
"614 84 OFFCURVE",
"614 279 CURVE SMOOTH",
"614 668 LINE",
"520 668 LINE",
"520 272 LINE SMOOTH",
"520 140 OFFCURVE",
"473 69 OFFCURVE",
"345 69 CURVE SMOOTH",
"217 69 OFFCURVE",
"170 140 OFFCURVE",
"170 272 CURVE SMOOTH",
"170 668 LINE"
);
},
{
closed = 1;
nodes = (
"249 781 OFFCURVE",
"306 748 OFFCURVE",
"312 744 CURVE",
"388 744 LINE",
"282 851 LINE",
"273 861 OFFCURVE",
"261 864 OFFCURVE",
"251 864 CURVE SMOOTH",
"231 864 OFFCURVE",
"215 848 OFFCURVE",
"215 828 CURVE SMOOTH",
"215 817 OFFCURVE",
"221 805 OFFCURVE",
"231 796 CURVE"
);
}
);
width = 620;
}
);
note = Ugrave;
rightKerningGroup = U;
unicode = 00D9;
},
{
glyphname = Uhungarumlaut;
lastChange = "2021-12-02 21:20:44 +0000";
layers = (
{
hints = (
{
horizontal = 1;
place = "{-12, 81}";
type = Stem;
},
{
horizontal = 1;
place = "{668, -20}";
target = down;
type = TopGhost;
},
{
horizontal = 1;
place = "{744, 136}";
type = Stem;
},
{
place = "{76, 94}";
type = Stem;
},
{
place = "{520, 94}";
type = Stem;
}
);
layerId = "5BF74C62-CA98-4714-A2D2-DE21E3561B55";
paths = (
{
closed = 1;
nodes = (
"76 668 LINE",
"76 279 LINE SMOOTH",
"76 84 OFFCURVE",
"151 -12 OFFCURVE",
"345 -12 CURVE SMOOTH",
"540 -12 OFFCURVE",
"614 84 OFFCURVE",
"614 279 CURVE SMOOTH",
"614 668 LINE",
"520 668 LINE",
"520 272 LINE SMOOTH",
"520 140 OFFCURVE",
"473 69 OFFCURVE",
"345 69 CURVE SMOOTH",
"217 69 OFFCURVE",
"170 140 OFFCURVE",
"170 272 CURVE SMOOTH",
"170 668 LINE"
);
},
{
closed = 1;
nodes = (
"310 744 LINE",
"391 815 LINE SMOOTH",
"400 823 OFFCURVE",
"402 833 OFFCURVE",
"402 842 CURVE SMOOTH",
"402 863 OFFCURVE",
"385 880 OFFCURVE",
"364 880 CURVE SMOOTH",
"354 880 OFFCURVE",
"343 876 OFFCURVE",
"336 867 CURVE SMOOTH",
"256 766 LINE",
"240 744 LINE"
);
},
{
closed = 1;
nodes = (
"456 744 LINE",
"537 815 LINE SMOOTH",
"546 823 OFFCURVE",
"548 833 OFFCURVE",
"548 842 CURVE SMOOTH",
"548 862 OFFCURVE",
"530 880 OFFCURVE",
"510 880 CURVE SMOOTH",
"500 880 OFFCURVE",
"489 876 OFFCURVE",
"482 867 CURVE SMOOTH",
"402 766 LINE",
"386 744 LINE"
);
}
);
width = 620;
}
);
note = Uhungarumlaut;
unicode = 0170;
},
{
glyphname = Umacron;
lastChange = "2021-12-02 21:20:44 +0000";
layers = (
{
hints = (
{
horizontal = 1;
place = "{-12, 81}";
type = Stem;
},
{
horizontal = 1;
place = "{668, -20}";
target = down;
type = TopGhost;
},
{
horizontal = 1;
place = "{762, 67}";
type = Stem;
},
{
place = "{76, 94}";
type = Stem;
},
{
place = "{520, 94}";
type = Stem;
}
);
layerId = "5BF74C62-CA98-4714-A2D2-DE21E3561B55";
paths = (
{
closed = 1;
nodes = (
"76 279 LINE SMOOTH",
"76 84 OFFCURVE",
"151 -12 OFFCURVE",
"345 -12 CURVE SMOOTH",
"540 -12 OFFCURVE",
"614 84 OFFCURVE",
"614 279 CURVE SMOOTH",
"614 668 LINE",
"520 668 LINE",
"520 272 LINE SMOOTH",
"520 140 OFFCURVE",
"473 69 OFFCURVE",
"345 69 CURVE SMOOTH",
"217 69 OFFCURVE",
"170 140 OFFCURVE",
"170 272 CURVE SMOOTH",
"170 668 LINE",
"76 668 LINE"
);
},
{
closed = 1;
nodes = (
"483 762 LINE",
"483 829 LINE",
"207 829 LINE",
"207 762 LINE"
);
}
);
width = 620;
}
);
note = Umacron;
unicode = 016A;
},
{
glyphname = Uogonek;
lastChange = "2021-12-02 21:20:44 +0000";
layers = (
{
hints = (
{
horizontal = 1;
place = "{-173, 58}";
type = Stem;
},
{
horizontal = 1;
place = "{-11, 80}";
type = Stem;
},
{
horizontal = 1;
place = "{668, -20}";
target = down;
type = TopGhost;
},
{
place = "{76, 94}";
type = Stem;
},
{
place = "{267, 70}";
type = Stem;
},
{
place = "{520, 94}";
type = Stem;
}
);
layerId = "5BF74C62-CA98-4714-A2D2-DE21E3561B55";
paths = (
{
closed = 1;
nodes = (
"76 279 LINE SMOOTH",
"76 97 OFFCURVE",
"141 1 OFFCURVE",
"307 -11 CURVE",
"286 -27 OFFCURVE",
"267 -53 OFFCURVE",
"267 -91 CURVE SMOOTH",
"267 -134 OFFCURVE",
"301 -173 OFFCURVE",
"361 -173 CURVE SMOOTH",
"380 -173 OFFCURVE",
"401 -169 OFFCURVE",
"424 -161 CURVE",
"424 -107 LINE",
"411 -113 OFFCURVE",
"398 -115 OFFCURVE",
"386 -115 CURVE SMOOTH",
"358 -115 OFFCURVE",
"337 -102 OFFCURVE",
"337 -74 CURVE SMOOTH",
"337 -45 OFFCURVE",
"359 -26 OFFCURVE",
"400 -9 CURVE",
"554 8 OFFCURVE",
"614 104 OFFCURVE",
"614 279 CURVE SMOOTH",
"614 668 LINE",
"520 668 LINE",
"520 272 LINE SMOOTH",
"520 140 OFFCURVE",
"473 69 OFFCURVE",
"345 69 CURVE SMOOTH",
"217 69 OFFCURVE",
"170 140 OFFCURVE",
"170 272 CURVE SMOOTH",
"170 668 LINE",
"76 668 LINE"
);
}
);
width = 620;
}
);
note = Uogonek;
unicode = 0172;
},
{
glyphname = Uring;
lastChange = "2021-12-02 21:20:44 +0000";
layers = (
{
hints = (
{
horizontal = 1;
place = "{-12, 81}";
type = Stem;
},
{
horizontal = 1;
place = "{668, -20}";
target = down;
type = TopGhost;
},
{
horizontal = 1;
place = "{828, 58}";
type = Stem;
},
{
place = "{76, 94}";
type = Stem;
},
{
place = "{236, 57}";
type = Stem;
},
{
place = "{397, 57}";
type = Stem;
},
{
place = "{520, 94}";
type = Stem;
},
{
horizontal = 1;
place = "{668, 58}";
type = Stem;
}
);
layerId = "5BF74C62-CA98-4714-A2D2-DE21E3561B55";
paths = (
{
closed = 1;
nodes = (
"540 -12 OFFCURVE",
"614 84 OFFCURVE",
"614 279 CURVE SMOOTH",
"614 668 LINE",
"520 668 LINE",
"520 272 LINE SMOOTH",
"520 140 OFFCURVE",
"473 69 OFFCURVE",
"345 69 CURVE SMOOTH",
"217 69 OFFCURVE",
"170 140 OFFCURVE",
"170 272 CURVE SMOOTH",
"170 668 LINE",
"76 668 LINE",
"76 279 LINE SMOOTH",
"76 84 OFFCURVE",
"151 -12 OFFCURVE",
"345 -12 CURVE SMOOTH"
);
},
{
closed = 1;
nodes = (
"236 718 OFFCURVE",
"285 668 OFFCURVE",
"347 668 CURVE SMOOTH",
"408 668 OFFCURVE",
"454 718 OFFCURVE",
"454 777 CURVE SMOOTH",
"454 836 OFFCURVE",
"408 886 OFFCURVE",
"347 886 CURVE SMOOTH",
"285 886 OFFCURVE",
"236 836 OFFCURVE",
"236 777 CURVE SMOOTH"
);
},
{
closed = 1;
nodes = (
"293 805 OFFCURVE",
"316 828 OFFCURVE",
"345 828 CURVE SMOOTH",
"374 828 OFFCURVE",
"397 805 OFFCURVE",
"397 777 CURVE SMOOTH",
"397 749 OFFCURVE",
"374 726 OFFCURVE",
"345 726 CURVE SMOOTH",
"316 726 OFFCURVE",
"293 749 OFFCURVE",
"293 777 CURVE SMOOTH"
);
}
);
width = 620;
}
);
note = Uring;
unicode = 016E;
},
{
glyphname = V;
lastChange = "2021-12-03 12:17:42 +0000";
layers = (
{
layerId = "5BF74C62-CA98-4714-A2D2-DE21E3561B55";
paths = (
{
closed = 1;
nodes = (
"36 668 LINE",
"255 0 LINE",
"365 0 LINE",
"585 668 LINE",
"482 668 LINE",
"310 120 LINE",
"139 668 LINE"
);
}
);
width = 620;
}
);
note = V;
unicode = 0056;
},
{
glyphname = W;
lastChange = "2021-12-03 16:23:22 +0000";
layers = (
{
layerId = "5BF74C62-CA98-4714-A2D2-DE21E3561B55";
paths = (
{
closed = 1;
nodes = (
"128 0 LINE",
"221 0 LINE",
"300 482 LINE",
"379 0 LINE",
"473 0 LINE",
"590 668 LINE",
"507 668 LINE",
"429 166 LINE",
"340 668 LINE",
"260 668 LINE",
"171 166 LINE",
"93 668 LINE",
"10 668 LINE"
);
}
);
width = 620;
}
);
note = W;
unicode = 0057;
},
{
glyphname = X;
lastChange = "2021-12-03 12:19:18 +0000";
layers = (
{
layerId = "5BF74C62-CA98-4714-A2D2-DE21E3561B55";
paths = (
{
closed = 1;
nodes = (
"10 0 LINE",
"123 0 LINE",
"311 265 LINE",
"500 0 LINE",
"613 0 LINE",
"368 344 LINE",
"599 668 LINE",
"486 668 LINE",
"311 423 LINE",
"136 668 LINE",
"24 668 LINE",
"255 344 LINE"
);
}
);
width = 620;
}
);
note = X;
unicode = 0058;
},
{
glyphname = Y;
lastChange = "2021-12-03 12:19:31 +0000";
layers = (
{
layerId = "5BF74C62-CA98-4714-A2D2-DE21E3561B55";
paths = (
{
closed = 1;
nodes = (
"23 668 LINE",
"264 259 LINE",
"264 0 LINE",
"358 0 LINE",
"358 259 LINE",
"598 668 LINE",
"495 668 LINE",
"311 345 LINE",
"126 668 LINE"
);
}
);
width = 620;
}
);
leftKerningGroup = Y;
note = Y;
rightKerningGroup = Y;
unicode = 0059;
},
{
glyphname = Yacute;
lastChange = "2021-12-02 21:20:44 +0000";
layers = (
{
hints = (
{
horizontal = 1;
place = "{0, 21}";
target = up;
type = BottomGhost;
},
{
horizontal = 1;
place = "{668, -20}";
target = down;
type = TopGhost;
},
{
place = "{251, 94}";
type = Stem;
}
);
layerId = "5BF74C62-CA98-4714-A2D2-DE21E3561B55";
paths = (
{
closed = 1;
nodes = (
"251 259 LINE",
"251 0 LINE",
"345 0 LINE",
"345 259 LINE",
"585 668 LINE",
"482 668 LINE",
"298 345 LINE",
"113 668 LINE",
"10 668 LINE"
);
},
{
closed = 1;
nodes = (
"334 744 LINE",
"340 748 OFFCURVE",
"397 781 OFFCURVE",
"414 796 CURVE",
"425 805 OFFCURVE",
"430 817 OFFCURVE",
"430 828 CURVE SMOOTH",
"430 848 OFFCURVE",
"414 864 OFFCURVE",
"394 864 CURVE SMOOTH",
"384 864 OFFCURVE",
"374 860 OFFCURVE",
"365 852 CURVE",
"348 838 OFFCURVE",
"267 753 OFFCURVE",
"258 744 CURVE"
);
}
);
width = 620;
}
);
leftKerningGroup = Y;
note = Yacute;
rightKerningGroup = Y;
unicode = 00DD;
},
{
glyphname = Ydieresis;
lastChange = "2021-12-02 21:20:44 +0000";
layers = (
{
hints = (
{
horizontal = 1;
place = "{0, 21}";
target = up;
type = BottomGhost;
},
{
horizontal = 1;
place = "{668, -20}";
target = down;
type = TopGhost;
},
{
horizontal = 1;
place = "{740, 107}";
type = Stem;
},
{
place = "{251, 94}";
type = Stem;
},
{
place = "{138, 108}";
type = Stem;
},
{
place = "{350, 107}";
type = Stem;
}
);
layerId = "5BF74C62-CA98-4714-A2D2-DE21E3561B55";
paths = (
{
closed = 1;
nodes = (
"251 259 LINE",
"251 0 LINE",
"345 0 LINE",
"345 259 LINE",
"585 668 LINE",
"482 668 LINE",
"298 345 LINE",
"113 668 LINE",
"10 668 LINE"
);
},
{
closed = 1;
nodes = (
"222 740 OFFCURVE",
"246 764 OFFCURVE",
"246 794 CURVE SMOOTH",
"246 823 OFFCURVE",
"222 847 OFFCURVE",
"192 847 CURVE SMOOTH",
"162 847 OFFCURVE",
"138 823 OFFCURVE",
"138 794 CURVE SMOOTH",
"138 764 OFFCURVE",
"162 740 OFFCURVE",
"192 740 CURVE SMOOTH"
);
},
{
closed = 1;
nodes = (
"433 740 OFFCURVE",
"457 764 OFFCURVE",
"457 794 CURVE SMOOTH",
"457 823 OFFCURVE",
"433 847 OFFCURVE",
"403 847 CURVE SMOOTH",
"374 847 OFFCURVE",
"350 823 OFFCURVE",
"350 794 CURVE SMOOTH",
"350 764 OFFCURVE",
"374 740 OFFCURVE",
"403 740 CURVE SMOOTH"
);
}
);
width = 620;
}
);
leftKerningGroup = Y;
note = Ydieresis;
rightKerningGroup = Y;
unicode = 0178;
},
{
glyphname = Z;
lastChange = "2021-12-03 12:19:50 +0000";
layers = (
{
layerId = "5BF74C62-CA98-4714-A2D2-DE21E3561B55";
paths = (
{
closed = 1;
nodes = (
"50 0 LINE",
"569 0 LINE",
"569 81 LINE",
"162 81 LINE",
"554 587 LINE",
"554 668 LINE",
"65 668 LINE",
"65 587 LINE",
"444 587 LINE",
"50 81 LINE"
);
}
);
width = 620;
}
);
leftKerningGroup = Z;
note = Z;
rightKerningGroup = Z;
unicode = 005A;
},
{
glyphname = Zacute;
lastChange = "2021-12-02 21:20:44 +0000";
layers = (
{
hints = (
{
horizontal = 1;
place = "{0, 81}";
type = Stem;
},
{
horizontal = 1;
place = "{587, 81}";
type = Stem;
},
{
horizontal = 1;
place = "{744, 120}";
type = Stem;
},
{
place = "{44, 519}";
type = Stem;
}
);
layerId = "5BF74C62-CA98-4714-A2D2-DE21E3561B55";
paths = (
{
closed = 1;
nodes = (
"44 0 LINE",
"563 0 LINE",
"563 81 LINE",
"156 81 LINE",
"548 587 LINE",
"548 668 LINE",
"59 668 LINE",
"59 587 LINE",
"438 587 LINE",
"44 81 LINE"
);
},
{
closed = 1;
nodes = (
"314 744 LINE",
"320 748 OFFCURVE",
"377 781 OFFCURVE",
"394 796 CURVE",
"405 805 OFFCURVE",
"410 817 OFFCURVE",
"410 828 CURVE SMOOTH",
"410 848 OFFCURVE",
"394 864 OFFCURVE",
"374 864 CURVE SMOOTH",
"364 864 OFFCURVE",
"354 860 OFFCURVE",
"345 852 CURVE",
"328 838 OFFCURVE",
"247 753 OFFCURVE",
"238 744 CURVE"
);
}
);
width = 620;
}
);
note = Zacute;
rightKerningGroup = Z;
unicode = 0179;
},
{
glyphname = Zcaron;
lastChange = "2021-12-02 21:20:44 +0000";
layers = (
{
hints = (
{
horizontal = 1;
place = "{0, 81}";
type = Stem;
},
{
horizontal = 1;
place = "{587, 81}";
type = Stem;
},
{
horizontal = 1;
place = "{741, 120}";
type = Stem;
},
{
place = "{44, 519}";
type = Stem;
}
);
layerId = "5BF74C62-CA98-4714-A2D2-DE21E3561B55";
paths = (
{
closed = 1;
nodes = (
"44 0 LINE",
"563 0 LINE",
"563 81 LINE",
"156 81 LINE",
"548 587 LINE",
"548 668 LINE",
"59 668 LINE",
"59 587 LINE",
"438 587 LINE",
"44 81 LINE"
);
},
{
closed = 1;
nodes = (
"142 861 LINE",
"254 760 LINE SMOOTH",
"268 747 OFFCURVE",
"286 741 OFFCURVE",
"304 741 CURVE SMOOTH",
"321 741 OFFCURVE",
"339 747 OFFCURVE",
"353 760 CURVE SMOOTH",
"465 861 LINE",
"371 861 LINE",
"303 800 LINE",
"236 861 LINE"
);
}
);
width = 620;
}
);
leftKerningGroup = Z;
note = Zcaron;
rightKerningGroup = Z;
unicode = 017D;
},
{
glyphname = Zdotaccent;
lastChange = "2021-12-02 21:20:44 +0000";
layers = (
{
hints = (
{
horizontal = 1;
place = "{0, 81}";
type = Stem;
},
{
horizontal = 1;
place = "{587, 81}";
type = Stem;
},
{
horizontal = 1;
place = "{745, 108}";
type = Stem;
},
{
place = "{250, 108}";
type = Stem;
}
);
layerId = "5BF74C62-CA98-4714-A2D2-DE21E3561B55";
paths = (
{
closed = 1;
nodes = (
"44 0 LINE",
"563 0 LINE",
"563 81 LINE",
"156 81 LINE",
"548 587 LINE",
"548 668 LINE",
"59 668 LINE",
"59 587 LINE",
"438 587 LINE",
"44 81 LINE"
);
},
{
closed = 1;
nodes = (
"250 769 OFFCURVE",
"274 745 OFFCURVE",
"304 745 CURVE SMOOTH",
"334 745 OFFCURVE",
"358 769 OFFCURVE",
"358 799 CURVE SMOOTH",
"358 829 OFFCURVE",
"334 853 OFFCURVE",
"304 853 CURVE SMOOTH",
"274 853 OFFCURVE",
"250 829 OFFCURVE",
"250 799 CURVE SMOOTH"
);
}
);
width = 620;
}
);
note = Zdotaccent;
rightKerningGroup = Z;
unicode = 017B;
},
{
glyphname = a;
lastChange = "2021-12-02 21:35:07 +0000";
layers = (
{
layerId = "5BF74C62-CA98-4714-A2D2-DE21E3561B55";
paths = (
{
closed = 1;
nodes = (
"343 -12 OFFCURVE",
"415 18 OFFCURVE",
"445 68 CURVE",
"465 0 LINE",
"542 0 LINE",
"533 47 OFFCURVE",
"526 104 OFFCURVE",
"525 187 CURVE SMOOTH",
"524 303 LINE SMOOTH",
"523 442 OFFCURVE",
"444 504 OFFCURVE",
"307 504 CURVE SMOOTH",
"218 504 OFFCURVE",
"134 460 OFFCURVE",
"107 384 CURVE",
"188 360 LINE",
"199 408 OFFCURVE",
"248 437 OFFCURVE",
"308 437 CURVE SMOOTH",
"388 437 OFFCURVE",
"443 390 OFFCURVE",
"440 306 CURVE",
"237 283 OFFCURVE",
"86 249 OFFCURVE",
"86 131 CURVE SMOOTH",
"86 40 OFFCURVE",
"162 -12 OFFCURVE",
"256 -12 CURVE SMOOTH"
);
},
{
closed = 1;
nodes = (
"447 208 LINE SMOOTH",
"447 91 OFFCURVE",
"352 55 OFFCURVE",
"274 55 CURVE SMOOTH",
"214 55 OFFCURVE",
"159 78 OFFCURVE",
"159 131 CURVE SMOOTH",
"159 199 OFFCURVE",
"295 223 OFFCURVE",
"447 239 CURVE"
);
}
);
width = 620;
}
);
leftKerningGroup = a;
note = a;
unicode = 0061;
},
{
glyphname = aacute;
lastChange = "2021-12-02 21:20:44 +0000";
layers = (
{
hints = (
{
horizontal = 1;
place = "{-12, 67}";
type = Stem;
},
{
horizontal = 1;
place = "{437, 67}";
type = Stem;
},
{
horizontal = 1;
place = "{571, 136}";
type = Stem;
},
{
place = "{38, 93}";
type = Stem;
},
{
place = "{373, 84}";
type = Stem;
},
{
horizontal = 1;
place = "{0, 21}";
target = up;
type = BottomGhost;
},
{
place = "{380, 77}";
type = Stem;
}
);
layerId = "5BF74C62-CA98-4714-A2D2-DE21E3561B55";
paths = (
{
closed = 1;
nodes = (
"38 40 OFFCURVE",
"115 -12 OFFCURVE",
"209 -12 CURVE SMOOTH",
"296 -12 OFFCURVE",
"348 18 OFFCURVE",
"378 68 CURVE",
"398 0 LINE",
"475 0 LINE",
"466 47 OFFCURVE",
"459 104 OFFCURVE",
"458 187 CURVE SMOOTH",
"457 303 LINE SMOOTH",
"456 442 OFFCURVE",
"397 504 OFFCURVE",
"260 504 CURVE SMOOTH",
"171 504 OFFCURVE",
"97 460 OFFCURVE",
"70 384 CURVE",
"151 360 LINE",
"162 408 OFFCURVE",
"201 437 OFFCURVE",
"261 437 CURVE SMOOTH",
"341 437 OFFCURVE",
"376 390 OFFCURVE",
"373 306 CURVE",
"170 283 OFFCURVE",
"38 249 OFFCURVE",
"38 131 CURVE SMOOTH"
);
},
{
closed = 1;
nodes = (
"131 201 OFFCURVE",
"228 223 OFFCURVE",
"380 239 CURVE",
"380 208 LINE SMOOTH",
"380 91 OFFCURVE",
"305 55 OFFCURVE",
"227 55 CURVE SMOOTH",
"167 55 OFFCURVE",
"131 86 OFFCURVE",
"131 133 CURVE SMOOTH"
);
},
{
closed = 1;
nodes = (
"292 571 LINE",
"298 576 OFFCURVE",
"356 624 OFFCURVE",
"371 641 CURVE",
"381 651 OFFCURVE",
"384 660 OFFCURVE",
"384 669 CURVE SMOOTH",
"384 680 OFFCURVE",
"380 690 OFFCURVE",
"372 697 CURVE",
"365 704 OFFCURVE",
"355 707 OFFCURVE",
"346 707 CURVE SMOOTH",
"336 707 OFFCURVE",
"325 703 OFFCURVE",
"318 694 CURVE",
"300 675 OFFCURVE",
"230 581 OFFCURVE",
"222 571 CURVE"
);
}
);
width = 620;
}
);
leftKerningGroup = a;
note = aacute;
rightKerningGroup = h;
unicode = 00E1;
},
{
glyphname = abreve;
lastChange = "2021-12-02 21:20:44 +0000";
layers = (
{
hints = (
{
horizontal = 1;
place = "{0, 21}";
target = up;
type = BottomGhost;
},
{
horizontal = 1;
place = "{437, 67}";
type = Stem;
},
{
horizontal = 1;
place = "{569, 67}";
type = Stem;
},
{
place = "{38, 93}";
type = Stem;
},
{
place = "{373, 84}";
type = Stem;
},
{
place = "{380, 77}";
type = Stem;
},
{
horizontal = 1;
place = "{-12, 67}";
type = Stem;
}
);
layerId = "5BF74C62-CA98-4714-A2D2-DE21E3561B55";
paths = (
{
closed = 1;
nodes = (
"398 0 LINE",
"475 0 LINE",
"466 47 OFFCURVE",
"459 104 OFFCURVE",
"458 187 CURVE SMOOTH",
"457 303 LINE SMOOTH",
"456 442 OFFCURVE",
"397 504 OFFCURVE",
"260 504 CURVE SMOOTH",
"171 504 OFFCURVE",
"97 460 OFFCURVE",
"70 384 CURVE",
"151 360 LINE",
"162 408 OFFCURVE",
"201 437 OFFCURVE",
"261 437 CURVE SMOOTH",
"341 437 OFFCURVE",
"376 390 OFFCURVE",
"373 306 CURVE",
"170 283 OFFCURVE",
"38 249 OFFCURVE",
"38 131 CURVE SMOOTH",
"38 40 OFFCURVE",
"115 -12 OFFCURVE",
"209 -12 CURVE SMOOTH",
"296 -12 OFFCURVE",
"348 18 OFFCURVE",
"378 68 CURVE"
);
},
{
closed = 1;
nodes = (
"380 208 LINE SMOOTH",
"380 91 OFFCURVE",
"305 55 OFFCURVE",
"227 55 CURVE SMOOTH",
"167 55 OFFCURVE",
"131 86 OFFCURVE",
"131 133 CURVE SMOOTH",
"131 201 OFFCURVE",
"228 223 OFFCURVE",
"380 239 CURVE"
);
},
{
closed = 1;
nodes = (
"339 689 LINE",
"326 658 OFFCURVE",
"296 636 OFFCURVE",
"261 636 CURVE SMOOTH",
"225 636 OFFCURVE",
"195 658 OFFCURVE",
"183 689 CURVE",
"114 689 LINE",
"128 621 OFFCURVE",
"188 569 OFFCURVE",
"261 569 CURVE SMOOTH",
"333 569 OFFCURVE",
"394 621 OFFCURVE",
"408 689 CURVE"
);
}
);
width = 620;
}
);
leftKerningGroup = a;
note = abreve;
rightKerningGroup = h;
unicode = 0103;
},
{
glyphname = acircumflex;
lastChange = "2021-12-02 21:20:44 +0000";
layers = (
{
hints = (
{
horizontal = 1;
place = "{-12, 67}";
type = Stem;
},
{
horizontal = 1;
place = "{437, 67}";
type = Stem;
},
{
horizontal = 1;
place = "{575, 120}";
type = Stem;
},
{
place = "{38, 93}";
type = Stem;
},
{
place = "{373, 84}";
type = Stem;
},
{
horizontal = 1;
place = "{0, 21}";
target = up;
type = BottomGhost;
},
{
place = "{380, 77}";
type = Stem;
}
);
layerId = "5BF74C62-CA98-4714-A2D2-DE21E3561B55";
paths = (
{
closed = 1;
nodes = (
"296 -12 OFFCURVE",
"348 18 OFFCURVE",
"378 68 CURVE",
"398 0 LINE",
"475 0 LINE",
"466 47 OFFCURVE",
"459 104 OFFCURVE",
"458 187 CURVE SMOOTH",
"457 303 LINE SMOOTH",
"456 442 OFFCURVE",
"397 504 OFFCURVE",
"260 504 CURVE SMOOTH",
"171 504 OFFCURVE",
"97 460 OFFCURVE",
"70 384 CURVE",
"151 360 LINE",
"162 408 OFFCURVE",
"201 437 OFFCURVE",
"261 437 CURVE SMOOTH",
"341 437 OFFCURVE",
"376 390 OFFCURVE",
"373 306 CURVE",
"170 283 OFFCURVE",
"38 249 OFFCURVE",
"38 131 CURVE SMOOTH",
"38 40 OFFCURVE",
"115 -12 OFFCURVE",
"209 -12 CURVE SMOOTH"
);
},
{
closed = 1;
nodes = (
"131 201 OFFCURVE",
"228 223 OFFCURVE",
"380 239 CURVE",
"380 208 LINE SMOOTH",
"380 91 OFFCURVE",
"305 55 OFFCURVE",
"227 55 CURVE SMOOTH",
"167 55 OFFCURVE",
"131 86 OFFCURVE",
"131 133 CURVE SMOOTH"
);
},
{
closed = 1;
nodes = (
"104 575 LINE",
"198 575 LINE",
"265 636 LINE",
"333 575 LINE",
"427 575 LINE",
"315 676 LINE SMOOTH",
"301 689 OFFCURVE",
"283 695 OFFCURVE",
"266 695 CURVE SMOOTH",
"248 695 OFFCURVE",
"230 689 OFFCURVE",
"216 676 CURVE SMOOTH"
);
}
);
width = 620;
}
);
leftKerningGroup = a;
note = acircumflex;
rightKerningGroup = h;
unicode = 00E2;
},
{
glyphname = adieresis;
lastChange = "2021-12-02 21:20:44 +0000";
layers = (
{
hints = (
{
horizontal = 1;
place = "{-12, 67}";
type = Stem;
},
{
horizontal = 1;
place = "{437, 67}";
type = Stem;
},
{
horizontal = 1;
place = "{590, 107}";
type = Stem;
},
{
place = "{105, 108}";
type = Stem;
},
{
place = "{373, 84}";
type = Stem;
},
{
horizontal = 1;
place = "{0, 21}";
target = up;
type = BottomGhost;
},
{
place = "{38, 93}";
type = Stem;
},
{
place = "{380, 77}";
type = Stem;
},
{
place = "{317, 107}";
type = Stem;
}
);
layerId = "5BF74C62-CA98-4714-A2D2-DE21E3561B55";
paths = (
{
closed = 1;
nodes = (
"296 -12 OFFCURVE",
"348 18 OFFCURVE",
"378 68 CURVE",
"398 0 LINE",
"475 0 LINE",
"466 47 OFFCURVE",
"459 104 OFFCURVE",
"458 187 CURVE SMOOTH",
"457 303 LINE SMOOTH",
"456 442 OFFCURVE",
"397 504 OFFCURVE",
"260 504 CURVE SMOOTH",
"171 504 OFFCURVE",
"97 460 OFFCURVE",
"70 384 CURVE",
"151 360 LINE",
"162 408 OFFCURVE",
"201 437 OFFCURVE",
"261 437 CURVE SMOOTH",
"341 437 OFFCURVE",
"376 390 OFFCURVE",
"373 306 CURVE",
"170 283 OFFCURVE",
"38 249 OFFCURVE",
"38 131 CURVE SMOOTH",
"38 40 OFFCURVE",
"115 -12 OFFCURVE",
"209 -12 CURVE SMOOTH"
);
},
{
closed = 1;
nodes = (
"131 201 OFFCURVE",
"228 223 OFFCURVE",
"380 239 CURVE",
"380 208 LINE SMOOTH",
"380 91 OFFCURVE",
"305 55 OFFCURVE",
"227 55 CURVE SMOOTH",
"167 55 OFFCURVE",
"131 86 OFFCURVE",
"131 133 CURVE SMOOTH"
);
},
{
closed = 1;
nodes = (
"105 614 OFFCURVE",
"129 590 OFFCURVE",
"159 590 CURVE SMOOTH",
"189 590 OFFCURVE",
"213 614 OFFCURVE",
"213 644 CURVE SMOOTH",
"213 673 OFFCURVE",
"189 697 OFFCURVE",
"159 697 CURVE SMOOTH",
"129 697 OFFCURVE",
"105 673 OFFCURVE",
"105 644 CURVE SMOOTH"
);
},
{
closed = 1;
nodes = (
"400 590 OFFCURVE",
"424 614 OFFCURVE",
"424 644 CURVE SMOOTH",
"424 673 OFFCURVE",
"400 697 OFFCURVE",
"370 697 CURVE SMOOTH",
"341 697 OFFCURVE",
"317 673 OFFCURVE",
"317 644 CURVE SMOOTH",
"317 614 OFFCURVE",
"341 590 OFFCURVE",
"370 590 CURVE SMOOTH"
);
}
);
width = 620;
}
);
leftKerningGroup = a;
note = adieresis;
rightKerningGroup = h;
unicode = 00E4;
},
{
glyphname = agrave;
lastChange = "2021-12-02 21:20:44 +0000";
layers = (
{
hints = (
{
horizontal = 1;
place = "{-12, 67}";
type = Stem;
},
{
horizontal = 1;
place = "{437, 67}";
type = Stem;
},
{
horizontal = 1;
place = "{571, 136}";
type = Stem;
},
{
place = "{38, 93}";
type = Stem;
},
{
place = "{373, 84}";
type = Stem;
},
{
horizontal = 1;
place = "{0, 21}";
target = up;
type = BottomGhost;
},
{
place = "{380, 77}";
type = Stem;
}
);
layerId = "5BF74C62-CA98-4714-A2D2-DE21E3561B55";
paths = (
{
closed = 1;
nodes = (
"38 40 OFFCURVE",
"115 -12 OFFCURVE",
"209 -12 CURVE SMOOTH",
"296 -12 OFFCURVE",
"348 18 OFFCURVE",
"378 68 CURVE",
"398 0 LINE",
"475 0 LINE",
"466 47 OFFCURVE",
"459 104 OFFCURVE",
"458 187 CURVE SMOOTH",
"457 303 LINE SMOOTH",
"456 442 OFFCURVE",
"397 504 OFFCURVE",
"260 504 CURVE SMOOTH",
"171 504 OFFCURVE",
"97 460 OFFCURVE",
"70 384 CURVE",
"151 360 LINE",
"162 408 OFFCURVE",
"201 437 OFFCURVE",
"261 437 CURVE SMOOTH",
"341 437 OFFCURVE",
"376 390 OFFCURVE",
"373 306 CURVE",
"170 283 OFFCURVE",
"38 249 OFFCURVE",
"38 131 CURVE SMOOTH"
);
},
{
closed = 1;
nodes = (
"380 208 LINE SMOOTH",
"380 91 OFFCURVE",
"305 55 OFFCURVE",
"227 55 CURVE SMOOTH",
"167 55 OFFCURVE",
"131 86 OFFCURVE",
"131 133 CURVE SMOOTH",
"131 201 OFFCURVE",
"228 223 OFFCURVE",
"380 239 CURVE"
);
},
{
closed = 1;
nodes = (
"139 660 OFFCURVE",
"142 651 OFFCURVE",
"156 636 CURVE SMOOTH",
"174 617 OFFCURVE",
"205 592 OFFCURVE",
"231 571 CURVE",
"301 571 LINE",
"208 692 LINE SMOOTH",
"199 704 OFFCURVE",
"188 707 OFFCURVE",
"177 707 CURVE SMOOTH",
"156 707 OFFCURVE",
"139 690 OFFCURVE",
"139 669 CURVE SMOOTH"
);
}
);
width = 620;
}
);
leftKerningGroup = a;
note = agrave;
rightKerningGroup = h;
unicode = 00E0;
},
{
glyphname = amacron;
lastChange = "2021-12-02 21:20:44 +0000";
layers = (
{
hints = (
{
horizontal = 1;
place = "{-12, 67}";
type = Stem;
},
{
horizontal = 1;
place = "{437, 67}";
type = Stem;
},
{
horizontal = 1;
place = "{601, 67}";
type = Stem;
},
{
place = "{38, 93}";
type = Stem;
},
{
place = "{373, 84}";
type = Stem;
},
{
horizontal = 1;
place = "{0, 21}";
target = up;
type = BottomGhost;
},
{
place = "{380, 77}";
type = Stem;
},
{
place = "{127, 276}";
type = Stem;
}
);
layerId = "5BF74C62-CA98-4714-A2D2-DE21E3561B55";
paths = (
{
closed = 1;
nodes = (
"38 40 OFFCURVE",
"115 -12 OFFCURVE",
"209 -12 CURVE SMOOTH",
"296 -12 OFFCURVE",
"348 18 OFFCURVE",
"378 68 CURVE",
"398 0 LINE",
"475 0 LINE",
"466 47 OFFCURVE",
"459 104 OFFCURVE",
"458 187 CURVE SMOOTH",
"457 303 LINE SMOOTH",
"456 442 OFFCURVE",
"397 504 OFFCURVE",
"260 504 CURVE SMOOTH",
"171 504 OFFCURVE",
"97 460 OFFCURVE",
"70 384 CURVE",
"151 360 LINE",
"162 408 OFFCURVE",
"201 437 OFFCURVE",
"261 437 CURVE SMOOTH",
"341 437 OFFCURVE",
"376 390 OFFCURVE",
"373 306 CURVE",
"170 283 OFFCURVE",
"38 249 OFFCURVE",
"38 131 CURVE SMOOTH"
);
},
{
closed = 1;
nodes = (
"131 201 OFFCURVE",
"228 223 OFFCURVE",
"380 239 CURVE",
"380 208 LINE SMOOTH",
"380 91 OFFCURVE",
"305 55 OFFCURVE",
"227 55 CURVE SMOOTH",
"167 55 OFFCURVE",
"131 86 OFFCURVE",
"131 133 CURVE SMOOTH"
);
},
{
closed = 1;
nodes = (
"127 668 LINE",
"127 601 LINE",
"403 601 LINE",
"403 668 LINE"
);
}
);
width = 620;
}
);
leftKerningGroup = a;
note = amacron;
rightKerningGroup = h;
unicode = 0101;
},
{
glyphname = aogonek;
lastChange = "2021-12-02 21:20:44 +0000";
layers = (
{
hints = (
{
horizontal = 1;
place = "{-173, 58}";
type = Stem;
},
{
horizontal = 1;
place = "{-12, 67}";
type = Stem;
},
{
horizontal = 1;
place = "{437, 67}";
type = Stem;
},
{
place = "{38, 93}";
type = Stem;
},
{
place = "{373, 84}";
type = Stem;
},
{
horizontal = 1;
place = "{0, 21}";
target = up;
type = BottomGhost;
},
{
place = "{318, 70}";
type = Stem;
},
{
place = "{380, 77}";
type = Stem;
}
);
layerId = "5BF74C62-CA98-4714-A2D2-DE21E3561B55";
paths = (
{
closed = 1;
nodes = (
"38 40 OFFCURVE",
"115 -12 OFFCURVE",
"209 -12 CURVE SMOOTH",
"296 -12 OFFCURVE",
"348 18 OFFCURVE",
"378 68 CURVE",
"398 0 LINE",
"349 -12 OFFCURVE",
"318 -50 OFFCURVE",
"318 -91 CURVE SMOOTH",
"318 -134 OFFCURVE",
"352 -173 OFFCURVE",
"412 -173 CURVE SMOOTH",
"431 -173 OFFCURVE",
"452 -169 OFFCURVE",
"475 -161 CURVE",
"475 -107 LINE",
"462 -113 OFFCURVE",
"449 -115 OFFCURVE",
"437 -115 CURVE SMOOTH",
"409 -115 OFFCURVE",
"388 -102 OFFCURVE",
"388 -75 CURVE SMOOTH",
"388 -50 OFFCURVE",
"407 -25 OFFCURVE",
"475 0 CURVE",
"466 47 OFFCURVE",
"459 104 OFFCURVE",
"458 187 CURVE SMOOTH",
"457 303 LINE SMOOTH",
"456 442 OFFCURVE",
"397 504 OFFCURVE",
"260 504 CURVE SMOOTH",
"171 504 OFFCURVE",
"97 460 OFFCURVE",
"70 384 CURVE",
"151 360 LINE",
"162 408 OFFCURVE",
"201 437 OFFCURVE",
"261 437 CURVE SMOOTH",
"341 437 OFFCURVE",
"376 390 OFFCURVE",
"373 306 CURVE",
"170 283 OFFCURVE",
"38 249 OFFCURVE",
"38 131 CURVE SMOOTH"
);
},
{
closed = 1;
nodes = (
"131 201 OFFCURVE",
"228 223 OFFCURVE",
"380 239 CURVE",
"380 208 LINE SMOOTH",
"380 91 OFFCURVE",
"305 55 OFFCURVE",
"227 55 CURVE SMOOTH",
"167 55 OFFCURVE",
"131 86 OFFCURVE",
"131 133 CURVE SMOOTH"
);
}
);
width = 620;
}
);
leftKerningGroup = a;
note = aogonek;
rightKerningGroup = h;
unicode = 0105;
},
{
glyphname = aring;
lastChange = "2021-12-02 21:20:44 +0000";
layers = (
{
hints = (
{
horizontal = 1;
place = "{-12, 67}";
type = Stem;
},
{
horizontal = 1;
place = "{437, 67}";
type = Stem;
},
{
horizontal = 1;
place = "{559, 58}";
type = Stem;
},
{
horizontal = 1;
place = "{719, 58}";
type = Stem;
},
{
place = "{38, 93}";
type = Stem;
},
{
place = "{156, 57}";
type = Stem;
},
{
place = "{373, 84}";
type = Stem;
},
{
horizontal = 1;
place = "{0, 21}";
target = up;
type = BottomGhost;
},
{
place = "{317, 57}";
type = Stem;
},
{
place = "{380, 77}";
type = Stem;
}
);
layerId = "5BF74C62-CA98-4714-A2D2-DE21E3561B55";
paths = (
{
closed = 1;
nodes = (
"38 40 OFFCURVE",
"115 -12 OFFCURVE",
"209 -12 CURVE SMOOTH",
"296 -12 OFFCURVE",
"348 18 OFFCURVE",
"378 68 CURVE",
"398 0 LINE",
"475 0 LINE",
"466 47 OFFCURVE",
"459 104 OFFCURVE",
"458 187 CURVE SMOOTH",
"457 303 LINE SMOOTH",
"456 442 OFFCURVE",
"397 504 OFFCURVE",
"260 504 CURVE SMOOTH",
"171 504 OFFCURVE",
"97 460 OFFCURVE",
"70 384 CURVE",
"151 360 LINE",
"162 408 OFFCURVE",
"201 437 OFFCURVE",
"261 437 CURVE SMOOTH",
"341 437 OFFCURVE",
"376 390 OFFCURVE",
"373 306 CURVE",
"170 283 OFFCURVE",
"38 249 OFFCURVE",
"38 131 CURVE SMOOTH"
);
},
{
closed = 1;
nodes = (
"328 559 OFFCURVE",
"374 609 OFFCURVE",
"374 668 CURVE SMOOTH",
"374 727 OFFCURVE",
"328 777 OFFCURVE",
"267 777 CURVE SMOOTH",
"205 777 OFFCURVE",
"156 727 OFFCURVE",
"156 668 CURVE SMOOTH",
"156 609 OFFCURVE",
"205 559 OFFCURVE",
"267 559 CURVE SMOOTH"
);
},
{
closed = 1;
nodes = (
"131 201 OFFCURVE",
"228 223 OFFCURVE",
"380 239 CURVE",
"380 208 LINE SMOOTH",
"380 91 OFFCURVE",
"305 55 OFFCURVE",
"227 55 CURVE SMOOTH",
"167 55 OFFCURVE",
"131 86 OFFCURVE",
"131 133 CURVE SMOOTH"
);
},
{
closed = 1;
nodes = (
"213 696 OFFCURVE",
"236 719 OFFCURVE",
"265 719 CURVE SMOOTH",
"294 719 OFFCURVE",
"317 696 OFFCURVE",
"317 668 CURVE SMOOTH",
"317 640 OFFCURVE",
"294 617 OFFCURVE",
"265 617 CURVE SMOOTH",
"236 617 OFFCURVE",
"213 640 OFFCURVE",
"213 668 CURVE SMOOTH"
);
}
);
width = 620;
}
);
leftKerningGroup = a;
note = aring;
rightKerningGroup = h;
unicode = 00E5;
},
{
glyphname = atilde;
lastChange = "2021-12-02 21:20:44 +0000";
layers = (
{
hints = (
{
horizontal = 1;
place = "{-12, 67}";
type = Stem;
},
{
horizontal = 1;
place = "{437, 67}";
type = Stem;
},
{
horizontal = 1;
place = "{618, 63}";
type = Stem;
},
{
place = "{38, 93}";
type = Stem;
},
{
place = "{373, 84}";
type = Stem;
},
{
horizontal = 1;
place = "{0, 21}";
target = up;
type = BottomGhost;
},
{
place = "{380, 77}";
type = Stem;
},
{
horizontal = 1;
place = "{575, 63}";
type = Stem;
}
);
layerId = "5BF74C62-CA98-4714-A2D2-DE21E3561B55";
paths = (
{
closed = 1;
nodes = (
"296 -12 OFFCURVE",
"348 18 OFFCURVE",
"378 68 CURVE",
"398 0 LINE",
"475 0 LINE",
"466 47 OFFCURVE",
"459 104 OFFCURVE",
"458 187 CURVE SMOOTH",
"457 303 LINE SMOOTH",
"456 442 OFFCURVE",
"397 504 OFFCURVE",
"260 504 CURVE SMOOTH",
"171 504 OFFCURVE",
"97 460 OFFCURVE",
"70 384 CURVE",
"151 360 LINE",
"162 408 OFFCURVE",
"201 437 OFFCURVE",
"261 437 CURVE SMOOTH",
"341 437 OFFCURVE",
"376 390 OFFCURVE",
"373 306 CURVE",
"170 283 OFFCURVE",
"38 249 OFFCURVE",
"38 131 CURVE SMOOTH",
"38 40 OFFCURVE",
"115 -12 OFFCURVE",
"209 -12 CURVE SMOOTH"
);
},
{
closed = 1;
nodes = (
"131 201 OFFCURVE",
"228 223 OFFCURVE",
"380 239 CURVE",
"380 208 LINE SMOOTH",
"380 91 OFFCURVE",
"305 55 OFFCURVE",
"227 55 CURVE SMOOTH",
"167 55 OFFCURVE",
"131 86 OFFCURVE",
"131 133 CURVE SMOOTH"
);
},
{
closed = 1;
nodes = (
"164 577 LINE",
"167 603 OFFCURVE",
"182 618 OFFCURVE",
"206 618 CURVE SMOOTH",
"245 618 OFFCURVE",
"276 575 OFFCURVE",
"331 575 CURVE SMOOTH",
"394 575 OFFCURVE",
"428 627 OFFCURVE",
"428 649 CURVE SMOOTH",
"428 666 OFFCURVE",
"413 680 OFFCURVE",
"397 680 CURVE SMOOTH",
"387 680 OFFCURVE",
"376 675 OFFCURVE",
"368 661 CURVE SMOOTH",
"359 646 OFFCURVE",
"349 638 OFFCURVE",
"329 638 CURVE SMOOTH",
"287 638 OFFCURVE",
"261 681 OFFCURVE",
"205 681 CURVE SMOOTH",
"152 681 OFFCURVE",
"111 648 OFFCURVE",
"99 577 CURVE"
);
}
);
width = 620;
}
);
leftKerningGroup = a;
note = atilde;
rightKerningGroup = h;
unicode = 00E3;
},
{
glyphname = ae;
lastChange = "2021-12-02 21:20:44 +0000";
layers = (
{
hints = (
{
horizontal = 1;
place = "{-12, 66}";
type = Stem;
},
{
horizontal = 1;
place = "{225, 67}";
type = Stem;
},
{
horizontal = 1;
place = "{432, 72}";
type = Stem;
},
{
place = "{38, 93}";
type = Stem;
},
{
place = "{373, 92}";
type = Stem;
},
{
place = "{757, 88}";
type = Stem;
},
{
horizontal = 1;
place = "{-12, 74}";
type = Stem;
},
{
place = "{380, 83}";
type = Stem;
},
{
horizontal = 1;
place = "{436, 68}";
type = Stem;
}
);
layerId = "5BF74C62-CA98-4714-A2D2-DE21E3561B55";
paths = (
{
closed = 1;
nodes = (
"314 -12 OFFCURVE",
"383 31 OFFCURVE",
"417 88 CURVE",
"457 27 OFFCURVE",
"525 -12 OFFCURVE",
"617 -12 CURVE SMOOTH",
"709 -12 OFFCURVE",
"777 29 OFFCURVE",
"814 87 CURVE",
"733 111 LINE",
"709 81 OFFCURVE",
"672 62 OFFCURVE",
"617 62 CURVE SMOOTH",
"555 62 OFFCURVE",
"468 100 OFFCURVE",
"463 225 CURVE",
"845 225 LINE",
"855 366 OFFCURVE",
"773 504 OFFCURVE",
"614 504 CURVE SMOOTH",
"541 504 OFFCURVE",
"477 475 OFFCURVE",
"433 424 CURVE",
"404 478 OFFCURVE",
"347 504 OFFCURVE",
"260 504 CURVE SMOOTH",
"178 504 OFFCURVE",
"98 461 OFFCURVE",
"70 383 CURVE",
"151 359 LINE",
"162 407 OFFCURVE",
"201 436 OFFCURVE",
"261 436 CURVE SMOOTH",
"386 436 OFFCURVE",
"373 320 OFFCURVE",
"373 292 CURVE",
"185 292 OFFCURVE",
"38 250 OFFCURVE",
"38 131 CURVE SMOOTH",
"38 40 OFFCURVE",
"115 -12 OFFCURVE",
"209 -12 CURVE SMOOTH"
);
},
{
closed = 1;
nodes = (
"131 201 OFFCURVE",
"228 225 OFFCURVE",
"380 225 CURVE",
"380 209 OFFCURVE",
"396 54 OFFCURVE",
"227 54 CURVE SMOOTH",
"167 54 OFFCURVE",
"131 86 OFFCURVE",
"131 133 CURVE SMOOTH"
);
},
{
closed = 1;
nodes = (
"702 432 OFFCURVE",
"755 362 OFFCURVE",
"757 292 CURVE",
"465 292 LINE",
"472 392 OFFCURVE",
"539 432 OFFCURVE",
"614 432 CURVE SMOOTH"
);
}
);
width = 620;
}
);
leftKerningGroup = a;
note = ae;
rightKerningGroup = e;
unicode = 00E6;
},
{
glyphname = b;
lastChange = "2021-12-02 21:18:58 +0000";
layers = (
{
layerId = "5BF74C62-CA98-4714-A2D2-DE21E3561B55";
paths = (
{
closed = 1;
nodes = (
"80 668 LINE",
"80 0 LINE",
"142 0 LINE",
"164 75 LINE",
"194 22 OFFCURVE",
"267 -12 OFFCURVE",
"345 -12 CURVE SMOOTH",
"458 -12 OFFCURVE",
"568 82 OFFCURVE",
"568 246 CURVE SMOOTH",
"568 409 OFFCURVE",
"458 504 OFFCURVE",
"345 504 CURVE SMOOTH",
"267 504 OFFCURVE",
"194 470 OFFCURVE",
"164 418 CURVE",
"164 668 LINE"
);
},
{
closed = 1;
nodes = (
"408 432 OFFCURVE",
"481 364 OFFCURVE",
"481 246 CURVE SMOOTH",
"481 128 OFFCURVE",
"408 60 OFFCURVE",
"323 60 CURVE SMOOTH",
"238 60 OFFCURVE",
"162 128 OFFCURVE",
"162 246 CURVE SMOOTH",
"162 364 OFFCURVE",
"238 432 OFFCURVE",
"323 432 CURVE SMOOTH"
);
}
);
width = 620;
}
);
note = b;
unicode = 0062;
},
{
glyphname = c;
lastChange = "2021-12-03 12:16:34 +0000";
layers = (
{
layerId = "5BF74C62-CA98-4714-A2D2-DE21E3561B55";
paths = (
{
closed = 1;
nodes = (
"427 -12 OFFCURVE",
"500 35 OFFCURVE",
"537 99 CURVE",
"460 127 LINE",
"438 90 OFFCURVE",
"376 62 OFFCURVE",
"322 62 CURVE SMOOTH",
"248 62 OFFCURVE",
"159 122 OFFCURVE",
"159 247 CURVE SMOOTH",
"159 372 OFFCURVE",
"247 430 OFFCURVE",
"322 430 CURVE SMOOTH",
"373 430 OFFCURVE",
"436 404 OFFCURVE",
"458 364 CURVE",
"535 392 LINE",
"503 453 OFFCURVE",
"417 504 OFFCURVE",
"328 504 CURVE SMOOTH",
"181 504 OFFCURVE",
"68 394 OFFCURVE",
"68 246 CURVE SMOOTH",
"68 96 OFFCURVE",
"177 -12 OFFCURVE",
"319 -12 CURVE SMOOTH"
);
}
);
width = 620;
}
);
leftKerningGroup = c;
note = c;
rightKerningGroup = c;
unicode = 0063;
},
{
glyphname = cacute;
lastChange = "2021-12-02 21:20:44 +0000";
layers = (
{
hints = (
{
horizontal = 1;
place = "{-12, 74}";
type = Stem;
},
{
horizontal = 1;
place = "{430, 74}";
type = Stem;
},
{
place = "{38, 91}";
type = Stem;
}
);
layerId = "5BF74C62-CA98-4714-A2D2-DE21E3561B55";
paths = (
{
closed = 1;
nodes = (
"38 96 OFFCURVE",
"127 -12 OFFCURVE",
"269 -12 CURVE SMOOTH",
"357 -12 OFFCURVE",
"430 35 OFFCURVE",
"467 99 CURVE",
"390 127 LINE",
"368 90 OFFCURVE",
"326 62 OFFCURVE",
"272 62 CURVE SMOOTH",
"198 62 OFFCURVE",
"129 122 OFFCURVE",
"129 247 CURVE SMOOTH",
"129 372 OFFCURVE",
"197 430 OFFCURVE",
"272 430 CURVE SMOOTH",
"323 430 OFFCURVE",
"366 404 OFFCURVE",
"388 364 CURVE",
"465 392 LINE",
"433 453 OFFCURVE",
"367 504 OFFCURVE",
"278 504 CURVE SMOOTH",
"131 504 OFFCURVE",
"38 394 OFFCURVE",
"38 246 CURVE SMOOTH"
);
},
{
closed = 1;
nodes = (
"304 571 LINE",
"310 576 OFFCURVE",
"368 624 OFFCURVE",
"383 641 CURVE",
"393 651 OFFCURVE",
"396 660 OFFCURVE",
"396 669 CURVE SMOOTH",
"396 680 OFFCURVE",
"392 690 OFFCURVE",
"384 697 CURVE",
"377 704 OFFCURVE",
"367 707 OFFCURVE",
"358 707 CURVE SMOOTH",
"348 707 OFFCURVE",
"337 703 OFFCURVE",
"330 694 CURVE",
"312 675 OFFCURVE",
"242 581 OFFCURVE",
"234 571 CURVE"
);
}
);
width = 620;
}
);
leftKerningGroup = c;
note = cacute;
rightKerningGroup = c;
unicode = 0107;
},
{
glyphname = ccaron;
lastChange = "2021-12-02 21:20:44 +0000";
layers = (
{
hints = (
{
horizontal = 1;
place = "{-12, 74}";
type = Stem;
},
{
horizontal = 1;
place = "{430, 74}";
type = Stem;
},
{
horizontal = 1;
place = "{569, 120}";
type = Stem;
},
{
place = "{38, 91}";
type = Stem;
}
);
layerId = "5BF74C62-CA98-4714-A2D2-DE21E3561B55";
paths = (
{
closed = 1;
nodes = (
"38 96 OFFCURVE",
"127 -12 OFFCURVE",
"269 -12 CURVE SMOOTH",
"357 -12 OFFCURVE",
"430 35 OFFCURVE",
"467 99 CURVE",
"390 127 LINE",
"368 90 OFFCURVE",
"326 62 OFFCURVE",
"272 62 CURVE SMOOTH",
"198 62 OFFCURVE",
"129 122 OFFCURVE",
"129 247 CURVE SMOOTH",
"129 372 OFFCURVE",
"197 430 OFFCURVE",
"272 430 CURVE SMOOTH",
"323 430 OFFCURVE",
"366 404 OFFCURVE",
"388 364 CURVE",
"465 392 LINE",
"433 453 OFFCURVE",
"367 504 OFFCURVE",
"278 504 CURVE SMOOTH",
"131 504 OFFCURVE",
"38 394 OFFCURVE",
"38 246 CURVE SMOOTH"
);
},
{
closed = 1;
nodes = (
"227 588 LINE SMOOTH",
"241 575 OFFCURVE",
"259 569 OFFCURVE",
"277 569 CURVE SMOOTH",
"294 569 OFFCURVE",
"312 575 OFFCURVE",
"326 588 CURVE SMOOTH",
"438 689 LINE",
"344 689 LINE",
"276 628 LINE",
"209 689 LINE",
"115 689 LINE"
);
}
);
width = 620;
}
);
leftKerningGroup = c;
note = ccaron;
rightKerningGroup = c;
unicode = 010D;
},
{
glyphname = ccedilla;
lastChange = "2021-12-02 21:20:44 +0000";
layers = (
{
hints = (
{
horizontal = 1;
place = "{-181, 41}";
type = Stem;
},
{
horizontal = 1;
place = "{-81, 40}";
type = Stem;
},
{
horizontal = 1;
place = "{-9, 21}";
target = up;
type = BottomGhost;
},
{
horizontal = 1;
place = "{430, 74}";
type = Stem;
},
{
place = "{50, 91}";
type = Stem;
},
{
place = "{301, 62}";
type = Stem;
}
);
layerId = "5BF74C62-CA98-4714-A2D2-DE21E3561B55";
paths = (
{
closed = 1;
nodes = (
"50 111 OFFCURVE",
"122 10 OFFCURVE",
"239 -9 CURVE",
"209 -57 LINE SMOOTH",
"207 -60 OFFCURVE",
"206 -63 OFFCURVE",
"206 -67 CURVE SMOOTH",
"206 -79 OFFCURVE",
"216 -91 OFFCURVE",
"234 -86 CURVE SMOOTH",
"246 -83 OFFCURVE",
"256 -81 OFFCURVE",
"265 -81 CURVE SMOOTH",
"290 -81 OFFCURVE",
"301 -93 OFFCURVE",
"301 -106 CURVE SMOOTH",
"301 -122 OFFCURVE",
"284 -140 OFFCURVE",
"250 -140 CURVE SMOOTH",
"234 -140 OFFCURVE",
"215 -136 OFFCURVE",
"192 -126 CURVE",
"178 -161 LINE",
"212 -175 OFFCURVE",
"241 -181 OFFCURVE",
"266 -181 CURVE SMOOTH",
"331 -181 OFFCURVE",
"363 -140 OFFCURVE",
"363 -102 CURVE SMOOTH",
"363 -70 OFFCURVE",
"340 -41 OFFCURVE",
"294 -41 CURVE SMOOTH",
"285 -41 OFFCURVE",
"275 -43 OFFCURVE",
"264 -45 CURVE",
"285 -12 LINE",
"371 -11 OFFCURVE",
"443 36 OFFCURVE",
"479 99 CURVE",
"402 127 LINE",
"380 90 OFFCURVE",
"338 62 OFFCURVE",
"284 62 CURVE SMOOTH",
"210 62 OFFCURVE",
"141 122 OFFCURVE",
"141 247 CURVE SMOOTH",
"141 372 OFFCURVE",
"209 430 OFFCURVE",
"284 430 CURVE SMOOTH",
"335 430 OFFCURVE",
"378 404 OFFCURVE",
"400 364 CURVE",
"477 392 LINE",
"445 453 OFFCURVE",
"379 504 OFFCURVE",
"290 504 CURVE SMOOTH",
"143 504 OFFCURVE",
"50 394 OFFCURVE",
"50 246 CURVE SMOOTH"
);
}
);
width = 620;
}
);
leftKerningGroup = c;
note = ccedilla;
rightKerningGroup = c;
unicode = 00E7;
},
{
glyphname = cdotaccent;
lastChange = "2021-12-02 21:20:44 +0000";
layers = (
{
hints = (
{
horizontal = 1;
place = "{-12, 74}";
type = Stem;
},
{
horizontal = 1;
place = "{430, 74}";
type = Stem;
},
{
horizontal = 1;
place = "{590, 108}";
type = Stem;
},
{
place = "{38, 91}";
type = Stem;
},
{
place = "{223, 108}";
type = Stem;
}
);
layerId = "5BF74C62-CA98-4714-A2D2-DE21E3561B55";
paths = (
{
closed = 1;
nodes = (
"38 96 OFFCURVE",
"127 -12 OFFCURVE",
"269 -12 CURVE SMOOTH",
"357 -12 OFFCURVE",
"430 35 OFFCURVE",
"467 99 CURVE",
"390 127 LINE",
"368 90 OFFCURVE",
"326 62 OFFCURVE",
"272 62 CURVE SMOOTH",
"198 62 OFFCURVE",
"129 122 OFFCURVE",
"129 247 CURVE SMOOTH",
"129 372 OFFCURVE",
"197 430 OFFCURVE",
"272 430 CURVE SMOOTH",
"323 430 OFFCURVE",
"366 404 OFFCURVE",
"388 364 CURVE",
"465 392 LINE",
"433 453 OFFCURVE",
"367 504 OFFCURVE",
"278 504 CURVE SMOOTH",
"131 504 OFFCURVE",
"38 394 OFFCURVE",
"38 246 CURVE SMOOTH"
);
},
{
closed = 1;
nodes = (
"307 590 OFFCURVE",
"331 614 OFFCURVE",
"331 644 CURVE SMOOTH",
"331 674 OFFCURVE",
"307 698 OFFCURVE",
"277 698 CURVE SMOOTH",
"247 698 OFFCURVE",
"223 674 OFFCURVE",
"223 644 CURVE SMOOTH",
"223 614 OFFCURVE",
"247 590 OFFCURVE",
"277 590 CURVE SMOOTH"
);
}
);
width = 620;
}
);
leftKerningGroup = c;
note = cdotaccent;
rightKerningGroup = c;
unicode = 010B;
},
{
glyphname = d;
lastChange = "2021-12-02 21:29:39 +0000";
layers = (
{
layerId = "5BF74C62-CA98-4714-A2D2-DE21E3561B55";
paths = (
{
closed = 1;
nodes = (
"329 -12 OFFCURVE",
"382 22 OFFCURVE",
"412 75 CURVE",
"434 0 LINE",
"513 0 LINE",
"496 87 OFFCURVE",
"496 154 OFFCURVE",
"496 187 CURVE SMOOTH",
"496 668 LINE",
"412 668 LINE",
"412 418 LINE",
"382 470 OFFCURVE",
"329 504 OFFCURVE",
"251 504 CURVE SMOOTH",
"138 504 OFFCURVE",
"38 409 OFFCURVE",
"38 246 CURVE SMOOTH",
"38 82 OFFCURVE",
"138 -12 OFFCURVE",
"251 -12 CURVE SMOOTH"
);
},
{
closed = 1;
nodes = (
"358 432 OFFCURVE",
"414 364 OFFCURVE",
"414 246 CURVE SMOOTH",
"414 128 OFFCURVE",
"358 60 OFFCURVE",
"273 60 CURVE SMOOTH",
"188 60 OFFCURVE",
"132 128 OFFCURVE",
"132 246 CURVE SMOOTH",
"132 364 OFFCURVE",
"188 432 OFFCURVE",
"273 432 CURVE SMOOTH"
);
}
);
width = 620;
}
);
leftKerningGroup = c;
note = d;
unicode = 0064;
},
{
glyphname = eth;
lastChange = "2021-12-02 21:20:44 +0000";
layers = (
{
hints = (
{
horizontal = 1;
place = "{-12, 71}";
type = Stem;
},
{
horizontal = 1;
place = "{371, 74}";
type = Stem;
},
{
horizontal = 1;
place = "{602, 77}";
type = Stem;
},
{
place = "{38, 90}";
type = Stem;
},
{
place = "{419, 98}";
type = Stem;
}
);
layerId = "5BF74C62-CA98-4714-A2D2-DE21E3561B55";
paths = (
{
closed = 1;
nodes = (
"38 94 OFFCURVE",
"130 -12 OFFCURVE",
"273 -12 CURVE SMOOTH",
"463 -12 OFFCURVE",
"517 142 OFFCURVE",
"517 303 CURVE SMOOTH",
"517 421 OFFCURVE",
"484 540 OFFCURVE",
"413 604 CURVE",
"453 644 LINE",
"417 680 LINE",
"371 634 LINE",
"316 667 OFFCURVE",
"249 679 OFFCURVE",
"175 679 CURVE",
"175 602 LINE",
"231 602 OFFCURVE",
"277 595 OFFCURVE",
"313 576 CURVE",
"247 510 LINE",
"283 474 LINE",
"356 547 LINE",
"398 506 OFFCURVE",
"424 444 OFFCURVE",
"430 352 CURVE",
"399 405 OFFCURVE",
"342 445 OFFCURVE",
"254 445 CURVE SMOOTH",
"129 445 OFFCURVE",
"38 352 OFFCURVE",
"38 218 CURVE SMOOTH"
);
},
{
closed = 1;
nodes = (
"362 371 OFFCURVE",
"419 307 OFFCURVE",
"419 215 CURVE SMOOTH",
"419 123 OFFCURVE",
"362 59 OFFCURVE",
"273 59 CURVE SMOOTH",
"185 59 OFFCURVE",
"128 123 OFFCURVE",
"128 215 CURVE SMOOTH",
"128 307 OFFCURVE",
"185 371 OFFCURVE",
"273 371 CURVE SMOOTH"
);
}
);
width = 620;
}
);
leftKerningGroup = c;
note = eth;
rightKerningGroup = D;
unicode = 00F0;
},
{
glyphname = dcaron;
lastChange = "2021-12-02 21:20:44 +0000";
layers = (
{
hints = (
{
horizontal = 1;
place = "{0, 21}";
target = up;
type = BottomGhost;
},
{
horizontal = 1;
place = "{496, 172}";
type = Stem;
},
{
horizontal = 1;
place = "{679, -20}";
target = down;
type = TopGhost;
},
{
place = "{38, 94}";
type = Stem;
},
{
place = "{412, 84}";
type = Stem;
},
{
horizontal = 1;
place = "{432, 72}";
type = Stem;
},
{
horizontal = 1;
place = "{-12, 72}";
type = Stem;
}
);
layerId = "5BF74C62-CA98-4714-A2D2-DE21E3561B55";
paths = (
{
closed = 1;
nodes = (
"434 0 LINE",
"513 0 LINE",
"496 87 OFFCURVE",
"496 154 OFFCURVE",
"496 187 CURVE SMOOTH",
"496 668 LINE",
"412 668 LINE",
"412 418 LINE",
"382 470 OFFCURVE",
"329 504 OFFCURVE",
"251 504 CURVE SMOOTH",
"138 504 OFFCURVE",
"38 409 OFFCURVE",
"38 246 CURVE SMOOTH",
"38 82 OFFCURVE",
"138 -12 OFFCURVE",
"251 -12 CURVE SMOOTH",
"329 -12 OFFCURVE",
"382 22 OFFCURVE",
"412 75 CURVE"
);
},
{
closed = 1;
nodes = (
"188 60 OFFCURVE",
"132 128 OFFCURVE",
"132 246 CURVE SMOOTH",
"132 364 OFFCURVE",
"188 432 OFFCURVE",
"273 432 CURVE SMOOTH",
"358 432 OFFCURVE",
"414 364 OFFCURVE",
"414 246 CURVE SMOOTH",
"414 128 OFFCURVE",
"358 60 OFFCURVE",
"273 60 CURVE SMOOTH"
);
},
{
closed = 1;
nodes = (
"586 496 LINE",
"636 630 LINE",
"643 659 OFFCURVE",
"623 679 OFFCURVE",
"599 679 CURVE SMOOTH",
"576 679 OFFCURVE",
"565 661 OFFCURVE",
"563 650 CURVE",
"556 625 OFFCURVE",
"539 509 OFFCURVE",
"537 496 CURVE"
);
}
);
width = 620;
}
);
leftKerningGroup = c;
note = dcaron;
unicode = 010F;
},
{
glyphname = dcroat;
lastChange = "2021-12-02 21:20:44 +0000";
layers = (
{
hints = (
{
horizontal = 1;
place = "{-12, 72}";
type = Stem;
},
{
horizontal = 1;
place = "{432, 72}";
type = Stem;
},
{
horizontal = 1;
place = "{548, 67}";
type = Stem;
},
{
place = "{38, 94}";
type = Stem;
},
{
place = "{412, 84}";
type = Stem;
},
{
horizontal = 1;
place = "{0, 21}";
target = up;
type = BottomGhost;
},
{
horizontal = 1;
place = "{548, 120}";
type = Stem;
}
);
layerId = "5BF74C62-CA98-4714-A2D2-DE21E3561B55";
paths = (
{
closed = 1;
nodes = (
"38 82 OFFCURVE",
"138 -12 OFFCURVE",
"251 -12 CURVE SMOOTH",
"329 -12 OFFCURVE",
"382 22 OFFCURVE",
"412 75 CURVE",
"434 0 LINE",
"513 0 LINE",
"496 87 OFFCURVE",
"496 154 OFFCURVE",
"496 187 CURVE SMOOTH",
"496 548 LINE",
"578 548 LINE",
"578 615 LINE",
"496 615 LINE",
"496 668 LINE",
"412 668 LINE",
"412 615 LINE",
"249 615 LINE",
"249 548 LINE",
"412 548 LINE",
"412 418 LINE",
"382 470 OFFCURVE",
"329 504 OFFCURVE",
"251 504 CURVE SMOOTH",
"138 504 OFFCURVE",
"38 409 OFFCURVE",
"38 246 CURVE SMOOTH"
);
},
{
closed = 1;
nodes = (
"132 364 OFFCURVE",
"188 432 OFFCURVE",
"273 432 CURVE SMOOTH",
"358 432 OFFCURVE",
"414 364 OFFCURVE",
"414 246 CURVE SMOOTH",
"414 128 OFFCURVE",
"358 60 OFFCURVE",
"273 60 CURVE SMOOTH",
"188 60 OFFCURVE",
"132 128 OFFCURVE",
"132 246 CURVE SMOOTH"
);
}
);
width = 620;
}
);
leftKerningGroup = c;
note = dcroat;
rightKerningGroup = f;
unicode = 0111;
},
{
glyphname = e;
lastChange = "2021-12-02 20:38:59 +0000";
layers = (
{
layerId = "5BF74C62-CA98-4714-A2D2-DE21E3561B55";
paths = (
{
closed = 1;
nodes = (
"410 -12 OFFCURVE",
"488 29 OFFCURVE",
"524 87 CURVE",
"444 112 LINE",
"419 87 OFFCURVE",
"403 62 OFFCURVE",
"317 62 CURVE SMOOTH",
"256 62 OFFCURVE",
"148 100 OFFCURVE",
"144 225 CURVE",
"556 225 LINE",
"566 367 OFFCURVE",
"473 504 OFFCURVE",
"315 504 CURVE SMOOTH",
"179 504 OFFCURVE",
"54 404 OFFCURVE",
"54 247 CURVE SMOOTH",
"54 101 OFFCURVE",
"161 -12 OFFCURVE",
"317 -12 CURVE SMOOTH"
);
},
{
closed = 1;
nodes = (
"403 432 OFFCURVE",
"466 362 OFFCURVE",
"467 292 CURVE",
"145 292 LINE",
"153 392 OFFCURVE",
"240 432 OFFCURVE",
"315 432 CURVE SMOOTH"
);
}
);
width = 620;
}
);
leftKerningGroup = c;
note = e;
rightKerningGroup = e;
unicode = 0065;
},
{
glyphname = eacute;
lastChange = "2021-12-02 21:20:44 +0000";
layers = (
{
hints = (
{
horizontal = 1;
place = "{-12, 74}";
type = Stem;
},
{
horizontal = 1;
place = "{225, 67}";
type = Stem;
},
{
horizontal = 1;
place = "{432, 72}";
type = Stem;
},
{
horizontal = 1;
place = "{571, 136}";
type = Stem;
},
{
place = "{38, 90}";
type = Stem;
},
{
place = "{421, 89}";
type = Stem;
}
);
layerId = "5BF74C62-CA98-4714-A2D2-DE21E3561B55";
paths = (
{
closed = 1;
nodes = (
"374 -12 OFFCURVE",
"442 29 OFFCURVE",
"478 87 CURVE",
"397 111 LINE",
"374 81 OFFCURVE",
"337 62 OFFCURVE",
"281 62 CURVE SMOOTH",
"220 62 OFFCURVE",
"132 100 OFFCURVE",
"128 225 CURVE",
"510 225 LINE",
"520 367 OFFCURVE",
"437 504 OFFCURVE",
"279 504 CURVE SMOOTH",
"143 504 OFFCURVE",
"38 404 OFFCURVE",
"38 247 CURVE SMOOTH",
"38 101 OFFCURVE",
"125 -12 OFFCURVE",
"281 -12 CURVE SMOOTH"
);
},
{
closed = 1;
nodes = (
"129 292 LINE",
"137 392 OFFCURVE",
"204 432 OFFCURVE",
"279 432 CURVE SMOOTH",
"367 432 OFFCURVE",
"420 362 OFFCURVE",
"421 292 CURVE"
);
},
{
closed = 1;
nodes = (
"309 571 LINE",
"315 576 OFFCURVE",
"373 624 OFFCURVE",
"388 641 CURVE",
"398 651 OFFCURVE",
"401 660 OFFCURVE",
"401 669 CURVE SMOOTH",
"401 680 OFFCURVE",
"397 690 OFFCURVE",
"389 697 CURVE",
"382 704 OFFCURVE",
"372 707 OFFCURVE",
"363 707 CURVE SMOOTH",
"353 707 OFFCURVE",
"342 703 OFFCURVE",
"335 694 CURVE",
"317 675 OFFCURVE",
"247 581 OFFCURVE",
"239 571 CURVE"
);
}
);
width = 620;
}
);
leftKerningGroup = c;
note = eacute;
rightKerningGroup = e;
unicode = 00E9;
},
{
glyphname = ecaron;
lastChange = "2021-12-02 21:20:44 +0000";
layers = (
{
hints = (
{
horizontal = 1;
place = "{-12, 74}";
type = Stem;
},
{
horizontal = 1;
place = "{225, 67}";
type = Stem;
},
{
horizontal = 1;
place = "{432, 72}";
type = Stem;
},
{
horizontal = 1;
place = "{569, 120}";
type = Stem;
},
{
place = "{38, 90}";
type = Stem;
},
{
place = "{421, 89}";
type = Stem;
}
);
layerId = "5BF74C62-CA98-4714-A2D2-DE21E3561B55";
paths = (
{
closed = 1;
nodes = (
"38 101 OFFCURVE",
"125 -12 OFFCURVE",
"281 -12 CURVE SMOOTH",
"374 -12 OFFCURVE",
"442 29 OFFCURVE",
"478 87 CURVE",
"397 111 LINE",
"374 81 OFFCURVE",
"337 62 OFFCURVE",
"281 62 CURVE SMOOTH",
"220 62 OFFCURVE",
"132 100 OFFCURVE",
"128 225 CURVE",
"510 225 LINE",
"520 367 OFFCURVE",
"437 504 OFFCURVE",
"279 504 CURVE SMOOTH",
"143 504 OFFCURVE",
"38 404 OFFCURVE",
"38 247 CURVE SMOOTH"
);
},
{
closed = 1;
nodes = (
"367 432 OFFCURVE",
"420 362 OFFCURVE",
"421 292 CURVE",
"129 292 LINE",
"137 392 OFFCURVE",
"204 432 OFFCURVE",
"279 432 CURVE SMOOTH"
);
},
{
closed = 1;
nodes = (
"118 689 LINE",
"230 588 LINE SMOOTH",
"244 575 OFFCURVE",
"262 569 OFFCURVE",
"280 569 CURVE SMOOTH",
"297 569 OFFCURVE",
"315 575 OFFCURVE",
"329 588 CURVE SMOOTH",
"441 689 LINE",
"347 689 LINE",
"279 628 LINE",
"212 689 LINE"
);
}
);
width = 620;
}
);
leftKerningGroup = c;
note = ecaron;
rightKerningGroup = e;
unicode = 011B;
},
{
glyphname = ecircumflex;
lastChange = "2021-12-02 21:20:44 +0000";
layers = (
{
hints = (
{
horizontal = 1;
place = "{-12, 74}";
type = Stem;
},
{
horizontal = 1;
place = "{225, 67}";
type = Stem;
},
{
horizontal = 1;
place = "{432, 72}";
type = Stem;
},
{
horizontal = 1;
place = "{575, 120}";
type = Stem;
},
{
place = "{38, 90}";
type = Stem;
},
{
place = "{421, 89}";
type = Stem;
}
);
layerId = "5BF74C62-CA98-4714-A2D2-DE21E3561B55";
paths = (
{
closed = 1;
nodes = (
"374 -12 OFFCURVE",
"442 29 OFFCURVE",
"478 87 CURVE",
"397 111 LINE",
"374 81 OFFCURVE",
"337 62 OFFCURVE",
"281 62 CURVE SMOOTH",
"220 62 OFFCURVE",
"132 100 OFFCURVE",
"128 225 CURVE",
"510 225 LINE",
"520 367 OFFCURVE",
"437 504 OFFCURVE",
"279 504 CURVE SMOOTH",
"143 504 OFFCURVE",
"38 404 OFFCURVE",
"38 247 CURVE SMOOTH",
"38 101 OFFCURVE",
"125 -12 OFFCURVE",
"281 -12 CURVE SMOOTH"
);
},
{
closed = 1;
nodes = (
"129 292 LINE",
"137 392 OFFCURVE",
"204 432 OFFCURVE",
"279 432 CURVE SMOOTH",
"367 432 OFFCURVE",
"420 362 OFFCURVE",
"421 292 CURVE"
);
},
{
closed = 1;
nodes = (
"203 575 LINE",
"270 636 LINE",
"338 575 LINE",
"432 575 LINE",
"320 676 LINE SMOOTH",
"306 689 OFFCURVE",
"288 695 OFFCURVE",
"271 695 CURVE SMOOTH",
"253 695 OFFCURVE",
"235 689 OFFCURVE",
"221 676 CURVE SMOOTH",
"109 575 LINE"
);
}
);
width = 620;
}
);
leftKerningGroup = c;
note = ecircumflex;
rightKerningGroup = e;
unicode = 00EA;
},
{
glyphname = edieresis;
lastChange = "2021-12-02 21:20:44 +0000";
layers = (
{
hints = (
{
horizontal = 1;
place = "{-12, 74}";
type = Stem;
},
{
horizontal = 1;
place = "{225, 67}";
type = Stem;
},
{
horizontal = 1;
place = "{432, 72}";
type = Stem;
},
{
horizontal = 1;
place = "{590, 107}";
type = Stem;
},
{
place = "{38, 90}";
type = Stem;
},
{
place = "{421, 89}";
type = Stem;
},
{
place = "{111, 108}";
type = Stem;
},
{
place = "{323, 107}";
type = Stem;
}
);
layerId = "5BF74C62-CA98-4714-A2D2-DE21E3561B55";
paths = (
{
closed = 1;
nodes = (
"374 -12 OFFCURVE",
"442 29 OFFCURVE",
"478 87 CURVE",
"397 111 LINE",
"374 81 OFFCURVE",
"337 62 OFFCURVE",
"281 62 CURVE SMOOTH",
"220 62 OFFCURVE",
"132 100 OFFCURVE",
"128 225 CURVE",
"510 225 LINE",
"520 367 OFFCURVE",
"437 504 OFFCURVE",
"279 504 CURVE SMOOTH",
"143 504 OFFCURVE",
"38 404 OFFCURVE",
"38 247 CURVE SMOOTH",
"38 101 OFFCURVE",
"125 -12 OFFCURVE",
"281 -12 CURVE SMOOTH"
);
},
{
closed = 1;
nodes = (
"367 432 OFFCURVE",
"420 362 OFFCURVE",
"421 292 CURVE",
"129 292 LINE",
"137 392 OFFCURVE",
"204 432 OFFCURVE",
"279 432 CURVE SMOOTH"
);
},
{
closed = 1;
nodes = (
"195 590 OFFCURVE",
"219 614 OFFCURVE",
"219 644 CURVE SMOOTH",
"219 673 OFFCURVE",
"195 697 OFFCURVE",
"165 697 CURVE SMOOTH",
"135 697 OFFCURVE",
"111 673 OFFCURVE",
"111 644 CURVE SMOOTH",
"111 614 OFFCURVE",
"135 590 OFFCURVE",
"165 590 CURVE SMOOTH"
);
},
{
closed = 1;
nodes = (
"323 614 OFFCURVE",
"347 590 OFFCURVE",
"376 590 CURVE SMOOTH",
"406 590 OFFCURVE",
"430 614 OFFCURVE",
"430 644 CURVE SMOOTH",
"430 673 OFFCURVE",
"406 697 OFFCURVE",
"376 697 CURVE SMOOTH",
"347 697 OFFCURVE",
"323 673 OFFCURVE",
"323 644 CURVE SMOOTH"
);
}
);
width = 620;
}
);
leftKerningGroup = c;
note = edieresis;
rightKerningGroup = e;
unicode = 00EB;
},
{
glyphname = edotaccent;
lastChange = "2021-12-02 21:20:44 +0000";
layers = (
{
hints = (
{
horizontal = 1;
place = "{-12, 74}";
type = Stem;
},
{
horizontal = 1;
place = "{225, 67}";
type = Stem;
},
{
horizontal = 1;
place = "{432, 72}";
type = Stem;
},
{
horizontal = 1;
place = "{590, 108}";
type = Stem;
},
{
place = "{38, 90}";
type = Stem;
},
{
place = "{225, 108}";
type = Stem;
},
{
place = "{421, 89}";
type = Stem;
}
);
layerId = "5BF74C62-CA98-4714-A2D2-DE21E3561B55";
paths = (
{
closed = 1;
nodes = (
"374 -12 OFFCURVE",
"442 29 OFFCURVE",
"478 87 CURVE",
"397 111 LINE",
"374 81 OFFCURVE",
"337 62 OFFCURVE",
"281 62 CURVE SMOOTH",
"220 62 OFFCURVE",
"132 100 OFFCURVE",
"128 225 CURVE",
"510 225 LINE",
"520 367 OFFCURVE",
"437 504 OFFCURVE",
"279 504 CURVE SMOOTH",
"143 504 OFFCURVE",
"38 404 OFFCURVE",
"38 247 CURVE SMOOTH",
"38 101 OFFCURVE",
"125 -12 OFFCURVE",
"281 -12 CURVE SMOOTH"
);
},
{
closed = 1;
nodes = (
"367 432 OFFCURVE",
"420 362 OFFCURVE",
"421 292 CURVE",
"129 292 LINE",
"137 392 OFFCURVE",
"204 432 OFFCURVE",
"279 432 CURVE SMOOTH"
);
},
{
closed = 1;
nodes = (
"309 590 OFFCURVE",
"333 614 OFFCURVE",
"333 644 CURVE SMOOTH",
"333 674 OFFCURVE",
"309 698 OFFCURVE",
"279 698 CURVE SMOOTH",
"249 698 OFFCURVE",
"225 674 OFFCURVE",
"225 644 CURVE SMOOTH",
"225 614 OFFCURVE",
"249 590 OFFCURVE",
"279 590 CURVE SMOOTH"
);
}
);
width = 620;
}
);
leftKerningGroup = c;
note = edotaccent;
rightKerningGroup = e;
unicode = 0117;
},
{
glyphname = egrave;
lastChange = "2021-12-02 21:20:44 +0000";
layers = (
{
hints = (
{
horizontal = 1;
place = "{-12, 74}";
type = Stem;
},
{
horizontal = 1;
place = "{225, 67}";
type = Stem;
},
{
horizontal = 1;
place = "{432, 72}";
type = Stem;
},
{
horizontal = 1;
place = "{571, 136}";
type = Stem;
},
{
place = "{38, 90}";
type = Stem;
},
{
place = "{421, 89}";
type = Stem;
}
);
layerId = "5BF74C62-CA98-4714-A2D2-DE21E3561B55";
paths = (
{
closed = 1;
nodes = (
"374 -12 OFFCURVE",
"442 29 OFFCURVE",
"478 87 CURVE",
"397 111 LINE",
"374 81 OFFCURVE",
"337 62 OFFCURVE",
"281 62 CURVE SMOOTH",
"220 62 OFFCURVE",
"132 100 OFFCURVE",
"128 225 CURVE",
"510 225 LINE",
"520 367 OFFCURVE",
"437 504 OFFCURVE",
"279 504 CURVE SMOOTH",
"143 504 OFFCURVE",
"38 404 OFFCURVE",
"38 247 CURVE SMOOTH",
"38 101 OFFCURVE",
"125 -12 OFFCURVE",
"281 -12 CURVE SMOOTH"
);
},
{
closed = 1;
nodes = (
"129 292 LINE",
"137 392 OFFCURVE",
"204 432 OFFCURVE",
"279 432 CURVE SMOOTH",
"367 432 OFFCURVE",
"420 362 OFFCURVE",
"421 292 CURVE"
);
},
{
closed = 1;
nodes = (
"147 660 OFFCURVE",
"150 651 OFFCURVE",
"164 636 CURVE SMOOTH",
"182 617 OFFCURVE",
"213 592 OFFCURVE",
"239 571 CURVE",
"309 571 LINE",
"216 692 LINE SMOOTH",
"207 704 OFFCURVE",
"196 707 OFFCURVE",
"185 707 CURVE SMOOTH",
"164 707 OFFCURVE",
"147 690 OFFCURVE",
"147 669 CURVE SMOOTH"
);
}
);
width = 620;
}
);
leftKerningGroup = c;
note = egrave;
rightKerningGroup = e;
unicode = 00E8;
},
{
glyphname = emacron;
lastChange = "2021-12-02 21:20:44 +0000";
layers = (
{
hints = (
{
horizontal = 1;
place = "{-12, 74}";
type = Stem;
},
{
horizontal = 1;
place = "{225, 67}";
type = Stem;
},
{
horizontal = 1;
place = "{432, 72}";
type = Stem;
},
{
horizontal = 1;
place = "{601, 67}";
type = Stem;
},
{
place = "{38, 90}";
type = Stem;
},
{
place = "{141, 276}";
type = Stem;
},
{
place = "{421, 89}";
type = Stem;
}
);
layerId = "5BF74C62-CA98-4714-A2D2-DE21E3561B55";
paths = (
{
closed = 1;
nodes = (
"374 -12 OFFCURVE",
"442 29 OFFCURVE",
"478 87 CURVE",
"397 111 LINE",
"374 81 OFFCURVE",
"337 62 OFFCURVE",
"281 62 CURVE SMOOTH",
"220 62 OFFCURVE",
"132 100 OFFCURVE",
"128 225 CURVE",
"510 225 LINE",
"520 367 OFFCURVE",
"437 504 OFFCURVE",
"279 504 CURVE SMOOTH",
"143 504 OFFCURVE",
"38 404 OFFCURVE",
"38 247 CURVE SMOOTH",
"38 101 OFFCURVE",
"125 -12 OFFCURVE",
"281 -12 CURVE SMOOTH"
);
},
{
closed = 1;
nodes = (
"129 292 LINE",
"137 392 OFFCURVE",
"204 432 OFFCURVE",
"279 432 CURVE SMOOTH",
"367 432 OFFCURVE",
"420 362 OFFCURVE",
"421 292 CURVE"
);
},
{
closed = 1;
nodes = (
"141 668 LINE",
"141 601 LINE",
"417 601 LINE",
"417 668 LINE"
);
}
);
width = 620;
}
);
leftKerningGroup = c;
note = emacron;
rightKerningGroup = e;
unicode = 0113;
},
{
glyphname = eogonek;
lastChange = "2021-12-02 21:20:44 +0000";
layers = (
{
hints = (
{
horizontal = 1;
place = "{-173, 58}";
type = Stem;
},
{
horizontal = 1;
place = "{-12, 74}";
type = Stem;
},
{
horizontal = 1;
place = "{225, 67}";
type = Stem;
},
{
horizontal = 1;
place = "{432, 72}";
type = Stem;
},
{
place = "{38, 90}";
type = Stem;
},
{
place = "{254, 70}";
type = Stem;
},
{
place = "{421, 89}";
type = Stem;
}
);
layerId = "5BF74C62-CA98-4714-A2D2-DE21E3561B55";
paths = (
{
closed = 1;
nodes = (
"38 97 OFFCURVE",
"129 -13 OFFCURVE",
"284 -12 CURVE",
"266 -31 OFFCURVE",
"254 -55 OFFCURVE",
"254 -85 CURVE SMOOTH",
"254 -134 OFFCURVE",
"288 -173 OFFCURVE",
"348 -173 CURVE SMOOTH",
"367 -173 OFFCURVE",
"388 -169 OFFCURVE",
"411 -161 CURVE",
"411 -107 LINE",
"398 -113 OFFCURVE",
"385 -115 OFFCURVE",
"373 -115 CURVE SMOOTH",
"345 -115 OFFCURVE",
"324 -102 OFFCURVE",
"324 -70 CURVE SMOOTH",
"324 -40 OFFCURVE",
"348 -14 OFFCURVE",
"391 11 CURVE",
"429 29 OFFCURVE",
"458 55 OFFCURVE",
"478 87 CURVE",
"397 111 LINE",
"374 81 OFFCURVE",
"337 62 OFFCURVE",
"281 62 CURVE SMOOTH",
"220 62 OFFCURVE",
"132 100 OFFCURVE",
"128 225 CURVE",
"510 225 LINE",
"520 367 OFFCURVE",
"437 504 OFFCURVE",
"279 504 CURVE SMOOTH",
"143 504 OFFCURVE",
"38 404 OFFCURVE",
"38 247 CURVE SMOOTH"
);
},
{
closed = 1;
nodes = (
"367 432 OFFCURVE",
"420 362 OFFCURVE",
"421 292 CURVE",
"129 292 LINE",
"137 392 OFFCURVE",
"204 432 OFFCURVE",
"279 432 CURVE SMOOTH"
);
}
);
width = 620;
}
);
leftKerningGroup = c;
note = eogonek;
rightKerningGroup = e;
unicode = 0119;
},
{
glyphname = f;
lastChange = "2021-12-02 21:50:39 +0000";
layers = (
{
layerId = "5BF74C62-CA98-4714-A2D2-DE21E3561B55";
paths = (
{
closed = 1;
nodes = (
"95 429 LINE",
"239 429 LINE",
"239 0 LINE",
"323 0 LINE",
"323 429 LINE",
"476 429 LINE",
"476 496 LINE",
"323 496 LINE",
"323 571 LINE SMOOTH",
"323 622 OFFCURVE",
"331 635 OFFCURVE",
"374 635 CURVE SMOOTH",
"506 635 LINE",
"506 706 LINE",
"372 706 LINE SMOOTH",
"261 706 OFFCURVE",
"239 672 OFFCURVE",
"239 570 CURVE SMOOTH",
"239 496 LINE",
"95 496 LINE"
);
}
);
width = 620;
}
);
note = f;
rightKerningGroup = f;
unicode = 0066;
},
{
glyphname = g;
lastChange = "2021-12-02 21:22:13 +0000";
layers = (
{
layerId = "5BF74C62-CA98-4714-A2D2-DE21E3561B55";
paths = (
{
closed = 1;
nodes = (
"367 9 OFFCURVE",
"415 42 OFFCURVE",
"446 94 CURVE",
"446 28 LINE SMOOTH",
"446 -53 OFFCURVE",
"431 -89 OFFCURVE",
"370 -110 CURVE SMOOTH",
"361 -113 OFFCURVE",
"339 -118 OFFCURVE",
"314 -118 CURVE SMOOTH",
"273 -118 OFFCURVE",
"223 -105 OFFCURVE",
"205 -53 CURVE",
"121 -76 LINE",
"147 -159 OFFCURVE",
"233 -192 OFFCURVE",
"314 -192 CURVE SMOOTH",
"348 -192 OFFCURVE",
"381 -186 OFFCURVE",
"409 -176 CURVE SMOOTH",
"524 -134 OFFCURVE",
"530 -51 OFFCURVE",
"530 47 CURVE SMOOTH",
"530 496 LINE",
"469 496 LINE",
"446 418 LINE",
"415 470 OFFCURVE",
"367 504 OFFCURVE",
"288 504 CURVE SMOOTH",
"178 504 OFFCURVE",
"83 415 OFFCURVE",
"83 256 CURVE SMOOTH",
"83 97 OFFCURVE",
"178 9 OFFCURVE",
"288 9 CURVE SMOOTH"
);
},
{
closed = 1;
nodes = (
"384 432 OFFCURVE",
"449 382 OFFCURVE",
"449 256 CURVE SMOOTH",
"449 130 OFFCURVE",
"384 79 OFFCURVE",
"309 79 CURVE SMOOTH",
"227 79 OFFCURVE",
"174 143 OFFCURVE",
"174 256 CURVE SMOOTH",
"174 369 OFFCURVE",
"227 432 OFFCURVE",
"309 432 CURVE SMOOTH"
);
}
);
width = 620;
}
);
leftKerningGroup = g;
note = g;
unicode = 0067;
},
{
glyphname = gbreve;
lastChange = "2021-12-02 21:20:44 +0000";
layers = (
{
hints = (
{
horizontal = 1;
place = "{-192, 74}";
type = Stem;
},
{
horizontal = 1;
place = "{9, 70}";
type = Stem;
},
{
horizontal = 1;
place = "{496, -20}";
target = down;
type = TopGhost;
},
{
horizontal = 1;
place = "{569, 67}";
type = Stem;
},
{
place = "{38, 91}";
type = Stem;
},
{
place = "{406, 84}";
type = Stem;
},
{
horizontal = 1;
place = "{432, 72}";
type = Stem;
}
);
layerId = "5BF74C62-CA98-4714-A2D2-DE21E3561B55";
paths = (
{
closed = 1;
nodes = (
"81 -76 LINE",
"107 -159 OFFCURVE",
"193 -192 OFFCURVE",
"274 -192 CURVE SMOOTH",
"308 -192 OFFCURVE",
"341 -186 OFFCURVE",
"369 -176 CURVE SMOOTH",
"484 -134 OFFCURVE",
"490 -51 OFFCURVE",
"490 47 CURVE SMOOTH",
"490 496 LINE",
"429 496 LINE",
"406 418 LINE",
"375 470 OFFCURVE",
"327 504 OFFCURVE",
"248 504 CURVE SMOOTH",
"138 504 OFFCURVE",
"38 415 OFFCURVE",
"38 256 CURVE SMOOTH",
"38 97 OFFCURVE",
"138 9 OFFCURVE",
"248 9 CURVE SMOOTH",
"327 9 OFFCURVE",
"375 42 OFFCURVE",
"406 94 CURVE",
"406 28 LINE SMOOTH",
"406 -53 OFFCURVE",
"391 -89 OFFCURVE",
"330 -110 CURVE SMOOTH",
"321 -113 OFFCURVE",
"299 -118 OFFCURVE",
"274 -118 CURVE SMOOTH",
"233 -118 OFFCURVE",
"183 -105 OFFCURVE",
"165 -53 CURVE"
);
},
{
closed = 1;
nodes = (
"187 79 OFFCURVE",
"129 143 OFFCURVE",
"129 256 CURVE SMOOTH",
"129 369 OFFCURVE",
"187 432 OFFCURVE",
"269 432 CURVE SMOOTH",
"344 432 OFFCURVE",
"409 382 OFFCURVE",
"409 256 CURVE SMOOTH",
"409 130 OFFCURVE",
"344 79 OFFCURVE",
"269 79 CURVE SMOOTH"
);
},
{
closed = 1;
nodes = (
"347 689 LINE",
"334 658 OFFCURVE",
"304 636 OFFCURVE",
"269 636 CURVE SMOOTH",
"233 636 OFFCURVE",
"203 658 OFFCURVE",
"191 689 CURVE",
"122 689 LINE",
"136 621 OFFCURVE",
"196 569 OFFCURVE",
"269 569 CURVE SMOOTH",
"341 569 OFFCURVE",
"402 621 OFFCURVE",
"416 689 CURVE"
);
}
);
width = 620;
}
);
leftKerningGroup = g;
note = gbreve;
unicode = 011F;
},
{
glyphname = gcommaaccent;
lastChange = "2021-12-02 21:20:44 +0000";
layers = (
{
hints = (
{
horizontal = 1;
place = "{-192, 74}";
type = Stem;
},
{
horizontal = 1;
place = "{9, 70}";
type = Stem;
},
{
horizontal = 1;
place = "{496, -20}";
target = down;
type = TopGhost;
},
{
horizontal = 1;
place = "{739, 34}";
type = Stem;
},
{
place = "{38, 91}";
type = Stem;
},
{
place = "{191, 66}";
type = Stem;
},
{
place = "{406, 84}";
type = Stem;
},
{
horizontal = 1;
place = "{432, 72}";
type = Stem;
}
);
layerId = "5BF74C62-CA98-4714-A2D2-DE21E3561B55";
paths = (
{
closed = 1;
nodes = (
"81 -76 LINE",
"107 -159 OFFCURVE",
"193 -192 OFFCURVE",
"274 -192 CURVE SMOOTH",
"308 -192 OFFCURVE",
"341 -186 OFFCURVE",
"369 -176 CURVE SMOOTH",
"484 -134 OFFCURVE",
"490 -51 OFFCURVE",
"490 47 CURVE SMOOTH",
"490 496 LINE",
"429 496 LINE",
"406 418 LINE",
"375 470 OFFCURVE",
"327 504 OFFCURVE",
"248 504 CURVE SMOOTH",
"138 504 OFFCURVE",
"38 415 OFFCURVE",
"38 256 CURVE SMOOTH",
"38 97 OFFCURVE",
"138 9 OFFCURVE",
"248 9 CURVE SMOOTH",
"327 9 OFFCURVE",
"375 42 OFFCURVE",
"406 94 CURVE",
"406 28 LINE SMOOTH",
"406 -53 OFFCURVE",
"391 -89 OFFCURVE",
"330 -110 CURVE SMOOTH",
"321 -113 OFFCURVE",
"299 -118 OFFCURVE",
"274 -118 CURVE SMOOTH",
"233 -118 OFFCURVE",
"183 -105 OFFCURVE",
"165 -53 CURVE"
);
},
{
closed = 1;
nodes = (
"187 79 OFFCURVE",
"129 143 OFFCURVE",
"129 256 CURVE SMOOTH",
"129 369 OFFCURVE",
"187 432 OFFCURVE",
"269 432 CURVE SMOOTH",
"344 432 OFFCURVE",
"409 382 OFFCURVE",
"409 256 CURVE SMOOTH",
"409 130 OFFCURVE",
"344 79 OFFCURVE",
"269 79 CURVE SMOOTH"
);
},
{
closed = 1;
nodes = (
"311 773 LINE",
"241 773 OFFCURVE",
"191 729 OFFCURVE",
"191 666 CURVE SMOOTH",
"191 634 OFFCURVE",
"207 600 OFFCURVE",
"247 579 CURVE",
"307 605 LINE",
"270 618 OFFCURVE",
"257 644 OFFCURVE",
"257 670 CURVE SMOOTH",
"257 732 OFFCURVE",
"319 739 OFFCURVE",
"351 739 CURVE"
);
}
);
width = 620;
}
);
leftKerningGroup = g;
note = uni0123;
unicode = 0123;
},
{
glyphname = gdotaccent;
lastChange = "2021-12-02 21:20:44 +0000";
layers = (
{
hints = (
{
horizontal = 1;
place = "{-192, 74}";
type = Stem;
},
{
horizontal = 1;
place = "{9, 70}";
type = Stem;
},
{
horizontal = 1;
place = "{496, -20}";
target = down;
type = TopGhost;
},
{
horizontal = 1;
place = "{591, 108}";
type = Stem;
},
{
place = "{38, 91}";
type = Stem;
},
{
place = "{220, 108}";
type = Stem;
},
{
place = "{406, 84}";
type = Stem;
},
{
horizontal = 1;
place = "{432, 72}";
type = Stem;
}
);
layerId = "5BF74C62-CA98-4714-A2D2-DE21E3561B55";
paths = (
{
closed = 1;
nodes = (
"327 9 OFFCURVE",
"375 42 OFFCURVE",
"406 94 CURVE",
"406 28 LINE SMOOTH",
"406 -53 OFFCURVE",
"391 -89 OFFCURVE",
"330 -110 CURVE SMOOTH",
"321 -113 OFFCURVE",
"299 -118 OFFCURVE",
"274 -118 CURVE SMOOTH",
"233 -118 OFFCURVE",
"183 -105 OFFCURVE",
"165 -53 CURVE",
"81 -76 LINE",
"107 -159 OFFCURVE",
"193 -192 OFFCURVE",
"274 -192 CURVE SMOOTH",
"308 -192 OFFCURVE",
"341 -186 OFFCURVE",
"369 -176 CURVE SMOOTH",
"484 -134 OFFCURVE",
"490 -51 OFFCURVE",
"490 47 CURVE SMOOTH",
"490 496 LINE",
"429 496 LINE",
"406 418 LINE",
"375 470 OFFCURVE",
"327 504 OFFCURVE",
"248 504 CURVE SMOOTH",
"138 504 OFFCURVE",
"38 415 OFFCURVE",
"38 256 CURVE SMOOTH",
"38 97 OFFCURVE",
"138 9 OFFCURVE",
"248 9 CURVE SMOOTH"
);
},
{
closed = 1;
nodes = (
"344 432 OFFCURVE",
"409 382 OFFCURVE",
"409 256 CURVE SMOOTH",
"409 130 OFFCURVE",
"344 79 OFFCURVE",
"269 79 CURVE SMOOTH",
"187 79 OFFCURVE",
"129 143 OFFCURVE",
"129 256 CURVE SMOOTH",
"129 369 OFFCURVE",
"187 432 OFFCURVE",
"269 432 CURVE SMOOTH"
);
},
{
closed = 1;
nodes = (
"220 615 OFFCURVE",
"244 591 OFFCURVE",
"274 591 CURVE SMOOTH",
"304 591 OFFCURVE",
"328 615 OFFCURVE",
"328 645 CURVE SMOOTH",
"328 675 OFFCURVE",
"304 699 OFFCURVE",
"274 699 CURVE SMOOTH",
"244 699 OFFCURVE",
"220 675 OFFCURVE",
"220 645 CURVE SMOOTH"
);
}
);
width = 620;
}
);
leftKerningGroup = g;
note = gdotaccent;
unicode = 0121;
},
{
glyphname = h;
lastChange = "2021-12-03 12:16:25 +0000";
layers = (
{
layerId = "5BF74C62-CA98-4714-A2D2-DE21E3561B55";
paths = (
{
closed = 1;
nodes = (
"107 668 LINE",
"107 0 LINE",
"191 0 LINE",
"191 269 LINE SMOOTH",
"191 375 OFFCURVE",
"241 432 OFFCURVE",
"322 432 CURVE SMOOTH",
"418 432 OFFCURVE",
"431 365 OFFCURVE",
"431 289 CURVE SMOOTH",
"431 0 LINE",
"515 0 LINE",
"515 314 LINE SMOOTH",
"515 427 OFFCURVE",
"471 504 OFFCURVE",
"351 504 CURVE SMOOTH",
"267 504 OFFCURVE",
"219 468 OFFCURVE",
"191 421 CURVE",
"191 668 LINE"
);
}
);
width = 620;
}
);
note = h;
rightKerningGroup = h;
unicode = 0068;
},
{
glyphname = hbar;
lastChange = "2021-12-02 21:20:44 +0000";
layers = (
{
hints = (
{
horizontal = 1;
place = "{0, 21}";
target = up;
type = BottomGhost;
},
{
horizontal = 1;
place = "{432, 72}";
type = Stem;
},
{
horizontal = 1;
place = "{548, 67}";
type = Stem;
},
{
place = "{105, 84}";
type = Stem;
},
{
place = "{429, 84}";
type = Stem;
},
{
horizontal = 1;
place = "{548, 120}";
type = Stem;
}
);
layerId = "5BF74C62-CA98-4714-A2D2-DE21E3561B55";
paths = (
{
closed = 1;
nodes = (
"189 615 LINE",
"189 668 LINE",
"105 668 LINE",
"105 615 LINE",
"20 615 LINE",
"20 548 LINE",
"105 548 LINE",
"105 0 LINE",
"189 0 LINE",
"189 269 LINE SMOOTH",
"189 375 OFFCURVE",
"239 432 OFFCURVE",
"320 432 CURVE SMOOTH",
"416 432 OFFCURVE",
"429 365 OFFCURVE",
"429 289 CURVE SMOOTH",
"429 0 LINE",
"513 0 LINE",
"513 314 LINE SMOOTH",
"513 427 OFFCURVE",
"469 504 OFFCURVE",
"349 504 CURVE SMOOTH",
"265 504 OFFCURVE",
"217 468 OFFCURVE",
"189 421 CURVE",
"189 548 LINE",
"349 548 LINE",
"349 615 LINE"
);
}
);
width = 620;
}
);
note = hbar;
unicode = 0127;
},
{
glyphname = i;
lastChange = "2021-12-02 21:33:13 +0000";
layers = (
{
layerId = "5BF74C62-CA98-4714-A2D2-DE21E3561B55";
paths = (
{
closed = 1;
nodes = (
"139 496 LINE",
"139 429 LINE",
"318 429 LINE",
"318 0 LINE",
"402 0 LINE",
"402 496 LINE"
);
},
{
closed = 1;
nodes = (
"395 590 OFFCURVE",
"423 618 OFFCURVE",
"423 653 CURVE SMOOTH",
"423 687 OFFCURVE",
"395 715 OFFCURVE",
"360 715 CURVE SMOOTH",
"326 715 OFFCURVE",
"298 687 OFFCURVE",
"298 653 CURVE SMOOTH",
"298 618 OFFCURVE",
"326 590 OFFCURVE",
"360 590 CURVE SMOOTH"
);
}
);
width = 620;
}
);
leftKerningGroup = i;
note = i;
unicode = 0069;
},
{
glyphname = idotless;
lastChange = "2021-12-02 21:20:44 +0000";
layers = (
{
hints = (
{
horizontal = 1;
place = "{0, 21}";
target = up;
type = BottomGhost;
},
{
horizontal = 1;
place = "{429, 67}";
type = Stem;
},
{
place = "{114, 84}";
type = Stem;
}
);
layerId = "5BF74C62-CA98-4714-A2D2-DE21E3561B55";
paths = (
{
closed = 1;
nodes = (
"114 0 LINE",
"198 0 LINE",
"198 496 LINE",
"45 496 LINE",
"45 429 LINE",
"114 429 LINE"
);
}
);
width = 620;
}
);
leftKerningGroup = i;
note = dotlessi;
unicode = 0131;
},
{
glyphname = iacute;
lastChange = "2021-12-02 21:20:44 +0000";
layers = (
{
hints = (
{
horizontal = 1;
place = "{0, 21}";
target = up;
type = BottomGhost;
},
{
horizontal = 1;
place = "{429, 67}";
type = Stem;
},
{
horizontal = 1;
place = "{570, 136}";
type = Stem;
},
{
place = "{114, 84}";
type = Stem;
}
);
layerId = "5BF74C62-CA98-4714-A2D2-DE21E3561B55";
paths = (
{
closed = 1;
nodes = (
"45 429 LINE",
"114 429 LINE",
"114 0 LINE",
"198 0 LINE",
"198 496 LINE",
"45 496 LINE"
);
},
{
closed = 1;
nodes = (
"184 570 LINE",
"190 575 OFFCURVE",
"248 623 OFFCURVE",
"263 640 CURVE",
"273 650 OFFCURVE",
"276 659 OFFCURVE",
"276 668 CURVE SMOOTH",
"276 679 OFFCURVE",
"272 689 OFFCURVE",
"264 696 CURVE",
"257 703 OFFCURVE",
"247 706 OFFCURVE",
"238 706 CURVE SMOOTH",
"228 706 OFFCURVE",
"217 702 OFFCURVE",
"210 693 CURVE",
"192 674 OFFCURVE",
"122 580 OFFCURVE",
"114 570 CURVE"
);
}
);
width = 620;
}
);
leftKerningGroup = i;
note = iacute;
unicode = 00ED;
},
{
glyphname = icircumflex;
lastChange = "2021-12-02 21:20:44 +0000";
layers = (
{
hints = (
{
horizontal = 1;
place = "{0, 21}";
target = up;
type = BottomGhost;
},
{
horizontal = 1;
place = "{429, 67}";
type = Stem;
},
{
horizontal = 1;
place = "{575, 120}";
type = Stem;
},
{
place = "{114, 84}";
type = Stem;
}
);
layerId = "5BF74C62-CA98-4714-A2D2-DE21E3561B55";
paths = (
{
closed = 1;
nodes = (
"45 429 LINE",
"114 429 LINE",
"114 0 LINE",
"198 0 LINE",
"198 496 LINE",
"45 496 LINE"
);
},
{
closed = 1;
nodes = (
"81 575 LINE",
"148 636 LINE",
"216 575 LINE",
"310 575 LINE",
"198 676 LINE SMOOTH",
"184 689 OFFCURVE",
"166 695 OFFCURVE",
"149 695 CURVE SMOOTH",
"131 695 OFFCURVE",
"113 689 OFFCURVE",
"99 676 CURVE SMOOTH",
"-13 575 LINE"
);
}
);
width = 620;
}
);
leftKerningGroup = i;
note = icircumflex;
unicode = 00EE;
},
{
glyphname = idieresis;
lastChange = "2021-12-02 21:20:44 +0000";
layers = (
{
hints = (
{
horizontal = 1;
place = "{0, 21}";
target = up;
type = BottomGhost;
},
{
horizontal = 1;
place = "{429, 67}";
type = Stem;
},
{
horizontal = 1;
place = "{584, 107}";
type = Stem;
},
{
place = "{114, 84}";
type = Stem;
},
{
place = "{-21, 108}";
type = Stem;
},
{
place = "{191, 107}";
type = Stem;
}
);
layerId = "5BF74C62-CA98-4714-A2D2-DE21E3561B55";
paths = (
{
closed = 1;
nodes = (
"45 496 LINE",
"45 429 LINE",
"114 429 LINE",
"114 0 LINE",
"198 0 LINE",
"198 496 LINE"
);
},
{
closed = 1;
nodes = (
"-21 608 OFFCURVE",
"3 584 OFFCURVE",
"33 584 CURVE SMOOTH",
"63 584 OFFCURVE",
"87 608 OFFCURVE",
"87 638 CURVE SMOOTH",
"87 667 OFFCURVE",
"63 691 OFFCURVE",
"33 691 CURVE SMOOTH",
"3 691 OFFCURVE",
"-21 667 OFFCURVE",
"-21 638 CURVE SMOOTH"
);
},
{
closed = 1;
nodes = (
"274 584 OFFCURVE",
"298 608 OFFCURVE",
"298 638 CURVE SMOOTH",
"298 667 OFFCURVE",
"274 691 OFFCURVE",
"244 691 CURVE SMOOTH",
"215 691 OFFCURVE",
"191 667 OFFCURVE",
"191 638 CURVE SMOOTH",
"191 608 OFFCURVE",
"215 584 OFFCURVE",
"244 584 CURVE SMOOTH"
);
}
);
width = 620;
}
);
leftKerningGroup = i;
note = idieresis;
unicode = 00EF;
},
{
glyphname = igrave;
lastChange = "2021-12-02 21:20:44 +0000";
layers = (
{
hints = (
{
horizontal = 1;
place = "{0, 21}";
target = up;
type = BottomGhost;
},
{
horizontal = 1;
place = "{429, 67}";
type = Stem;
},
{
horizontal = 1;
place = "{571, 136}";
type = Stem;
},
{
place = "{114, 84}";
type = Stem;
}
);
layerId = "5BF74C62-CA98-4714-A2D2-DE21E3561B55";
paths = (
{
closed = 1;
nodes = (
"114 429 LINE",
"114 0 LINE",
"198 0 LINE",
"198 496 LINE",
"45 496 LINE",
"45 429 LINE"
);
},
{
closed = 1;
nodes = (
"63 617 OFFCURVE",
"94 592 OFFCURVE",
"120 571 CURVE",
"190 571 LINE",
"97 692 LINE SMOOTH",
"88 704 OFFCURVE",
"77 707 OFFCURVE",
"66 707 CURVE SMOOTH",
"45 707 OFFCURVE",
"28 690 OFFCURVE",
"28 669 CURVE SMOOTH",
"28 660 OFFCURVE",
"31 651 OFFCURVE",
"45 636 CURVE SMOOTH"
);
}
);
width = 620;
}
);
leftKerningGroup = i;
note = igrave;
unicode = 00EC;
},
{
glyphname = imacron;
lastChange = "2021-12-02 21:20:44 +0000";
layers = (
{
hints = (
{
horizontal = 1;
place = "{0, 21}";
target = up;
type = BottomGhost;
},
{
horizontal = 1;
place = "{429, 67}";
type = Stem;
},
{
horizontal = 1;
place = "{601, 67}";
type = Stem;
},
{
place = "{114, 84}";
type = Stem;
}
);
layerId = "5BF74C62-CA98-4714-A2D2-DE21E3561B55";
paths = (
{
closed = 1;
nodes = (
"114 0 LINE",
"198 0 LINE",
"198 496 LINE",
"45 496 LINE",
"45 429 LINE",
"114 429 LINE"
);
},
{
closed = 1;
nodes = (
"14 601 LINE",
"290 601 LINE",
"290 668 LINE",
"14 668 LINE"
);
}
);
width = 620;
}
);
leftKerningGroup = i;
note = imacron;
unicode = 012B;
},
{
glyphname = iogonek;
lastChange = "2021-12-02 21:20:44 +0000";
layers = (
{
hints = (
{
horizontal = 1;
place = "{-173, 58}";
type = Stem;
},
{
horizontal = 1;
place = "{0, 21}";
target = up;
type = BottomGhost;
},
{
horizontal = 1;
place = "{429, 67}";
type = Stem;
},
{
horizontal = 1;
place = "{590, 125}";
type = Stem;
},
{
place = "{114, 84}";
type = Stem;
},
{
place = "{35, 70}";
type = Stem;
},
{
place = "{94, 125}";
type = Stem;
}
);
layerId = "5BF74C62-CA98-4714-A2D2-DE21E3561B55";
paths = (
{
closed = 1;
nodes = (
"148 -173 OFFCURVE",
"169 -169 OFFCURVE",
"192 -161 CURVE",
"192 -107 LINE",
"179 -113 OFFCURVE",
"166 -115 OFFCURVE",
"154 -115 CURVE SMOOTH",
"126 -115 OFFCURVE",
"105 -102 OFFCURVE",
"105 -75 CURVE SMOOTH",
"105 -50 OFFCURVE",
"124 -25 OFFCURVE",
"192 0 CURVE",
"198 0 LINE",
"198 496 LINE",
"45 496 LINE",
"45 429 LINE",
"114 429 LINE",
"114 0 LINE",
"115 0 LINE",
"66 -12 OFFCURVE",
"35 -50 OFFCURVE",
"35 -91 CURVE SMOOTH",
"35 -134 OFFCURVE",
"69 -173 OFFCURVE",
"129 -173 CURVE SMOOTH"
);
},
{
closed = 1;
nodes = (
"94 618 OFFCURVE",
"122 590 OFFCURVE",
"156 590 CURVE SMOOTH",
"191 590 OFFCURVE",
"219 618 OFFCURVE",
"219 653 CURVE SMOOTH",
"219 687 OFFCURVE",
"191 715 OFFCURVE",
"156 715 CURVE SMOOTH",
"122 715 OFFCURVE",
"94 687 OFFCURVE",
"94 653 CURVE SMOOTH"
);
}
);
width = 620;
}
);
leftKerningGroup = i;
note = iogonek;
unicode = 012F;
},
{
glyphname = j;
lastChange = "2021-12-02 21:23:19 +0000";
layers = (
{
layerId = "5BF74C62-CA98-4714-A2D2-DE21E3561B55";
paths = (
{
closed = 1;
nodes = (
"122 -159 LINE",
"142 -160 OFFCURVE",
"180 -161 OFFCURVE",
"197 -161 CURVE SMOOTH",
"334 -161 OFFCURVE",
"374 -121 OFFCURVE",
"374 7 CURVE SMOOTH",
"374 496 LINE",
"290 496 LINE",
"290 12 LINE SMOOTH",
"290 -72 OFFCURVE",
"273 -87 OFFCURVE",
"189 -87 CURVE SMOOTH",
"175 -87 OFFCURVE",
"140 -87 OFFCURVE",
"122 -86 CURVE"
);
},
{
closed = 1;
nodes = (
"366 590 OFFCURVE",
"394 618 OFFCURVE",
"394 653 CURVE SMOOTH",
"394 687 OFFCURVE",
"366 715 OFFCURVE",
"332 715 CURVE SMOOTH",
"297 715 OFFCURVE",
"269 687 OFFCURVE",
"269 653 CURVE SMOOTH",
"269 618 OFFCURVE",
"297 590 OFFCURVE",
"332 590 CURVE SMOOTH"
);
}
);
width = 620;
}
);
note = j;
unicode = 006A;
},
{
glyphname = k;
lastChange = "2021-12-03 12:15:00 +0000";
layers = (
{
layerId = "5BF74C62-CA98-4714-A2D2-DE21E3561B55";
paths = (
{
closed = 1;
nodes = (
"90 668 LINE",
"90 0 LINE",
"174 0 LINE",
"174 166 LINE",
"245 227 LINE",
"457 0 LINE",
"560 0 LINE",
"301 272 LINE",
"541 496 LINE",
"434 496 LINE",
"174 273 LINE",
"174 668 LINE"
);
}
);
width = 620;
}
);
note = k;
unicode = 006B;
},
{
glyphname = kcommaaccent;
lastChange = "2021-12-02 21:20:44 +0000";
layers = (
{
hints = (
{
horizontal = 1;
place = "{-250, 34}";
type = Stem;
},
{
horizontal = 1;
place = "{0, 21}";
target = up;
type = BottomGhost;
},
{
horizontal = 1;
place = "{496, -20}";
target = down;
type = TopGhost;
},
{
horizontal = 1;
place = "{668, -20}";
target = down;
type = TopGhost;
},
{
place = "{70, 84}";
type = Stem;
},
{
place = "{240, 66}";
type = Stem;
}
);
layerId = "5BF74C62-CA98-4714-A2D2-DE21E3561B55";
paths = (
{
closed = 1;
nodes = (
"70 0 LINE",
"154 0 LINE",
"154 166 LINE",
"212 229 LINE",
"377 0 LINE",
"480 0 LINE",
"268 291 LINE",
"455 496 LINE",
"354 496 LINE",
"154 273 LINE",
"154 668 LINE",
"70 668 LINE"
);
},
{
closed = 1;
nodes = (
"186 -250 LINE",
"256 -250 OFFCURVE",
"306 -206 OFFCURVE",
"306 -143 CURVE SMOOTH",
"306 -111 OFFCURVE",
"290 -77 OFFCURVE",
"250 -56 CURVE",
"190 -82 LINE",
"227 -95 OFFCURVE",
"240 -121 OFFCURVE",
"240 -147 CURVE SMOOTH",
"240 -209 OFFCURVE",
"178 -216 OFFCURVE",
"146 -216 CURVE"
);
}
);
width = 620;
}
);
note = uni0137;
unicode = 0137;
},
{
glyphname = l;
lastChange = "2021-12-03 12:12:11 +0000";
layers = (
{
layerId = "5BF74C62-CA98-4714-A2D2-DE21E3561B55";
paths = (
{
closed = 1;
nodes = (
"230 164 LINE SMOOTH",
"230 31 OFFCURVE",
"297 -24 OFFCURVE",
"394 10 CURVE SMOOTH",
"484 42 LINE",
"458 110 LINE",
"385 84 LINE SMOOTH",
"328 64 OFFCURVE",
"314 107 OFFCURVE",
"314 178 CURVE SMOOTH",
"314 667 LINE",
"230 667 LINE"
);
}
);
width = 620;
}
);
note = l;
unicode = 006C;
},
{
glyphname = lcaron;
lastChange = "2021-12-02 21:20:44 +0000";
layers = (
{
hints = (
{
horizontal = 1;
place = "{0, 74}";
type = Stem;
},
{
horizontal = 1;
place = "{679, -20}";
target = down;
type = TopGhost;
},
{
place = "{70, 84}";
type = Stem;
},
{
horizontal = 1;
place = "{496, 171}";
type = Stem;
}
);
layerId = "5BF74C62-CA98-4714-A2D2-DE21E3561B55";
paths = (
{
closed = 1;
nodes = (
"224 0 LINE",
"224 74 LINE",
"205 74 LINE SMOOTH",
"158 74 OFFCURVE",
"154 87 OFFCURVE",
"154 138 CURVE SMOOTH",
"154 667 LINE",
"70 667 LINE",
"70 124 LINE SMOOTH",
"70 21 OFFCURVE",
"92 0 OFFCURVE",
"187 0 CURVE SMOOTH"
);
},
{
closed = 1;
nodes = (
"245 496 LINE",
"295 630 LINE",
"302 659 OFFCURVE",
"282 679 OFFCURVE",
"258 679 CURVE SMOOTH",
"235 679 OFFCURVE",
"224 661 OFFCURVE",
"222 650 CURVE",
"215 625 OFFCURVE",
"198 509 OFFCURVE",
"196 496 CURVE"
);
}
);
width = 620;
}
);
note = lcaron;
unicode = 013E;
},
{
glyphname = lcommaaccent;
lastChange = "2021-12-02 21:20:44 +0000";
layers = (
{
hints = (
{
horizontal = 1;
place = "{-250, 34}";
type = Stem;
},
{
horizontal = 1;
place = "{0, 74}";
type = Stem;
},
{
horizontal = 1;
place = "{667, -20}";
target = down;
type = TopGhost;
},
{
place = "{70, 84}";
type = Stem;
},
{
place = "{130, 66}";
type = Stem;
}
);
layerId = "5BF74C62-CA98-4714-A2D2-DE21E3561B55";
paths = (
{
closed = 1;
nodes = (
"224 0 LINE",
"224 74 LINE",
"205 74 LINE SMOOTH",
"158 74 OFFCURVE",
"154 87 OFFCURVE",
"154 138 CURVE SMOOTH",
"154 667 LINE",
"70 667 LINE",
"70 124 LINE SMOOTH",
"70 21 OFFCURVE",
"92 0 OFFCURVE",
"187 0 CURVE SMOOTH"
);
},
{
closed = 1;
nodes = (
"76 -250 LINE",
"146 -250 OFFCURVE",
"196 -206 OFFCURVE",
"196 -143 CURVE SMOOTH",
"196 -111 OFFCURVE",
"180 -77 OFFCURVE",
"140 -56 CURVE",
"80 -82 LINE",
"117 -95 OFFCURVE",
"130 -121 OFFCURVE",
"130 -147 CURVE SMOOTH",
"130 -209 OFFCURVE",
"68 -216 OFFCURVE",
"36 -216 CURVE"
);
}
);
width = 620;
}
);
note = uni013C;
unicode = 013C;
},
{
glyphname = lslash;
lastChange = "2021-12-02 21:20:44 +0000";
layers = (
{
hints = (
{
horizontal = 1;
place = "{0, 74}";
type = Stem;
},
{
horizontal = 1;
place = "{668, -20}";
target = down;
type = TopGhost;
},
{
place = "{68, 84}";
type = Stem;
}
);
layerId = "5BF74C62-CA98-4714-A2D2-DE21E3561B55";
paths = (
{
closed = 1;
nodes = (
"15 242 LINE",
"68 273 LINE",
"68 124 LINE SMOOTH",
"68 22 OFFCURVE",
"90 0 OFFCURVE",
"186 0 CURVE SMOOTH",
"222 0 LINE",
"222 74 LINE",
"204 74 LINE SMOOTH",
"156 74 OFFCURVE",
"152 87 OFFCURVE",
"152 139 CURVE SMOOTH",
"152 323 LINE",
"222 365 LINE",
"222 436 LINE",
"152 394 LINE",
"152 668 LINE",
"68 668 LINE",
"68 344 LINE",
"15 312 LINE"
);
}
);
width = 620;
}
);
note = lslash;
unicode = 0142;
},
{
glyphname = m;
lastChange = "2021-12-14 11:48:49 +0000";
layers = (
{
layerId = "5BF74C62-CA98-4714-A2D2-DE21E3561B55";
paths = (
{
closed = 1;
nodes = (
"53 496 LINE",
"53 0 LINE",
"137 0 LINE",
"137 269 LINE SMOOTH",
"137 365 OFFCURVE",
"145 432 OFFCURVE",
"207 432 CURVE SMOOTH",
"268 432 OFFCURVE",
"263 315 OFFCURVE",
"263 289 CURVE SMOOTH",
"263 0 LINE",
"347 0 LINE",
"347 269 LINE SMOOTH",
"347 370 OFFCURVE",
"350 432 OFFCURVE",
"416 432 CURVE SMOOTH",
"488 432 OFFCURVE",
"482 355 OFFCURVE",
"482 289 CURVE SMOOTH",
"482 0 LINE",
"566 0 LINE",
"566 314 LINE SMOOTH",
"566 427 OFFCURVE",
"561 504 OFFCURVE",
"446 504 CURVE SMOOTH",
"377 504 OFFCURVE",
"349 468 OFFCURVE",
"329 417 CURVE",
"297 471 OFFCURVE",
"272 504 OFFCURVE",
"236 504 CURVE SMOOTH",
"162 504 OFFCURVE",
"161 468 OFFCURVE",
"137 431 CURVE",
"115 496 LINE"
);
}
);
width = 620;
}
);
note = m;
rightKerningGroup = h;
unicode = 006D;
},
{
glyphname = n;
lastChange = "2021-12-03 12:23:55 +0000";
layers = (
{
layerId = "5BF74C62-CA98-4714-A2D2-DE21E3561B55";
paths = (
{
closed = 1;
nodes = (
"80 496 LINE",
"80 0 LINE",
"164 0 LINE",
"164 269 LINE SMOOTH",
"164 375 OFFCURVE",
"234 432 OFFCURVE",
"315 432 CURVE SMOOTH",
"411 432 OFFCURVE",
"444 375 OFFCURVE",
"444 299 CURVE SMOOTH",
"444 0 LINE",
"528 0 LINE",
"528 314 LINE SMOOTH",
"528 427 OFFCURVE",
"464 504 OFFCURVE",
"344 504 CURVE SMOOTH",
"260 504 OFFCURVE",
"192 468 OFFCURVE",
"164 421 CURVE",
"142 496 LINE"
);
}
);
width = 621;
}
);
leftKerningGroup = n;
note = n;
rightKerningGroup = h;
unicode = 006E;
},
{
glyphname = nacute;
lastChange = "2021-12-02 21:20:44 +0000";
layers = (
{
hints = (
{
horizontal = 1;
place = "{0, 21}";
target = up;
type = BottomGhost;
},
{
horizontal = 1;
place = "{432, 72}";
type = Stem;
},
{
place = "{70, 84}";
type = Stem;
},
{
place = "{394, 84}";
type = Stem;
},
{
horizontal = 1;
place = "{496, -20}";
target = down;
type = TopGhost;
},
{
horizontal = 1;
place = "{571, 136}";
type = Stem;
}
);
layerId = "5BF74C62-CA98-4714-A2D2-DE21E3561B55";
paths = (
{
closed = 1;
nodes = (
"70 496 LINE",
"70 0 LINE",
"154 0 LINE",
"154 269 LINE SMOOTH",
"154 375 OFFCURVE",
"204 432 OFFCURVE",
"285 432 CURVE SMOOTH",
"381 432 OFFCURVE",
"394 365 OFFCURVE",
"394 289 CURVE SMOOTH",
"394 0 LINE",
"478 0 LINE",
"478 314 LINE SMOOTH",
"478 427 OFFCURVE",
"434 504 OFFCURVE",
"314 504 CURVE SMOOTH",
"230 504 OFFCURVE",
"182 468 OFFCURVE",
"154 421 CURVE",
"132 496 LINE"
);
},
{
closed = 1;
nodes = (
"315 571 LINE",
"321 576 OFFCURVE",
"379 624 OFFCURVE",
"394 641 CURVE",
"404 651 OFFCURVE",
"407 660 OFFCURVE",
"407 669 CURVE SMOOTH",
"407 680 OFFCURVE",
"403 690 OFFCURVE",
"395 697 CURVE",
"388 704 OFFCURVE",
"378 707 OFFCURVE",
"369 707 CURVE SMOOTH",
"359 707 OFFCURVE",
"348 703 OFFCURVE",
"341 694 CURVE",
"323 675 OFFCURVE",
"253 581 OFFCURVE",
"245 571 CURVE"
);
}
);
width = 620;
}
);
leftKerningGroup = n;
note = nacute;
rightKerningGroup = h;
unicode = 0144;
},
{
glyphname = ncaron;
lastChange = "2021-12-02 21:20:44 +0000";
layers = (
{
hints = (
{
horizontal = 1;
place = "{0, 21}";
target = up;
type = BottomGhost;
},
{
horizontal = 1;
place = "{432, 72}";
type = Stem;
},
{
horizontal = 1;
place = "{569, 120}";
type = Stem;
},
{
place = "{70, 84}";
type = Stem;
},
{
place = "{394, 84}";
type = Stem;
},
{
horizontal = 1;
place = "{496, -20}";
target = down;
type = TopGhost;
}
);
layerId = "5BF74C62-CA98-4714-A2D2-DE21E3561B55";
paths = (
{
closed = 1;
nodes = (
"154 0 LINE",
"154 269 LINE SMOOTH",
"154 375 OFFCURVE",
"204 432 OFFCURVE",
"285 432 CURVE SMOOTH",
"381 432 OFFCURVE",
"394 365 OFFCURVE",
"394 289 CURVE SMOOTH",
"394 0 LINE",
"478 0 LINE",
"478 314 LINE SMOOTH",
"478 427 OFFCURVE",
"434 504 OFFCURVE",
"314 504 CURVE SMOOTH",
"230 504 OFFCURVE",
"182 468 OFFCURVE",
"154 421 CURVE",
"132 496 LINE",
"70 496 LINE",
"70 0 LINE"
);
},
{
closed = 1;
nodes = (
"111 689 LINE",
"223 588 LINE SMOOTH",
"237 575 OFFCURVE",
"255 569 OFFCURVE",
"273 569 CURVE SMOOTH",
"290 569 OFFCURVE",
"308 575 OFFCURVE",
"322 588 CURVE SMOOTH",
"434 689 LINE",
"340 689 LINE",
"272 628 LINE",
"205 689 LINE"
);
}
);
width = 620;
}
);
leftKerningGroup = n;
note = ncaron;
rightKerningGroup = h;
unicode = 0148;
},
{
glyphname = ncommaaccent;
lastChange = "2021-12-02 21:20:44 +0000";
layers = (
{
hints = (
{
horizontal = 1;
place = "{-250, 34}";
type = Stem;
},
{
horizontal = 1;
place = "{0, 21}";
target = up;
type = BottomGhost;
},
{
horizontal = 1;
place = "{432, 72}";
type = Stem;
},
{
place = "{70, 84}";
type = Stem;
},
{
place = "{281, 66}";
type = Stem;
},
{
place = "{394, 84}";
type = Stem;
},
{
horizontal = 1;
place = "{496, -20}";
target = down;
type = TopGhost;
}
);
layerId = "5BF74C62-CA98-4714-A2D2-DE21E3561B55";
paths = (
{
closed = 1;
nodes = (
"70 0 LINE",
"154 0 LINE",
"154 269 LINE SMOOTH",
"154 375 OFFCURVE",
"204 432 OFFCURVE",
"285 432 CURVE SMOOTH",
"381 432 OFFCURVE",
"394 365 OFFCURVE",
"394 289 CURVE SMOOTH",
"394 0 LINE",
"478 0 LINE",
"478 314 LINE SMOOTH",
"478 427 OFFCURVE",
"434 504 OFFCURVE",
"314 504 CURVE SMOOTH",
"230 504 OFFCURVE",
"182 468 OFFCURVE",
"154 421 CURVE",
"132 496 LINE",
"70 496 LINE"
);
},
{
closed = 1;
nodes = (
"227 -250 LINE",
"297 -250 OFFCURVE",
"347 -206 OFFCURVE",
"347 -143 CURVE SMOOTH",
"347 -111 OFFCURVE",
"331 -77 OFFCURVE",
"291 -56 CURVE",
"231 -82 LINE",
"268 -95 OFFCURVE",
"281 -121 OFFCURVE",
"281 -147 CURVE SMOOTH",
"281 -209 OFFCURVE",
"219 -216 OFFCURVE",
"187 -216 CURVE"
);
}
);
width = 620;
}
);
leftKerningGroup = n;
note = uni0146;
rightKerningGroup = h;
unicode = 0146;
},
{
glyphname = ntilde;
lastChange = "2021-12-02 21:20:44 +0000";
layers = (
{
hints = (
{
horizontal = 1;
place = "{0, 21}";
target = up;
type = BottomGhost;
},
{
horizontal = 1;
place = "{432, 72}";
type = Stem;
},
{
horizontal = 1;
place = "{618, 63}";
type = Stem;
},
{
place = "{70, 84}";
type = Stem;
},
{
place = "{394, 84}";
type = Stem;
},
{
horizontal = 1;
place = "{496, -20}";
target = down;
type = TopGhost;
},
{
horizontal = 1;
place = "{575, 63}";
type = Stem;
}
);
layerId = "5BF74C62-CA98-4714-A2D2-DE21E3561B55";
paths = (
{
closed = 1;
nodes = (
"154 0 LINE",
"154 269 LINE SMOOTH",
"154 375 OFFCURVE",
"204 432 OFFCURVE",
"285 432 CURVE SMOOTH",
"381 432 OFFCURVE",
"394 365 OFFCURVE",
"394 289 CURVE SMOOTH",
"394 0 LINE",
"478 0 LINE",
"478 314 LINE SMOOTH",
"478 427 OFFCURVE",
"434 504 OFFCURVE",
"314 504 CURVE SMOOTH",
"230 504 OFFCURVE",
"182 468 OFFCURVE",
"154 421 CURVE",
"132 496 LINE",
"70 496 LINE",
"70 0 LINE"
);
},
{
closed = 1;
nodes = (
"172 577 LINE",
"175 603 OFFCURVE",
"190 618 OFFCURVE",
"214 618 CURVE SMOOTH",
"253 618 OFFCURVE",
"284 575 OFFCURVE",
"339 575 CURVE SMOOTH",
"402 575 OFFCURVE",
"436 627 OFFCURVE",
"436 649 CURVE SMOOTH",
"436 666 OFFCURVE",
"421 680 OFFCURVE",
"405 680 CURVE SMOOTH",
"395 680 OFFCURVE",
"384 675 OFFCURVE",
"376 661 CURVE SMOOTH",
"367 646 OFFCURVE",
"357 638 OFFCURVE",
"337 638 CURVE SMOOTH",
"295 638 OFFCURVE",
"269 681 OFFCURVE",
"213 681 CURVE SMOOTH",
"160 681 OFFCURVE",
"119 648 OFFCURVE",
"107 577 CURVE"
);
}
);
width = 620;
}
);
leftKerningGroup = n;
note = ntilde;
rightKerningGroup = h;
unicode = 00F1;
},
{
glyphname = o;
lastChange = "2021-12-02 20:43:12 +0000";
layers = (
{
layerId = "5BF74C62-CA98-4714-A2D2-DE21E3561B55";
paths = (
{
closed = 1;
nodes = (
"62 67 OFFCURVE",
"196 -12 OFFCURVE",
"310 -12 CURVE SMOOTH",
"425 -12 OFFCURVE",
"558 67 OFFCURVE",
"558 246 CURVE SMOOTH",
"558 425 OFFCURVE",
"425 504 OFFCURVE",
"310 504 CURVE SMOOTH",
"196 504 OFFCURVE",
"62 425 OFFCURVE",
"62 246 CURVE SMOOTH"
);
},
{
closed = 1;
nodes = (
"152 374 OFFCURVE",
"239 430 OFFCURVE",
"310 430 CURVE SMOOTH",
"382 430 OFFCURVE",
"468 374 OFFCURVE",
"468 246 CURVE SMOOTH",
"468 118 OFFCURVE",
"382 62 OFFCURVE",
"310 62 CURVE SMOOTH",
"239 62 OFFCURVE",
"152 118 OFFCURVE",
"152 246 CURVE SMOOTH"
);
}
);
width = 620;
}
);
leftKerningGroup = c;
note = o;
unicode = 006F;
},
{
glyphname = oacute;
lastChange = "2021-12-02 21:20:44 +0000";
layers = (
{
hints = (
{
horizontal = 1;
place = "{-12, 74}";
type = Stem;
},
{
horizontal = 1;
place = "{430, 74}";
type = Stem;
},
{
horizontal = 1;
place = "{571, 136}";
type = Stem;
},
{
place = "{38, 90}";
type = Stem;
},
{
place = "{424, 90}";
type = Stem;
}
);
layerId = "5BF74C62-CA98-4714-A2D2-DE21E3561B55";
paths = (
{
closed = 1;
nodes = (
"38 67 OFFCURVE",
"162 -12 OFFCURVE",
"276 -12 CURVE SMOOTH",
"391 -12 OFFCURVE",
"514 67 OFFCURVE",
"514 246 CURVE SMOOTH",
"514 425 OFFCURVE",
"391 504 OFFCURVE",
"276 504 CURVE SMOOTH",
"162 504 OFFCURVE",
"38 425 OFFCURVE",
"38 246 CURVE SMOOTH"
);
},
{
closed = 1;
nodes = (
"128 374 OFFCURVE",
"205 430 OFFCURVE",
"276 430 CURVE SMOOTH",
"348 430 OFFCURVE",
"424 374 OFFCURVE",
"424 246 CURVE SMOOTH",
"424 118 OFFCURVE",
"348 62 OFFCURVE",
"276 62 CURVE SMOOTH",
"205 62 OFFCURVE",
"128 118 OFFCURVE",
"128 246 CURVE SMOOTH"
);
},
{
closed = 1;
nodes = (
"311 571 LINE",
"317 576 OFFCURVE",
"375 624 OFFCURVE",
"390 641 CURVE",
"400 651 OFFCURVE",
"403 660 OFFCURVE",
"403 669 CURVE SMOOTH",
"403 680 OFFCURVE",
"399 690 OFFCURVE",
"391 697 CURVE",
"384 704 OFFCURVE",
"374 707 OFFCURVE",
"365 707 CURVE SMOOTH",
"355 707 OFFCURVE",
"344 703 OFFCURVE",
"337 694 CURVE",
"319 675 OFFCURVE",
"249 581 OFFCURVE",
"241 571 CURVE"
);
}
);
width = 620;
}
);
leftKerningGroup = c;
note = oacute;
unicode = 00F3;
},
{
glyphname = ocircumflex;
lastChange = "2021-12-02 21:20:44 +0000";
layers = (
{
hints = (
{
horizontal = 1;
place = "{-12, 74}";
type = Stem;
},
{
horizontal = 1;
place = "{430, 74}";
type = Stem;
},
{
horizontal = 1;
place = "{575, 120}";
type = Stem;
},
{
place = "{38, 90}";
type = Stem;
},
{
place = "{424, 90}";
type = Stem;
}
);
layerId = "5BF74C62-CA98-4714-A2D2-DE21E3561B55";
paths = (
{
closed = 1;
nodes = (
"38 67 OFFCURVE",
"162 -12 OFFCURVE",
"276 -12 CURVE SMOOTH",
"391 -12 OFFCURVE",
"514 67 OFFCURVE",
"514 246 CURVE SMOOTH",
"514 425 OFFCURVE",
"391 504 OFFCURVE",
"276 504 CURVE SMOOTH",
"162 504 OFFCURVE",
"38 425 OFFCURVE",
"38 246 CURVE SMOOTH"
);
},
{
closed = 1;
nodes = (
"348 430 OFFCURVE",
"424 374 OFFCURVE",
"424 246 CURVE SMOOTH",
"424 118 OFFCURVE",
"348 62 OFFCURVE",
"276 62 CURVE SMOOTH",
"205 62 OFFCURVE",
"128 118 OFFCURVE",
"128 246 CURVE SMOOTH",
"128 374 OFFCURVE",
"205 430 OFFCURVE",
"276 430 CURVE SMOOTH"
);
},
{
closed = 1;
nodes = (
"115 575 LINE",
"209 575 LINE",
"276 636 LINE",
"344 575 LINE",
"438 575 LINE",
"326 676 LINE SMOOTH",
"312 689 OFFCURVE",
"294 695 OFFCURVE",
"277 695 CURVE SMOOTH",
"259 695 OFFCURVE",
"241 689 OFFCURVE",
"227 676 CURVE SMOOTH"
);
}
);
width = 620;
}
);
leftKerningGroup = c;
note = ocircumflex;
unicode = 00F4;
},
{
glyphname = odieresis;
lastChange = "2021-12-02 21:20:44 +0000";
layers = (
{
hints = (
{
horizontal = 1;
place = "{-12, 74}";
type = Stem;
},
{
horizontal = 1;
place = "{430, 74}";
type = Stem;
},
{
horizontal = 1;
place = "{590, 107}";
type = Stem;
},
{
place = "{38, 90}";
type = Stem;
},
{
place = "{424, 90}";
type = Stem;
},
{
place = "{117, 108}";
type = Stem;
},
{
place = "{329, 107}";
type = Stem;
}
);
layerId = "5BF74C62-CA98-4714-A2D2-DE21E3561B55";
paths = (
{
closed = 1;
nodes = (
"38 67 OFFCURVE",
"162 -12 OFFCURVE",
"276 -12 CURVE SMOOTH",
"391 -12 OFFCURVE",
"514 67 OFFCURVE",
"514 246 CURVE SMOOTH",
"514 425 OFFCURVE",
"391 504 OFFCURVE",
"276 504 CURVE SMOOTH",
"162 504 OFFCURVE",
"38 425 OFFCURVE",
"38 246 CURVE SMOOTH"
);
},
{
closed = 1;
nodes = (
"128 374 OFFCURVE",
"205 430 OFFCURVE",
"276 430 CURVE SMOOTH",
"348 430 OFFCURVE",
"424 374 OFFCURVE",
"424 246 CURVE SMOOTH",
"424 118 OFFCURVE",
"348 62 OFFCURVE",
"276 62 CURVE SMOOTH",
"205 62 OFFCURVE",
"128 118 OFFCURVE",
"128 246 CURVE SMOOTH"
);
},
{
closed = 1;
nodes = (
"117 614 OFFCURVE",
"141 590 OFFCURVE",
"171 590 CURVE SMOOTH",
"201 590 OFFCURVE",
"225 614 OFFCURVE",
"225 644 CURVE SMOOTH",
"225 673 OFFCURVE",
"201 697 OFFCURVE",
"171 697 CURVE SMOOTH",
"141 697 OFFCURVE",
"117 673 OFFCURVE",
"117 644 CURVE SMOOTH"
);
},
{
closed = 1;
nodes = (
"329 614 OFFCURVE",
"353 590 OFFCURVE",
"382 590 CURVE SMOOTH",
"412 590 OFFCURVE",
"436 614 OFFCURVE",
"436 644 CURVE SMOOTH",
"436 673 OFFCURVE",
"412 697 OFFCURVE",
"382 697 CURVE SMOOTH",
"353 697 OFFCURVE",
"329 673 OFFCURVE",
"329 644 CURVE SMOOTH"
);
}
);
width = 620;
}
);
leftKerningGroup = c;
note = odieresis;
unicode = 00F6;
},
{
glyphname = ograve;
lastChange = "2021-12-02 21:20:44 +0000";
layers = (
{
hints = (
{
horizontal = 1;
place = "{-12, 74}";
type = Stem;
},
{
horizontal = 1;
place = "{430, 74}";
type = Stem;
},
{
horizontal = 1;
place = "{571, 136}";
type = Stem;
},
{
place = "{38, 90}";
type = Stem;
},
{
place = "{424, 90}";
type = Stem;
}
);
layerId = "5BF74C62-CA98-4714-A2D2-DE21E3561B55";
paths = (
{
closed = 1;
nodes = (
"38 67 OFFCURVE",
"162 -12 OFFCURVE",
"276 -12 CURVE SMOOTH",
"391 -12 OFFCURVE",
"514 67 OFFCURVE",
"514 246 CURVE SMOOTH",
"514 425 OFFCURVE",
"391 504 OFFCURVE",
"276 504 CURVE SMOOTH",
"162 504 OFFCURVE",
"38 425 OFFCURVE",
"38 246 CURVE SMOOTH"
);
},
{
closed = 1;
nodes = (
"348 430 OFFCURVE",
"424 374 OFFCURVE",
"424 246 CURVE SMOOTH",
"424 118 OFFCURVE",
"348 62 OFFCURVE",
"276 62 CURVE SMOOTH",
"205 62 OFFCURVE",
"128 118 OFFCURVE",
"128 246 CURVE SMOOTH",
"128 374 OFFCURVE",
"205 430 OFFCURVE",
"276 430 CURVE SMOOTH"
);
},
{
closed = 1;
nodes = (
"182 617 OFFCURVE",
"213 592 OFFCURVE",
"239 571 CURVE",
"309 571 LINE",
"216 692 LINE SMOOTH",
"207 704 OFFCURVE",
"196 707 OFFCURVE",
"185 707 CURVE SMOOTH",
"164 707 OFFCURVE",
"147 690 OFFCURVE",
"147 669 CURVE SMOOTH",
"147 660 OFFCURVE",
"150 651 OFFCURVE",
"164 636 CURVE SMOOTH"
);
}
);
width = 620;
}
);
leftKerningGroup = c;
note = ograve;
unicode = 00F2;
},
{
glyphname = ohungarumlaut;
lastChange = "2021-12-02 21:20:44 +0000";
layers = (
{
hints = (
{
horizontal = 1;
place = "{-12, 74}";
type = Stem;
},
{
horizontal = 1;
place = "{430, 74}";
type = Stem;
},
{
horizontal = 1;
place = "{572, 136}";
type = Stem;
},
{
place = "{38, 90}";
type = Stem;
},
{
place = "{424, 90}";
type = Stem;
}
);
layerId = "5BF74C62-CA98-4714-A2D2-DE21E3561B55";
paths = (
{
closed = 1;
nodes = (
"38 67 OFFCURVE",
"162 -12 OFFCURVE",
"276 -12 CURVE SMOOTH",
"391 -12 OFFCURVE",
"514 67 OFFCURVE",
"514 246 CURVE SMOOTH",
"514 425 OFFCURVE",
"391 504 OFFCURVE",
"276 504 CURVE SMOOTH",
"162 504 OFFCURVE",
"38 425 OFFCURVE",
"38 246 CURVE SMOOTH"
);
},
{
closed = 1;
nodes = (
"128 374 OFFCURVE",
"205 430 OFFCURVE",
"276 430 CURVE SMOOTH",
"348 430 OFFCURVE",
"424 374 OFFCURVE",
"424 246 CURVE SMOOTH",
"424 118 OFFCURVE",
"348 62 OFFCURVE",
"276 62 CURVE SMOOTH",
"205 62 OFFCURVE",
"128 118 OFFCURVE",
"128 246 CURVE SMOOTH"
);
},
{
closed = 1;
nodes = (
"230 572 LINE",
"311 643 LINE SMOOTH",
"320 651 OFFCURVE",
"322 661 OFFCURVE",
"322 670 CURVE SMOOTH",
"322 691 OFFCURVE",
"305 708 OFFCURVE",
"284 708 CURVE SMOOTH",
"274 708 OFFCURVE",
"263 704 OFFCURVE",
"256 695 CURVE SMOOTH",
"176 594 LINE",
"160 572 LINE"
);
},
{
closed = 1;
nodes = (
"376 572 LINE",
"457 643 LINE SMOOTH",
"466 651 OFFCURVE",
"468 661 OFFCURVE",
"468 670 CURVE SMOOTH",
"468 690 OFFCURVE",
"450 708 OFFCURVE",
"430 708 CURVE SMOOTH",
"420 708 OFFCURVE",
"409 704 OFFCURVE",
"402 695 CURVE SMOOTH",
"322 594 LINE",
"306 572 LINE"
);
}
);
width = 620;
}
);
note = ohungarumlaut;
unicode = 0151;
},
{
glyphname = oslash;
lastChange = "2021-12-02 21:20:44 +0000";
layers = (
{
hints = (
{
horizontal = 1;
place = "{-9, 21}";
target = up;
type = BottomGhost;
},
{
horizontal = 1;
place = "{430, 74}";
type = Stem;
},
{
place = "{38, 89}";
type = Stem;
},
{
place = "{424, 90}";
type = Stem;
},
{
horizontal = 1;
place = "{-12, 74}";
type = Stem;
}
);
layerId = "5BF74C62-CA98-4714-A2D2-DE21E3561B55";
paths = (
{
closed = 1;
nodes = (
"38 174 OFFCURVE",
"58 118 OFFCURVE",
"89 77 CURVE",
"45 24 LINE",
"83 -9 LINE",
"125 40 LINE",
"168 4 OFFCURVE",
"223 -12 OFFCURVE",
"276 -12 CURVE SMOOTH",
"391 -12 OFFCURVE",
"514 67 OFFCURVE",
"514 246 CURVE SMOOTH",
"514 324 OFFCURVE",
"490 384 OFFCURVE",
"454 425 CURVE",
"495 474 LINE",
"457 507 LINE",
"416 460 LINE",
"375 490 OFFCURVE",
"325 504 OFFCURVE",
"276 504 CURVE SMOOTH",
"161 504 OFFCURVE",
"38 425 OFFCURVE",
"38 246 CURVE SMOOTH"
);
},
{
closed = 1;
nodes = (
"397 359 LINE",
"414 330 OFFCURVE",
"424 293 OFFCURVE",
"424 246 CURVE SMOOTH",
"424 118 OFFCURVE",
"348 62 OFFCURVE",
"276 62 CURVE SMOOTH",
"241 62 OFFCURVE",
"206 75 OFFCURVE",
"178 103 CURVE"
);
},
{
closed = 1;
nodes = (
"127 374 OFFCURVE",
"204 430 OFFCURVE",
"276 430 CURVE SMOOTH",
"306 430 OFFCURVE",
"338 420 OFFCURVE",
"364 398 CURVE",
"148 146 LINE",
"135 172 OFFCURVE",
"127 206 OFFCURVE",
"127 246 CURVE SMOOTH"
);
}
);
width = 620;
}
);
leftKerningGroup = c;
note = oslash;
unicode = 00F8;
},
{
glyphname = otilde;
lastChange = "2021-12-02 21:20:44 +0000";
layers = (
{
hints = (
{
horizontal = 1;
place = "{-12, 74}";
type = Stem;
},
{
horizontal = 1;
place = "{430, 74}";
type = Stem;
},
{
horizontal = 1;
place = "{618, 63}";
type = Stem;
},
{
place = "{38, 90}";
type = Stem;
},
{
place = "{424, 90}";
type = Stem;
},
{
horizontal = 1;
place = "{575, 63}";
type = Stem;
}
);
layerId = "5BF74C62-CA98-4714-A2D2-DE21E3561B55";
paths = (
{
closed = 1;
nodes = (
"391 -12 OFFCURVE",
"514 67 OFFCURVE",
"514 246 CURVE SMOOTH",
"514 425 OFFCURVE",
"391 504 OFFCURVE",
"276 504 CURVE SMOOTH",
"162 504 OFFCURVE",
"38 425 OFFCURVE",
"38 246 CURVE SMOOTH",
"38 67 OFFCURVE",
"162 -12 OFFCURVE",
"276 -12 CURVE SMOOTH"
);
},
{
closed = 1;
nodes = (
"128 374 OFFCURVE",
"205 430 OFFCURVE",
"276 430 CURVE SMOOTH",
"348 430 OFFCURVE",
"424 374 OFFCURVE",
"424 246 CURVE SMOOTH",
"424 118 OFFCURVE",
"348 62 OFFCURVE",
"276 62 CURVE SMOOTH",
"205 62 OFFCURVE",
"128 118 OFFCURVE",
"128 246 CURVE SMOOTH"
);
},
{
closed = 1;
nodes = (
"172 577 LINE",
"175 603 OFFCURVE",
"190 618 OFFCURVE",
"214 618 CURVE SMOOTH",
"253 618 OFFCURVE",
"284 575 OFFCURVE",
"339 575 CURVE SMOOTH",
"402 575 OFFCURVE",
"436 627 OFFCURVE",
"436 649 CURVE SMOOTH",
"436 666 OFFCURVE",
"421 680 OFFCURVE",
"405 680 CURVE SMOOTH",
"395 680 OFFCURVE",
"384 675 OFFCURVE",
"376 661 CURVE SMOOTH",
"367 646 OFFCURVE",
"357 638 OFFCURVE",
"337 638 CURVE SMOOTH",
"295 638 OFFCURVE",
"269 681 OFFCURVE",
"213 681 CURVE SMOOTH",
"160 681 OFFCURVE",
"119 648 OFFCURVE",
"107 577 CURVE"
);
}
);
width = 620;
}
);
leftKerningGroup = c;
note = otilde;
unicode = 00F5;
},
{
glyphname = oe;
lastChange = "2021-12-02 21:20:44 +0000";
layers = (
{
hints = (
{
horizontal = 1;
place = "{-12, 74}";
type = Stem;
},
{
horizontal = 1;
place = "{225, 67}";
type = Stem;
},
{
horizontal = 1;
place = "{433, 72}";
type = Stem;
},
{
place = "{38, 89}";
type = Stem;
},
{
place = "{424, 92}";
type = Stem;
},
{
place = "{809, 89}";
type = Stem;
}
);
layerId = "5BF74C62-CA98-4714-A2D2-DE21E3561B55";
paths = (
{
closed = 1;
nodes = (
"38 67 OFFCURVE",
"161 -12 OFFCURVE",
"276 -12 CURVE SMOOTH",
"348 -12 OFFCURVE",
"424 20 OFFCURVE",
"470 88 CURVE",
"510 27 OFFCURVE",
"578 -12 OFFCURVE",
"669 -12 CURVE SMOOTH",
"762 -12 OFFCURVE",
"829 30 OFFCURVE",
"866 87 CURVE",
"785 111 LINE",
"761 81 OFFCURVE",
"725 62 OFFCURVE",
"669 62 CURVE SMOOTH",
"608 62 OFFCURVE",
"520 100 OFFCURVE",
"516 225 CURVE",
"898 225 LINE",
"908 367 OFFCURVE",
"825 505 OFFCURVE",
"666 505 CURVE SMOOTH",
"585 505 OFFCURVE",
"514 468 OFFCURVE",
"471 404 CURVE",
"425 473 OFFCURVE",
"349 505 OFFCURVE",
"276 505 CURVE SMOOTH",
"161 505 OFFCURVE",
"38 426 OFFCURVE",
"38 246 CURVE SMOOTH"
);
},
{
closed = 1;
nodes = (
"348 431 OFFCURVE",
"424 375 OFFCURVE",
"424 246 CURVE SMOOTH",
"424 118 OFFCURVE",
"348 62 OFFCURVE",
"276 62 CURVE SMOOTH",
"204 62 OFFCURVE",
"127 118 OFFCURVE",
"127 246 CURVE SMOOTH",
"127 375 OFFCURVE",
"204 431 OFFCURVE",
"276 431 CURVE SMOOTH"
);
},
{
closed = 1;
nodes = (
"755 433 OFFCURVE",
"807 363 OFFCURVE",
"809 292 CURVE",
"517 292 LINE",
"524 392 OFFCURVE",
"592 433 OFFCURVE",
"666 433 CURVE SMOOTH"
);
}
);
width = 620;
}
);
leftKerningGroup = c;
note = oe;
rightKerningGroup = e;
unicode = 0153;
},
{
glyphname = p;
lastChange = "2021-12-03 11:51:54 +0000";
layers = (
{
layerId = "5BF74C62-CA98-4714-A2D2-DE21E3561B55";
paths = (
{
closed = 1;
nodes = (
"63 496 LINE",
"63 -161 LINE",
"147 -161 LINE",
"147 75 LINE",
"177 22 OFFCURVE",
"240 -12 OFFCURVE",
"318 -12 CURVE SMOOTH",
"431 -12 OFFCURVE",
"541 83 OFFCURVE",
"541 246 CURVE SMOOTH",
"541 410 OFFCURVE",
"431 504 OFFCURVE",
"318 504 CURVE SMOOTH",
"240 504 OFFCURVE",
"177 470 OFFCURVE",
"147 418 CURVE",
"124 496 LINE"
);
},
{
closed = 1;
nodes = (
"145 364 OFFCURVE",
"211 432 OFFCURVE",
"296 432 CURVE SMOOTH",
"381 432 OFFCURVE",
"447 364 OFFCURVE",
"447 246 CURVE SMOOTH",
"447 128 OFFCURVE",
"381 60 OFFCURVE",
"296 60 CURVE SMOOTH",
"211 60 OFFCURVE",
"145 128 OFFCURVE",
"145 246 CURVE SMOOTH"
);
}
);
width = 620;
}
);
note = p;
unicode = 0070;
},
{
glyphname = thorn;
lastChange = "2021-12-02 21:20:44 +0000";
layers = (
{
hints = (
{
horizontal = 1;
place = "{-12, 72}";
type = Stem;
},
{
horizontal = 1;
place = "{433, 72}";
type = Stem;
},
{
horizontal = 1;
place = "{669, -20}";
target = down;
type = TopGhost;
},
{
place = "{70, 84}";
type = Stem;
},
{
place = "{434, 94}";
type = Stem;
}
);
layerId = "5BF74C62-CA98-4714-A2D2-DE21E3561B55";
paths = (
{
closed = 1;
nodes = (
"70 669 LINE",
"70 -161 LINE",
"154 -161 LINE",
"154 75 LINE",
"184 23 OFFCURVE",
"237 -12 OFFCURVE",
"315 -12 CURVE SMOOTH",
"428 -12 OFFCURVE",
"528 83 OFFCURVE",
"528 246 CURVE SMOOTH",
"528 411 OFFCURVE",
"428 505 OFFCURVE",
"315 505 CURVE SMOOTH",
"237 505 OFFCURVE",
"184 470 OFFCURVE",
"154 418 CURVE",
"154 669 LINE"
);
},
{
closed = 1;
nodes = (
"378 433 OFFCURVE",
"434 364 OFFCURVE",
"434 246 CURVE SMOOTH",
"434 128 OFFCURVE",
"378 60 OFFCURVE",
"293 60 CURVE SMOOTH",
"208 60 OFFCURVE",
"152 129 OFFCURVE",
"152 246 CURVE SMOOTH",
"152 364 OFFCURVE",
"208 433 OFFCURVE",
"293 433 CURVE SMOOTH"
);
}
);
width = 620;
}
);
note = thorn;
unicode = 00FE;
},
{
glyphname = q;
lastChange = "2021-12-02 21:51:47 +0000";
layers = (
{
layerId = "5BF74C62-CA98-4714-A2D2-DE21E3561B55";
paths = (
{
closed = 1;
nodes = (
"329 -12 OFFCURVE",
"382 22 OFFCURVE",
"412 75 CURVE",
"412 -27 LINE SMOOTH",
"412 -141 OFFCURVE",
"475 -173 OFFCURVE",
"543 -173 CURVE SMOOTH",
"572 -173 OFFCURVE",
"602 -167 OFFCURVE",
"628 -159 CURVE",
"628 -81 LINE",
"604 -90 OFFCURVE",
"583 -94 OFFCURVE",
"567 -94 CURVE SMOOTH",
"516 -94 OFFCURVE",
"496 -60 OFFCURVE",
"496 -24 CURVE SMOOTH",
"496 496 LINE",
"435 496 LINE",
"412 418 LINE",
"382 470 OFFCURVE",
"329 504 OFFCURVE",
"250 504 CURVE SMOOTH",
"137 504 OFFCURVE",
"38 410 OFFCURVE",
"38 246 CURVE SMOOTH",
"38 83 OFFCURVE",
"137 -12 OFFCURVE",
"250 -12 CURVE SMOOTH"
);
},
{
closed = 1;
nodes = (
"358 432 OFFCURVE",
"414 364 OFFCURVE",
"414 246 CURVE SMOOTH",
"414 128 OFFCURVE",
"358 60 OFFCURVE",
"273 60 CURVE SMOOTH",
"187 60 OFFCURVE",
"131 128 OFFCURVE",
"131 246 CURVE SMOOTH",
"131 364 OFFCURVE",
"187 432 OFFCURVE",
"273 432 CURVE SMOOTH"
);
}
);
width = 620;
}
);
leftKerningGroup = c;
note = q;
rightKerningGroup = q;
unicode = 0071;
},
{
glyphname = r;
lastChange = "2021-12-03 12:15:15 +0000";
layers = (
{
layerId = "5BF74C62-CA98-4714-A2D2-DE21E3561B55";
paths = (
{
closed = 1;
nodes = (
"149 496 LINE",
"149 0 LINE",
"233 0 LINE",
"233 239 LINE SMOOTH",
"233 346 OFFCURVE",
"378 474 OFFCURVE",
"494 397 CURVE",
"544 454 LINE",
"433 534 OFFCURVE",
"272 469 OFFCURVE",
"237 409 CURVE",
"210 496 LINE"
);
}
);
width = 620;
}
);
note = r;
unicode = 0072;
},
{
glyphname = racute;
lastChange = "2021-12-02 21:20:44 +0000";
layers = (
{
hints = (
{
horizontal = 1;
place = "{0, 21}";
target = up;
type = BottomGhost;
},
{
horizontal = 1;
place = "{417, 87}";
type = Stem;
},
{
place = "{70, 84}";
type = Stem;
},
{
horizontal = 1;
place = "{496, -20}";
target = down;
type = TopGhost;
}
);
layerId = "5BF74C62-CA98-4714-A2D2-DE21E3561B55";
paths = (
{
closed = 1;
nodes = (
"70 496 LINE",
"70 0 LINE",
"154 0 LINE",
"154 213 LINE SMOOTH",
"154 345 OFFCURVE",
"199 417 OFFCURVE",
"335 417 CURVE",
"335 504 LINE",
"252 504 OFFCURVE",
"193 464 OFFCURVE",
"158 404 CURVE",
"131 496 LINE"
);
},
{
closed = 1;
nodes = (
"211 571 LINE",
"217 576 OFFCURVE",
"275 624 OFFCURVE",
"290 641 CURVE",
"300 651 OFFCURVE",
"303 660 OFFCURVE",
"303 669 CURVE SMOOTH",
"303 680 OFFCURVE",
"299 690 OFFCURVE",
"291 697 CURVE",
"284 704 OFFCURVE",
"274 707 OFFCURVE",
"265 707 CURVE SMOOTH",
"255 707 OFFCURVE",
"244 703 OFFCURVE",
"237 694 CURVE",
"219 675 OFFCURVE",
"149 581 OFFCURVE",
"141 571 CURVE"
);
}
);
width = 620;
}
);
note = racute;
unicode = 0155;
},
{
glyphname = rcaron;
lastChange = "2021-12-02 21:20:44 +0000";
layers = (
{
hints = (
{
horizontal = 1;
place = "{0, 21}";
target = up;
type = BottomGhost;
},
{
horizontal = 1;
place = "{417, 87}";
type = Stem;
},
{
horizontal = 1;
place = "{569, 120}";
type = Stem;
},
{
place = "{70, 84}";
type = Stem;
},
{
horizontal = 1;
place = "{496, -20}";
target = down;
type = TopGhost;
}
);
layerId = "5BF74C62-CA98-4714-A2D2-DE21E3561B55";
paths = (
{
closed = 1;
nodes = (
"154 0 LINE",
"154 213 LINE SMOOTH",
"154 345 OFFCURVE",
"199 417 OFFCURVE",
"335 417 CURVE",
"335 504 LINE",
"252 504 OFFCURVE",
"193 464 OFFCURVE",
"158 404 CURVE",
"131 496 LINE",
"70 496 LINE",
"70 0 LINE"
);
},
{
closed = 1;
nodes = (
"158 588 LINE SMOOTH",
"172 575 OFFCURVE",
"190 569 OFFCURVE",
"208 569 CURVE SMOOTH",
"225 569 OFFCURVE",
"243 575 OFFCURVE",
"257 588 CURVE SMOOTH",
"369 689 LINE",
"275 689 LINE",
"207 628 LINE",
"140 689 LINE",
"46 689 LINE"
);
}
);
width = 620;
}
);
note = rcaron;
unicode = 0159;
},
{
glyphname = s;
lastChange = "2021-12-02 20:50:31 +0000";
layers = (
{
layerId = "5BF74C62-CA98-4714-A2D2-DE21E3561B55";
paths = (
{
closed = 1;
nodes = (
"75 88 LINE",
"120 18 OFFCURVE",
"227 -12 OFFCURVE",
"313 -12 CURVE SMOOTH",
"416 -12 OFFCURVE",
"545 42 OFFCURVE",
"545 136 CURVE SMOOTH",
"545 347 OFFCURVE",
"170 248 OFFCURVE",
"170 368 CURVE SMOOTH",
"170 411 OFFCURVE",
"249 434 OFFCURVE",
"300 434 CURVE SMOOTH",
"347 434 OFFCURVE",
"450 414 OFFCURVE",
"486 368 CURVE",
"522 434 LINE",
"480 481 OFFCURVE",
"384 505 OFFCURVE",
"306 505 CURVE SMOOTH",
"210 505 OFFCURVE",
"85 456 OFFCURVE",
"85 367 CURVE SMOOTH",
"85 169 OFFCURVE",
"460 269 OFFCURVE",
"460 133 CURVE SMOOTH",
"460 88 OFFCURVE",
"372 59 OFFCURVE",
"313 59 CURVE SMOOTH",
"258 59 OFFCURVE",
"166 88 OFFCURVE",
"126 142 CURVE"
);
}
);
width = 620;
}
);
leftKerningGroup = s;
note = s;
rightKerningGroup = s;
unicode = 0073;
},
{
glyphname = sacute;
lastChange = "2021-12-02 21:20:44 +0000";
layers = (
{
hints = (
{
horizontal = 1;
place = "{-12, 71}";
type = Stem;
},
{
horizontal = 1;
place = "{224, 67}";
type = Stem;
},
{
horizontal = 1;
place = "{434, 71}";
type = Stem;
},
{
horizontal = 1;
place = "{570, 136}";
type = Stem;
},
{
place = "{41, 85}";
type = Stem;
},
{
place = "{356, 85}";
type = Stem;
}
);
layerId = "5BF74C62-CA98-4714-A2D2-DE21E3561B55";
paths = (
{
closed = 1;
nodes = (
"31 112 LINE",
"64 27 OFFCURVE",
"153 -12 OFFCURVE",
"239 -12 CURVE SMOOTH",
"342 -12 OFFCURVE",
"441 42 OFFCURVE",
"441 136 CURVE SMOOTH",
"441 347 OFFCURVE",
"126 248 OFFCURVE",
"126 368 CURVE SMOOTH",
"126 411 OFFCURVE",
"175 434 OFFCURVE",
"226 434 CURVE SMOOTH",
"273 434 OFFCURVE",
"322 415 OFFCURVE",
"339 375 CURVE",
"418 404 LINE",
"388 473 OFFCURVE",
"310 505 OFFCURVE",
"232 505 CURVE SMOOTH",
"136 505 OFFCURVE",
"41 456 OFFCURVE",
"41 367 CURVE SMOOTH",
"41 169 OFFCURVE",
"356 269 OFFCURVE",
"356 133 CURVE SMOOTH",
"356 88 OFFCURVE",
"298 59 OFFCURVE",
"239 59 CURVE SMOOTH",
"184 59 OFFCURVE",
"127 83 OFFCURVE",
"112 142 CURVE"
);
},
{
closed = 1;
nodes = (
"268 570 LINE",
"274 575 OFFCURVE",
"332 623 OFFCURVE",
"347 640 CURVE",
"357 650 OFFCURVE",
"360 659 OFFCURVE",
"360 668 CURVE SMOOTH",
"360 679 OFFCURVE",
"356 689 OFFCURVE",
"348 696 CURVE",
"341 703 OFFCURVE",
"331 706 OFFCURVE",
"322 706 CURVE SMOOTH",
"312 706 OFFCURVE",
"301 702 OFFCURVE",
"294 693 CURVE",
"276 674 OFFCURVE",
"206 580 OFFCURVE",
"198 570 CURVE"
);
}
);
width = 620;
}
);
leftKerningGroup = s;
note = sacute;
rightKerningGroup = s;
unicode = 015B;
},
